<?xml version="1.0" encoding="UTF-8"?><svg xmlns="http://www.w3.org/2000/svg" viewBox="0 0 400 400"><defs><style>.cls-1{fill:#fff;}.cls-2{fill:#383838;}</style></defs><g id="Layer_1"><rect class="cls-2" width="400" height="400"/></g><g id="Layer_2"><g id="Beerkens"><path class="cls-1" d="m348.64494,188.77214c-26.02566-13.51438-55.59045-21.02312-84.18958-27.2761,8.94186-16.06938,25.28237-25.03226,43.832-23.35795,10.00941.91196,19.63764,5.24184,26.91938,12.1214,6.87343,6.49619,12.34212,17.70425,10.12631,27.18361-.56335,2.39873,3.1325,3.42752,3.69654,1.01521,4.0812-17.43657-9.31079-32.37255-24.47103-39.58221.5376-.67955.80591-1.5602.60343-2.46673-.79033-3.5294-6.14086-3.14071-7.39656-.20652-1.2415-.3873-2.47758-.72311-3.70002-1.00297-22.34276-5.02586-44.12356,6.33319-54.12809,26.65359-.51993,1.05463-.13805,2.54278,1.14423,2.8241,24.49135,5.30708,49.8689,11.43503,73.08827,21.4852-13.37376-1.92857-26.8004-2.83913-40.37942-3.34876-2.4741-.09644-2.46464,3.74149,0,3.82582,17.99116.67941,35.67713,2.02362,53.37659,5.63596,2.03865.41583,3.49892-2.45183,1.47795-3.50365Z"/><g><path class="cls-1" d="m139.93952,215.56711c-.60412,3.36365-2.04408,6.47319-4.08732,9.21978-1.89656,2.3906-4.24026,4.35299-7.0453,6.0273-4.24639,2.39881-9.16815,3.72799-13.79028,3.72799-.90723,0-1.8164-.09241-2.64806-.17939-2.95256-.35348-5.52867-1.33057-7.35049-2.8351-2.26953-1.77618-3.40707-4.3502-3.40707-7.36051,0-1.50856.9846-2.66239,2.2737-2.66239,1.21089,0,2.27231,1.15383,2.27231,2.66239,0,3.81483,5.0747,4.7009,6.66399,4.9727,4.47337.51923,9.69823-.62778,13.93919-3.10814,3.41041-1.95557,7.65137-5.5,8.71419-11.61984.45048-2.47758-.15225-4.78246-1.59485-6.46359-3.1048-3.37186-9.319-3.90181-17.34348-1.60236l-1.36717.35195c-1.21103.36155-2.42261-.53398-2.72557-1.85912-.37714-1.41616.3777-2.92194,1.59067-3.27932l1.36244-.44575c13.48523-4.24847,19.46563-12.40822,18.3356-18.52528-.22754-1.42423-.91321-2.57128-2.12006-3.72375-1.29105-1.24354-3.10745-2.21662-5.38115-3.01301-8.33301-3.01165-22.87618-3.01165-37.87805.09241-14.84683,3.00893-27.04157,8.24393-31.81392,13.74003-2.42318,2.83218-2.04536,4.60989-1.89315,5.23099.3819,1.41741-.37781,2.92458-1.58872,3.2725-1.13752.44575-2.42658-.44032-2.80575-1.85509-.528-2.47883-.528-6.29645,3.10678-10.37221,2.87983-3.37186,7.65274-6.38212,14.01181-9.22388,5.83706-2.48027,12.8029-4.60989,20.22798-6.02873,7.42523-1.59688,14.84628-2.38921,21.6639-2.4789,7.34701,0,13.55996.79368,18.33295,2.4789,2.8017,1.06549,5.15069,2.396,6.89027,3.98609,1.97004,1.9543,3.259,4.17092,3.71435,6.83602.45661,2.4748.22628,4.9592-.60677,7.53044-.8318,2.48022-2.27036,4.86943-4.24444,7.0915-1.13268,1.41477-2.57333,2.65836-4.08801,3.81901,3.18093.61289,5.75773,2.03587,7.72416,4.15732,2.65293,2.9314,3.71296,7.09958,2.95534,11.43906Zm-33.09963-31.37911c-.15364.35474-10.90564,33.06567-10.90564,47.87256,0,1.41477-.98947,2.66365-2.27843,2.66365-1.21103,0-2.26758-1.24888-2.26758-2.66365,0-15.87096,10.752-48.40529,11.20735-49.74115.45591-1.41209,1.74292-2.12966,2.9552-1.59557,1.13546.53276,1.74097,2.12969,1.2891,3.46416Z"/><path class="cls-1" d="m147.02964,229.84253c-1.28632-1.86052-2.72891-5.31936-1.8157-10.81796.90848-5.40773,3.18288-10.63733,6.59009-14.71852,2.95311-3.54443,6.58995-5.93364,9.54793-6.29506,2.72279-.35334,4.84369.97987,5.83038,3.63405,1.13476,3.28475.22754,8.15557-2.42191,12.76685-1.74696,2.93419-4.01593,5.50556-6.67011,7.27228-2.57541,1.86052-5.3799,2.839-8.33036,3.10272,1.28437,3.45328,4.46585,4.35299,7.42105,4.35299,4.31847,0,8.41052-2.22207,12.04806-6.48126,2.87838-3.36504,4.46516-6.73677,4.46516-6.73677.60746-1.33057,1.97199-1.85926,3.10745-1.14701,1.06073.7039,1.51399,2.29945.90709,3.54568-.07404.17131-1.81696,4.07577-5.14944,7.97493-4.54726,5.32061-9.84825,8.15432-15.37831,8.15432-4.47058,0-8.02642-1.59429-10.15136-4.60724Zm14.77558-26.50954c-1.43856.18203-4.09483,1.50578-6.74568,4.7023-2.64945,3.19234-4.4685,7.18252-5.2996,11.43099,4.46585-.53551,8.5586-3.45884,11.21014-8.0633,1.89378-3.28349,2.42317-6.47319,1.9699-7.71525,0-.17271-.15155-.4445-.75901-.4445-.07682,0-.23032,0-.37575.08976Z"/><path class="cls-1" d="m219.21471,231.61607c-1.6654-2.74798-2.04742-7.26811-1.13615-13.56873.37992-3.19373,1.13615-6.91073,2.19215-11.07751-.67746.44032-1.36105.79492-2.11672,1.14965-3.2583,1.59958-6.29032,2.21803-9.09341,1.77354-1.74083,6.11442-4.76548,11.88092-8.63194,16.40244-4.54671,5.32061-9.85173,8.15432-15.38026,8.15432-4.46654,0-8.02656-1.59429-10.14676-4.60724-1.28896-1.86052-2.72613-5.31936-1.81904-10.81796.90987-5.40773,3.17954-10.63733,6.59009-14.71852,2.95186-3.54443,6.58591-5.93364,9.54584-6.29506,2.72488-.35334,4.84772.97987,5.82829,3.63405,1.13755,3.28475.2338,8.15557-2.42247,12.76685-1.73958,2.93419-4.01801,5.50556-6.66482,7.27228-2.57402,1.86052-5.37767,2.839-8.33022,3.10272,1.28228,3.45328,4.46585,4.35299,7.4191,4.35299,4.31833,0,8.40969-2.22207,12.04444-6.48126,3.18288-3.72785,5.30572-8.06734,7.72763-14.45216-.76041-.52452-1.51678-1.14701-2.19966-1.86052-1.58468-1.68377-2.72223-3.63545-3.25218-5.84527-.45661-1.95696-.45661-3.90445.07473-5.76915.83235-2.74798,2.65154-4.69548,4.77021-4.96045,2.04408-.17271,3.86173,1.15105,5.0761,3.71964,1.20685,2.661,1.67097,5.94589,1.2891,9.65871l-.22977,1.51274c1.81918.1766,3.78908-.35613,6.05806-1.41894,3.7149-1.86052,6.51925-4.60989,6.51925-4.60989.82832-.79367,1.97269-.88607,2.79905-.17257.83639.70265,1.21492,1.94889.83639,3.09868-5.90567,19.94534-4.47253,25.53913-3.63545,26.95264.30102.44575.68164.88468,1.8157.88468,1.81974,0,4.47197-2.38921,7.27159-6.46776,2.42999-3.46274,4.16623-7.00717,4.16623-7.00717.60607-1.33057,2.04797-1.77228,3.10744-1.06824,1.06073.71351,1.51469,2.40006.83097,3.63823-.07195.17939-1.89044,3.99422-4.54184,7.80362-1.5922,2.30487-3.18427,4.16678-4.69756,5.58572-2.12075,1.85773-4.16623,2.84303-6.13682,2.84303-2.95116,0-4.62005-1.69199-5.52727-3.10814Zm-29.54225-28.28308c-1.44121.18203-4.09135,1.50578-6.74428,4.7023-2.64945,3.19234-4.4678,7.18252-5.2989,11.43099,4.46585-.53551,8.55386-3.45884,11.2054-8.0633,1.89781-3.28349,2.4279-6.47319,1.97255-7.71525,0-.17271-.15628-.4445-.75901-.4445-.07473,0-.22628,0-.37575.08976Zm14.0913-6.91212c-.23241.7039-.68429,3.27807,1.88974,6.0273l.38118.26233c.22295-2.39185.15155-4.78106-.75901-6.73816-.30366-.61692-.60412-.88607-.60412-.88607-.15489,0-.6115.35877-.90778,1.33461Z"/><path class="cls-1" d="m270.70435,218.41028c-.07473.17117-1.89183,3.98601-4.6174,7.88517-3.93994,5.58572-7.72819,8.42876-11.29238,8.42876-1.43912,0-2.64667-.53537-3.40568-1.59958-1.36244-1.68795-1.21297-4.0798-.9853-6.38621.15155-1.95153.30436-4.0798-.53148-5.14526-.45327-.52869-1.28771-1.14297-2.9559-1.41616-1.13337.08962-2.26758.08962-3.25621-.08976-1.20686-.16978-2.11811-1.41602-2.04408-2.92194.07752-1.41477,1.13685-2.57402,2.34704-2.57402,1.13755,0,2.12632.0938,3.03341.18356,1.43717-.18356,3.03007-.62527,4.54198-1.24624,2.87977-1.15522,5.30572-2.83371,6.58995-4.51748,1.2891-1.6867,1.06351-2.84721.91126-3.28753-.1542-.88482-.52925-1.76686-2.11867-2.11881-4.39515-.9853-12.42381,3.71964-14.39579,6.91212l-.45382.61971-5.30168,21.71887c-.22768,1.15383-1.13685,1.94624-2.19688,1.94624-.15364,0-.38062-.07752-.60412-.07752-1.21506-.45521-1.89726-1.86873-1.51942-3.28753l13.64012-56.74292c.37784-1.41613,1.58664-2.29815,2.79961-1.85374,1.21089.34927,1.97199,1.85374,1.59206,3.27258l-6.28963,26.15757c.90917-.62514,1.8171-1.15647,2.87852-1.68656,2.34899-1.14701,6.81902-3.1055,10.75743-2.21122,2.95659.70126,4.92051,2.83092,5.68022,6.02744.37979,1.9461.37979,4.96184-1.96656,8.15293-1.89656,2.48162-4.92719,4.52152-8.03408,5.85752,1.89392,2.74116,1.59554,6.28559,1.36661,8.85822,0,.62514-.07891,1.59958-.07891,2.12827,2.0495,0,4.84981-2.29819,7.80501-6.46776,2.42456-3.54304,4.16484-7.0915,4.16484-7.0915.60746-1.33725,1.9706-1.77493,3.10744-1.06268,1.06281.7039,1.51065,2.39046.83249,3.63545Z"/><path class="cls-1" d="m267.89375,229.84253c-1.28896-1.86052-2.72961-5.31936-1.81765-10.81796.90917-5.40773,3.18009-10.63733,6.5873-14.71852,2.95325-3.54443,6.59064-5.93364,9.5432-6.29506,2.72961-.35334,4.84703.97987,5.8365,3.63405,1.13547,3.28475.22489,8.15557-2.42595,12.76685-1.74167,2.93419-4.0105,5.50556-6.66552,7.27228-2.57736,1.86052-5.37628,2.839-8.33301,3.10272,1.2891,3.45328,4.46934,4.35299,7.42245,4.35299,4.31708,0,8.41261-2.22207,12.04735-6.48126,2.87713-3.36504,4.4671-6.73677,4.4671-6.73677.60955-1.33057,1.97074-1.85926,3.1062-1.14701,1.06003.7039,1.51524,2.29945.91057,3.54568-.07418.17131-1.82253,4.07577-5.15153,7.97493-4.54462,5.32061-9.847,8.15432-15.3797,8.15432-4.46572,0-8.02518-1.59429-10.14733-4.60724Zm14.77294-26.50954c-1.44065.18203-4.09692,1.50578-6.74428,4.7023-2.65363,3.19234-4.47128,7.18252-5.30377,11.43099,4.46934-.53551,8.56277-3.45884,11.20874-8.0633,1.89587-3.28349,2.42734-6.47319,1.97547-7.71525,0-.17271-.15294-.4445-.75832-.4445-.0803,0-.23046,0-.37784.08976Z"/><path class="cls-1" d="m330.90943,232.68431c-1.66749-1.42701-2.57472-3.46427-2.57472-5.85612,0-1.50453.98321-2.661,2.26897-2.661,1.28701,0,2.27565,1.15647,2.27565,2.661,0,1.85787,2.11742,2.39185,3.33373,2.39185,2.1195,0,4.24165-1.06407,5.83107-2.92458,1.96712-2.30084,3.02993-5.76372,3.02993-10.01623,0-4.07577-2.65488-6.83057-5.45519-9.6601l-2.12145-2.1337c-.75567,2.04129-1.815,4.70508-3.55932,8.24937-3.18162,6.55878-10.37639,21.98941-18.33087,21.98941-2.12215,0-3.78978-.8073-4.84912-2.40146-2.34704-3.45467-1.06003-9.39374.30241-16.31532l.8318-3.63405c.53342-2.57277.98655-4.69144,1.21423-6.46915.22628-1.24206.22628-2.03851.22628-2.38921-.83375.2569-4.0105,2.11742-10.98455,14.44395-4.39515,7.62298-7.95448,15.33962-7.95448,15.43203-.45187.878-1.21089,1.41073-2.0406,1.41073-.30505,0-.60885-.07752-.90987-.25955-1.06281-.53287-1.59206-1.94624-1.21019-3.28488,0-.08155,4.16066-14.88831,9.16272-31.38036.45521-1.33321,1.74222-2.12966,2.95242-1.59694,1.13685.53009,1.81849,2.03865,1.36661,3.36504-.9846,3.28475-1.97129,6.39025-2.80239,9.40181,1.74167-2.84039,3.33234-5.23224,4.84564-7.18113,3.03146-3.89499,5.52867-5.76511,7.80237-5.76511,1.81639,0,2.80573.97305,3.33707,1.77632,1.73834,2.661.83041,6.82097-.60955,13.8337-.30102,1.14297-.53342,2.2968-.75692,3.54304-.75832,3.45606-1.21159,6.02605-1.43857,8.15835-.15225,1.59554-.53203,3.98475,1.51469,3.98475,4.84703,0,11.66131-13.64624,14.39496-19.32298,4.08538-8.33635,4.38708-11.1727,4.38708-11.88621,0-1.32236.83444-2.47619,2.04882-2.65961,1.1367-.08294,2.19548.80452,2.42316,2.12966.30227,1.50578,1.96851,3.19638,3.71282,4.96184,3.10272,3.19512,7.04335,7.09958,7.04335,13.65974,0,7.18391-2.42525,11.5234-4.39112,13.83106-2.42595,2.7452-5.67883,4.43189-9.01325,4.43189-1.97129,0-3.86298-.71629-5.30363-1.85787Z"/><g><path class="cls-1" d="m155.23489,254.56907c0,2.93961,1.83268,5.29612,4.2912,5.29612,2.35052,0,3.28141-1.60361,3.69459-2.29945.57003.3045.82498.61567.82498,1.05321,0,.9853-1.18723,2.41106-4.72679,2.41106-3.85435,0-5.94519-3.30938-5.94519-6.46094,0-3.15435,1.93873-6.67289,6.25637-6.67289,2.96745,0,4.52082.56933,4.52082,2.68675,0,1.24359-.7508,1.65942-1.49827,1.65942,0-2.27509-.44032-3.15435-2.97162-3.15435-2.58488,0-4.44609,2.4844-4.44609,5.48107Z"/><path class="cls-1" d="m177.84874,260.04875v.66995h-1.32027c-2.06579,0-2.11742-1.4188-2.11742-2.14595v-3.95608h-1.68252c-3.17675,0-4.98773.72701-4.98773,2.8145,0,1.68391,1.32041,2.40688,2.42999,2.40688,1.73415,0,2.45517-1.15926,2.45517-1.15926.10257,0,.54289.33303.54289.72575,0,.54219-.25551,1.49771-3.07488,1.49771-1.60361,0-4.16205-.88886-4.16205-3.49823,0-3.17745,3.049-3.89638,6.82584-3.89638h1.6533v-1.2191c0-1.15647-.05093-3.30117-2.92263-3.30117-2.5306,0-3.25496,1.72873-3.25496,2.96828,0,0-1.26391-.02449-1.26391-1.37274,0-1.57244,1.93594-2.71124,4.51887-2.71124,2.84512,0,4.6554,1.08313,4.6554,4.41686v5.82356c0,1.21089.33233,1.93664,1.31415,1.93664h.39078Z"/><path class="cls-1" d="m186.86742,259.11508c0,.93367-1.11305,1.8864-2.84247,1.8864-1.65469,0-3.15504-1.05474-3.15504-4.03235v-7.49383h-1.8626v-.95802c1.42298,0,2.48092-.36155,2.53464-2.3771h1.03429v2.3771c3.0252,0,3.4356-.58993,3.4356-.87939.44032.08433.77335.31257.77335.77474,0,.62514-.59257,1.06268-1.70214,1.06268h-2.5068v7.49383c0,1.44469.28404,2.86892,1.62671,2.86892,1.42506,0,1.76004-1.72594,1.76004-1.72594,0,0,.90444.04481.90444,1.00297Z"/><path class="cls-1" d="m192.36881,255.57468c-.20653-.20652-.30784-.72979-.30784-.87786,0-.80188,1.18709-.80188,2.27092-.80188h3.15643c.54164,0,.80049-.1535.80049-.69444,0-2.17587-1.13949-4.19002-3.67274-4.19002-3.02325,0-4.41631,2.84053-4.41631,5.68634,0,2.58349,1.65538,5.19021,4.23553,5.19021,2.53589,0,3.51646-1.39445,4.0574-2.27106.41249.15225.80118.67273.80118.97987,0,1.13755-1.46988,2.43416-4.85858,2.43416-4.26267,0-6.01853-3.43713-6.01853-6.33319,0-3.82708,2.11797-6.82514,6.28016-6.82514,3.07544,0,5.29473,2.16905,5.29473,5.30169,0,1.88083-.64615,1.88083-2.19549,1.88083-4.03165,0-4.59834,0-5.42735.52048Z"/><path class="cls-1" d="m211.56807,250.55982c0,.64559-.36155,1.41755-1.11305,1.41755-.54164,0-.69722-.33163-.69722-.33163.10535-.07334.31062-.6211.31062-.95677,0-.7746-.43559-1.49896-1.5215-1.49896-1.88641,0-3.07489,2.40549-3.07489,5.06789v4.2347c0,.72714.20527,1.55616,1.13546,1.55616h.38939v.66995h-5.09294v-.66995h.69708c.95747,0,1.16482-.88343,1.16482-1.39848v-7.88253c0-1.21631-.59605-1.57773-1.27073-1.57773h-.59118v-.67273h1.83463c1.11305,0,1.6533.61971,1.73346,1.72998.51575-1.15926,1.85926-2.10921,3.17954-2.10921,2.11463,0,2.91651,1.08313,2.91651,2.42177Z"/><path class="cls-1" d="m217.74359,260.07324v.66856h-5.73728v-.66856h.62249c.59396,0,1.3957-.39287,1.3957-1.42298v-8.09044c0-.85072-.41514-1.33864-1.32028-1.33864h-.61901v-.67955h1.7837c1.4767,0,1.86191.74885,1.86191,2.01819v8.09044c0,.95399.80118,1.42298,1.39779,1.42298h.61498Zm-2.94434-14.76473c-.64629,0-1.2415-.38326-1.2415-1.02343,0-.70251.57211-1.08717,1.2415-1.08717.74746,0,1.26655.38466,1.26655,1.08717,0,.66605-.57072,1.02343-1.26655,1.02343Z"/><path class="cls-1" d="m233.14708,260.04875v.66995h-1.65065c-1.39848,0-1.96447-1.08313-1.96447-2.30487v-5.44308c0-2.64054-1.13824-3.68026-3.0245-3.68026-2.22485,0-3.9828,1.96795-3.9828,5.22278v4.24444c0,.61011.28613,1.29105,1.00854,1.29105h.5177v.66995h-5.0889v-.66995h.67134c.48861,0,1.18918-.41319,1.18918-1.14033v-8.37309c0-.59786-.18273-1.39834-1.26934-1.39834h-.59118v-.61971h1.70284c1.4998,0,1.78244.88065,1.78244,1.88765.64615-1.11444,2.19758-2.35122,4.3143-2.35122,3.10272,0,4.49772,1.86066,4.49772,4.31235v6.02187c0,.62388.31062,1.66081,1.52693,1.66081h.36086Z"/><path class="cls-1" d="m248.34392,248.51727v.67273h-.59591c-1.06017,0-1.47391.43893-1.47391,1.91076v9.07574c0,3.17341-1.78509,5.94171-5.55372,5.94171-3.48946,0-4.70369-1.52624-4.70369-2.42456,0-1.32361,1.36578-1.39431,1.36578-1.39431,0,1.18639,1.08926,2.65557,3.33791,2.65557,2.53255,0,3.87328-1.98966,3.87328-4.63035v-6.22436c0-2.55774-1.37065-4.52291-4.00382-4.52291-2.94838,0-4.24026,2.48426-4.24026,5.11952,0,3.00071,2.09362,4.72943,3.90459,4.72943.668,0,1.55198-.05845,2.35177-.8073,0,0,.51645.15907.51645.74885,0,.70543-.80452,1.25041-2.81729,1.25041-3.17675,0-5.79016-2.4844-5.79016-5.98123,0-3.30117,2.04255-6.22436,6.10009-6.22436,1.91145,0,3.38675.82901,3.97862,1.89044v-.31271c0-1.10763.75219-1.47308,1.81153-1.47308h1.93873Z"/><path class="cls-1" d="m258.21472,251.31007c0-1.68113,1.65455-3.33512,4.82727-3.33512,3.20876,0,4.34561,1.24624,4.34561,2.60798,0,1.37274-1.1111,1.52902-1.37065,1.52902,0-2.32951-1.31554-2.99945-2.97496-2.99945-1.67501,0-3.12234.69583-3.12234,1.96517,0,3.49141,7.92929,2.42999,7.92929,6.51522,0,2.29416-2.11603,3.5866-4.9585,3.5866-2.61271,0-4.88237-1.13073-4.88237-2.42177,0-1.14172,1.2884-1.16482,1.2884-1.16482,0,0,.72506,2.39742,3.72242,2.39742,2.11881,0,3.10132-1.10498,3.10132-1.93942,0-3.61777-7.90549-2.18672-7.90549-6.74081Z"/><path class="cls-1" d="m274.20995,255.57468c-.20722-.20652-.31396-.72979-.31396-.87786,0-.80188,1.18918-.80188,2.27579-.80188h3.15226c.54358,0,.80118-.1535.80118-.69444,0-2.17587-1.13615-4.19002-3.66676-4.19002-3.02784,0-4.4216,2.84053-4.4216,5.68634,0,2.58349,1.65469,5.19021,4.23609,5.19021,2.53533,0,3.51799-1.39445,4.06158-2.27106.41179.15225.80187.67273.80187.97987,0,1.13755-1.476,2.43416-4.86345,2.43416-4.26128,0-6.01853-3.43713-6.01853-6.33319,0-3.82708,2.1209-6.82514,6.27877-6.82514,3.07697,0,5.2996,2.16905,5.2996,5.30169,0,1.88083-.64615,1.88083-2.19758,1.88083-4.03221,0-4.60168,0-5.42526.52048Z"/><path class="cls-1" d="m293.40922,250.55982c0,.64559-.3642,1.41755-1.11306,1.41755-.54163,0-.69583-.33163-.69583-.33163.10326-.07334.30923-.6211.30923-.95677,0-.7746-.43963-1.49896-1.52624-1.49896-1.88779,0-3.07419,2.40549-3.07419,5.06789v4.2347c0,.72714.20791,1.55616,1.13546,1.55616h.39008v.66995h-5.09307v-.66995h.70056c.95413,0,1.15995-.88343,1.15995-1.39848v-7.88253c0-1.21631-.59591-1.57773-1.26586-1.57773h-.59466v-.67273h1.83741c1.1118,0,1.65539.61971,1.73012,1.72998.51575-1.15926,1.86121-2.10921,3.18023-2.10921,2.11937,0,2.91986,1.08313,2.91986,2.42177Z"/><path class="cls-1" d="m305.21805,249.3449c0,1.81153-2.79084,7.02624-4.31569,10.25935-.30923.67551-.79979,1.57523-1.57578,1.57523-.51715,0-.85351-.23102-1.00715-.48388,0,0,.54303-.38869.54303-1.09134,0-.10048-.02922-.23644-.05302-.36142-.15768-.46482-1.75586-5.04339-3.43435-8.81202-.33845-.74885-.8549-1.24081-1.63089-1.24081h-.33497v-.67273h5.13997v.67273h-.46412c-.69722,0-.92629.36142-.92629.87786,0,.26233.10131.6211.20263.85754.05164.20666,2.22471,6.27209,2.7907,7.56718.75025-1.4188,3.33304-6.58452,3.33304-8.68426,0-.51784-.0231-1.08313-.48583-1.46779,0,0,.38536-.36559.94995-.36559,1.03637,0,1.26878.54233,1.26878,1.36995Z"/><path class="cls-1" d="m311.83249,260.07324v.66856h-5.73853v-.66856h.62375c.59187,0,1.3943-.39287,1.3943-1.42298v-8.09044c0-.85072-.41513-1.33864-1.32027-1.33864h-.61901v-.67955h1.783c1.476,0,1.8633.74885,1.8633,2.01819v8.09044c0,.95399.80257,1.42298,1.39376,1.42298h.6197Zm-2.94574-14.76473c-.64824,0-1.2429-.38326-1.2429-1.02343,0-.70251.57281-1.08717,1.2429-1.08717.74677,0,1.26461.38466,1.26461,1.08717,0,.66605-.56808,1.02343-1.26461,1.02343Z"/><path class="cls-1" d="m315.06366,254.56907c0,2.93961,1.83394,5.29612,4.28911,5.29612,2.35052,0,3.2828-1.60361,3.69459-2.29945.57073.3045.82554.61567.82554,1.05321,0,.9853-1.1857,2.41106-4.72735,2.41106-3.85227,0-5.94115-3.30938-5.94115-6.46094,0-3.15435,1.93594-6.67289,6.25094-6.67289,2.97357,0,4.52361.56933,4.52361,2.68675,0,1.24359-.74885,1.65942-1.49966,1.65942,0-2.27509-.43963-3.15435-2.97023-3.15435-2.58557,0-4.44539,2.4844-4.44539,5.48107Z"/><path class="cls-1" d="m330.0022,255.57468c-.20917-.20652-.31187-.72979-.31187-.87786,0-.80188,1.18779-.80188,2.2737-.80188h3.15435c.53885,0,.80118-.1535.80118-.69444,0-2.17587-1.14019-4.19002-3.67149-4.19002-3.0245,0-4.42159,2.84053-4.42159,5.68634,0,2.58349,1.65259,5.19021,4.23886,5.19021,2.5352,0,3.51646-1.39445,4.0574-2.27106.41583.15225.80188.67273.80188.97987,0,1.13755-1.46918,2.43416-4.85927,2.43416-4.26406,0-6.01992-3.43713-6.01992-6.33319,0-3.82708,2.11867-6.82514,6.27947-6.82514,3.07544,0,5.29891,2.16905,5.29891,5.30169,0,1.88083-.64685,1.88083-2.19828,1.88083-4.0322,0-4.60307,0-5.42332.52048Z"/><path class="cls-1" d="m340.35952,251.31007c0-1.68113,1.6533-3.33512,4.83144-3.33512,3.20667,0,4.34352,1.24624,4.34352,2.60798,0,1.37274-1.11166,1.52902-1.3726,1.52902,0-2.32951-1.31359-2.99945-2.97093-2.99945-1.6764,0-3.12373.69583-3.12373,1.96517,0,3.49141,7.93277,2.42999,7.93277,6.51522,0,2.29416-2.12215,3.5866-4.96602,3.5866-2.60325,0-4.88098-1.13073-4.88098-2.42177,0-1.14172,1.29174-1.16482,1.29174-1.16482,0,0,.72436,2.39742,3.72521,2.39742,2.11533,0,3.09659-1.10498,3.09659-1.93942,0-3.61777-7.90702-2.18672-7.90702-6.74081Z"/></g></g></g></g></svg>