<?xml version="1.0" encoding="UTF-8"?><svg xmlns="http://www.w3.org/2000/svg" viewBox="0 0 400 400"><defs><style>.cls-1{fill:#fff;}.cls-2{fill:#383838;}</style></defs><g id="Layer_1"><rect class="cls-2" width="400" height="400"/></g><g id="Layer_2"><g id="BIM"><g><path class="cls-1" d="m184.36244,196.29438c-5.84235,0-11.33538-2.2755-15.46625-6.40637-8.52825-8.52825-8.52825-22.40517,0-30.93343l12.06226-12.06226c1.87944-1.88036,4.92855-1.88036,6.80798,0,1.88036,1.88036,1.88036,4.92855,0,6.80891l-12.06226,12.06226c-4.77401,4.77401-4.77401,12.5416,0,17.31561,2.31297,2.31251,5.38753,3.58675,8.65827,3.58675,3.27027,0,6.3453-1.27424,8.65734-3.58675l12.06272-12.06226c1.87944-1.88036,4.92855-1.88036,6.80798,0,1.88036,1.88036,1.88036,4.92855,0,6.80891l-12.06226,12.06226c-4.13087,4.13087-9.62344,6.40637-15.46579,6.40637Z"/><path class="cls-1" d="m215.63756,145.39856c5.84235,0,11.33538,2.2755,15.46625,6.40637,8.52825,8.52825,8.52825,22.40517,0,30.93343l-12.06226,12.06226c-1.87944,1.88036-4.92855,1.88036-6.80798,0-1.88036-1.88036-1.88036-4.92855,0-6.80891l12.06226-12.06226c4.77401-4.77401,4.77401-12.5416,0-17.31561-2.31297-2.31251-5.38753-3.58675-8.65827-3.58675-3.27027,0-6.3453,1.27424-8.65734,3.58675l-12.06272,12.06226c-1.87944,1.88036-4.92855,1.88036-6.80798,0-1.88036-1.88036-1.88036-4.92855,0-6.80891l12.06226-12.06226c4.13087-4.13087,9.62344-6.40637,15.46579-6.40637Z"/></g><g><g><path class="cls-1" d="m67.55474,254.57251h-17.55474v-37.92756h16.03799c3.53907,0,6.29336.90346,8.26218,2.70901,1.96882,1.80692,2.95323,4.38903,2.95323,7.74837,0,3.64815-1.40904,6.24946-4.22645,7.80119,3.82857,1.66286,5.74388,4.66068,5.74388,8.99483,0,3.46704-.97549,6.11363-2.92648,7.93702-1.9503,1.82476-4.71351,2.73714-8.28962,2.73714Zm-9.86125-31.20888v9.04834h7.91095c1.15522,0,2.09436-.39788,2.8174-1.19227.72167-.79439,1.08319-1.91394,1.08319-3.36003,0-1.44334-.37044-2.55398-1.11063-3.33122-.74088-.77655-1.6711-1.16483-2.78996-1.16483h-7.91095Zm0,15.44186v9.04834h9.48189c1.11955,0,2.04977-.39788,2.79065-1.19227.73951-.79439,1.11063-1.91394,1.11063-3.35866s-.37113-2.55604-1.11063-3.33259c-.74088-.77655-1.6711-1.16483-2.79065-1.16483h-9.48189Z"/><path class="cls-1" d="m93.83265,254.57251h-7.69349v-37.92756h7.69349v37.92756Z"/><path class="cls-1" d="m130.51375,230.29909l-7.4774,12.46187h-4.7677l-7.4774-12.46187v24.27342h-7.42252v-37.92756h7.42252l9.96964,16.74251,9.96964-16.74251h7.20643v37.92756h-7.42321v-24.27342Z"/></g><g><path class="cls-1" d="m177.9718,254.57251h-17.55474v-37.92756h16.03799c3.53907,0,6.29336.90346,8.26218,2.70901,1.96882,1.80692,2.95323,4.38903,2.95323,7.74837,0,3.64815-1.40904,6.24946-4.22645,7.80119,3.82857,1.66286,5.74388,4.66068,5.74388,8.99483,0,3.46704-.97549,6.11363-2.92648,7.93702-1.9503,1.82476-4.71351,2.73714-8.28962,2.73714Zm-9.86125-31.20888v9.04834h7.91095c1.15522,0,2.09436-.39788,2.8174-1.19227.72167-.79439,1.08319-1.91394,1.08319-3.36003,0-1.44334-.37044-2.55398-1.11063-3.33122-.74088-.77655-1.6711-1.16483-2.78996-1.16483h-7.91095Zm0,15.44186v9.04834h9.48189c1.11955,0,2.04977-.39788,2.79065-1.19227.73951-.79439,1.11063-1.91394,1.11063-3.35866s-.37113-2.55604-1.11063-3.33259c-.74088-.77655-1.6711-1.16483-2.79065-1.16483h-9.48189Z"/><path class="cls-1" d="m204.24971,254.57251h-7.6928v-37.92756h16.41598c3.79358,0,6.70085,1.029,8.72455,3.08837,2.02233,2.05869,3.03349,4.96664,3.03349,8.72318,0,2.56427-.54194,4.78691-1.62582,6.6638-1.08251,1.87964-2.61915,3.30515-4.60443,4.28064l6.98897,12.62514v2.54643h-7.4774l-7.91095-14.25096h-5.85158v14.25096Zm0-31.20888v10.45601h7.3155c3.53976,0,5.30964-1.75067,5.30964-5.25476,0-3.46773-1.76988-5.20125-5.30964-5.20125h-7.3155Z"/><path class="cls-1" d="m240.87799,254.57251h-7.69418v-37.92756h7.69418v37.92756Z"/><path class="cls-1" d="m264.17592,254.57251h-13.76253v-37.92756h13.76253c4.73203,0,8.43368,1.14699,11.10771,3.44029,2.67266,2.29467,4.00898,5.49966,4.00898,9.61703v11.81155c0,4.11874-1.33633,7.32374-4.00898,9.61772-2.67403,2.29398-6.37568,3.44098-11.10771,3.44098Zm-6.06836-31.20888v24.4902h6.06836c2.31182,0,4.12698-.57761,5.44547-1.73421,1.31849-1.15522,1.97705-2.61778,1.97705-4.38903v-12.2451c0-1.76851-.65856-3.23243-1.97705-4.38834-1.31849-1.15522-3.13365-1.73352-5.44547-1.73352h-6.06836Z"/><path class="cls-1" d="m316.19001,234.90213h-14.41233v6.39724h7.47581v2.51661c-.71905,1.12084-1.73944,2.02492-3.06119,2.71223-1.31645.68201-2.71752,1.02568-4.19787,1.02568-2.20466,0-3.9018-.56571-5.09666-1.70769-1.18957-1.13671-2.54304-2.68051-2.54304-4.73715v-11.13439c0-1.98791.59743-3.5317,1.787-4.6314,1.19486-1.10499,2.92901-1.65483,5.20241-1.65483,2.16765,0,3.9018.54983,5.20238,1.65483,1.30061,1.0997,1.9509,2.59064,1.9509,4.46751h7.69259c0-4.18728-1.33762-7.42295-4.00754-9.69635-2.6382-2.31041-6.10646-3.46826-10.40478-3.46826-4.76887,0-8.48035,1.20016-11.13439,3.60044-2.65408,2.40557-3.98112,5.75224-3.98112,10.05057v10.86475c0,4.22959,1.98262,7.47581,4.44108,9.86024,2.45843,2.38444,5.8527,3.5793,10.18803,3.5793,3.9705,0,7.11626-1.32175,9.42667-3.95998l1.35876,3.93105h4.11329v-19.67038Z"/><path class="cls-1" d="m350,254.57251h-24.81536v-37.92756h24.70697v6.71868h-17.0128v8.99346h14.52125v6.39352h-14.52125v9.10322h17.12119v6.71868Z"/></g></g></g></g></svg>