<?xml version="1.0" encoding="UTF-8"?><svg xmlns="http://www.w3.org/2000/svg" viewBox="0 0 400 400"><defs><style>.cls-1{fill:#fff;}.cls-2{fill:#383838;}</style></defs><g id="Layer_1"><rect class="cls-2" width="400" height="400"/></g><g id="Layer_2"><g id="Encryphant"><g><g><path class="cls-1" d="m223.93853,299.71431l-2.33285-3.18615c-.06951-.10905-.04974-.26785.04974-.33736.10905-.08928.26785-.06951.33736.04018l2.17342,2.98718,2.18362-2.98718c.06951-.10969.22831-.12946.33736-.04018.10969.06951.12946.22831.04974.33736l-2.32265,3.16638v3.116c0,.12946-.09885.23851-.23788.23851-.12882,0-.23788-.10905-.23788-.23851v-3.09623Z"/><path class="cls-1" d="m228.89888,298.18565c1.27994,0,2.30224,1.11158,2.30224,2.4317s-1.0223,2.4317-2.30224,2.4317c-1.27038,0-2.30288-1.11158-2.30288-2.4317s1.0325-2.4317,2.30288-2.4317Zm0,4.38701c.99232,0,1.82585-.87307,1.82585-1.95531,0-1.08161-.83353-1.96488-1.82585-1.96488s-1.82649.88327-1.82649,1.96488c0,1.08225.83416,1.95531,1.82649,1.95531Z"/><path class="cls-1" d="m232.76805,298.41396c0-.13903.10905-.23788.23788-.23788s.23851.09885.23851.23788v2.65045c0,.83353.66453,1.49805,1.48849,1.50826.83353-.0102,1.50889-.67473,1.50889-1.50826v-2.65045c0-.13903.11862-.23788.23788-.23788.13903,0,.24808.09885.24808.23788v2.65045c0,1.09117-.88327,1.98465-1.99485,1.98465-1.09181,0-1.96488-.89347-1.96488-1.98465v-2.65045Z"/><path class="cls-1" d="m238.94839,298.43373c0-.13839.10969-.23788.24808-.23788.11926,0,.22831.09949.22831.23788v1.07204c.01977-.03954.04018-.07908.06951-.11926.36734-.57524,1.01273-1.19066,1.94511-1.19066.12946,0,.23851.09949.23851.23788,0,.12946-.10905.23851-.23851.23851-.63519,0-1.0714.35713-1.40877.79399-.3278.43685-.51657.93301-.58608,1.13135-.01977.03954-.01977.05931-.01977.07972v2.13324c0,.13903-.10905.23851-.22831.23851-.13839,0-.24808-.09949-.24808-.23851v-4.37681Z"/><path class="cls-1" d="m245.93292,300.62756c0-1.3501,1.05163-2.44191,2.36219-2.44191,1.24997,0,2.24293.99296,2.34178,2.26334v.03954c0,.12882-.10905.21811-.23788.21811h-3.9897c.04911,1.06184.88327,1.86603,1.8858,1.86603.64476,0,1.2404-.33736,1.56757-.88327.06951-.11926.21874-.13903.31759-.07972.10969.07972.14923.21874.07972.338-.41708.66453-1.14155,1.10138-1.96488,1.10138-1.31056,0-2.36219-1.09181-2.36219-2.4215Zm.50573-.38711h3.68231c-.1588-.91324-.93301-1.57841-1.82585-1.57841-.91324,0-1.67789.65496-1.85646,1.57841Z"/><path class="cls-1" d="m252.39195,296.34003c0-.12946.10905-.23851.23851-.23851.13903,0,.24808.10905.24808.23851v6.47051c0,.12946-.10905.23851-.24808.23851-.12946,0-.23851-.10905-.23851-.23851v-6.47051Z"/><path class="cls-1" d="m254.89189,300.62756c0-1.3501,1.05163-2.44191,2.36219-2.44191,1.24997,0,2.24293.99296,2.34178,2.26334v.03954c0,.12882-.10905.21811-.23788.21811h-3.9897c.04911,1.06184.88327,1.86603,1.8858,1.86603.64476,0,1.2404-.33736,1.56757-.88327.06951-.11926.21874-.13903.31759-.07972.10969.07972.14923.21874.07972.338-.41708.66453-1.14155,1.10138-1.96488,1.10138-1.31056,0-2.36219-1.09181-2.36219-2.4215Zm.50573-.38711h3.68231c-.1588-.91324-.93301-1.57841-1.82585-1.57841-.91324,0-1.67789.65496-1.85646,1.57841Z"/><path class="cls-1" d="m261.28077,300.69707v-2.27291c0-.12882.10969-.23851.23851-.23851.13903,0,.24808.10969.24808.23851v.7047c.41644-.56568,1.09181-.94322,1.84626-.94322,1.30992,0,2.35199,1.08225,2.35199,2.41193,0,1.32012-1.04207,2.4215-2.35199,2.4215-.75445,0-1.42981-.3769-1.84626-.95278v2.77927c0,.12882-.10905.23788-.24808.23788-.12882,0-.23851-.10905-.23851-.23788v-4.1485Zm.4866-.09949c0,1.07204.84373,1.93554,1.84626,1.94511,1.03186-.00957,1.86539-.87307,1.86539-1.94511s-.83353-1.92534-1.86539-1.92534c-.98276,0-1.80672.81376-1.84626,1.84626v.07908Z"/><path class="cls-1" d="m271.40235,300.10142c0-.8533-.69514-1.42918-1.54843-1.42918-.84373,0-1.53823.57588-1.53823,1.42918v2.73909c0,.01977-.0102.02997-.0102.03954-.00957.02041-.00957.02997-.01977.04018-.02934.05931-.07908.09885-.14859.11862,0,0-.0102.0102-.01977.0102h-.04974c-.06951,0-.13903-.02997-.18877-.07908-.01977-.02997-.02997-.04974-.03954-.07972-.0102-.02997-.0102-.04974-.0102-.07972v-6.47051c0-.12946.10969-.23851.23851-.23851.13903,0,.24808.10905.24808.23851v2.56053c.36734-.43685.92281-.71491,1.53823-.71491,1.12178,0,2.03439.79399,2.03439,1.91577v2.70912c0,.12946-.10905.23851-.24808.23851-.12882,0-.23788-.10905-.23788-.23851v-2.70912Z"/><path class="cls-1" d="m278.38624,298.42416v4.38638c0,.12946-.10905.23851-.23788.23851s-.23788-.10905-.23788-.23851v-.72447c-.41708.57588-1.08225.96299-1.82649.96299-1.28058,0-2.30224-1.10138-2.30224-2.4317,0-1.32969,1.02166-2.4317,2.30224-2.4317.74424,0,1.40941.37754,1.82649.95278v-.71427c0-.13903.10905-.23851.23788-.23851s.23788.09949.23788.23851Zm-.47575,2.19319c0-1.09181-.82396-1.96488-1.82649-1.96488-.99232,0-1.82649.87307-1.82649,1.96488s.83416,1.95531,1.82649,1.95531c1.00253,0,1.82649-.8635,1.82649-1.95531Z"/><path class="cls-1" d="m283.82361,300.17093c0-.82396-.66453-1.49869-1.49869-1.49869-.82332,0-1.48849.67473-1.50826,1.49869v2.67978c-.0102.03954-.01977.07908-.04974.10905-.03954.05931-.10905.08928-.17857.08928h-.05995c-.06951-.01977-.12882-.06951-.1588-.12882-.00957-.0102-.00957-.01977-.00957-.02997s-.0102-.01977-.0102-.01977v-4.43676c0-.12882.09949-.23788.23851-.23788.12882,0,.22831.10905.22831.23788v.46683c.35713-.42665.90304-.7047,1.50826-.7047,1.09181,0,1.97508.89347,1.97508,1.97508v2.63961c0,.13903-.10905.23851-.23788.23851-.12946,0-.23851-.09949-.23851-.23851v-2.63961Z"/><path class="cls-1" d="m288.12836,298.42416c0,.11926-.11862.23788-.23788.23788h-.62499v3.54328c0,.23851.23788.35713.35713.35713s.24808.12946.24808.24808c0,.11926-.12882.23851-.24808.23851-.4866,0-.85393-.35713-.85393-.84373v-3.54328h-.60522c-.23788,0-.23788-.11862-.23788-.23788s0-.23851.23788-.23851h.60522v-1.80608c0-.11926.11926-.23851.23851-.23851.12882,0,.25828.11926.25828.23851v1.80608h.62499c.11926,0,.23788.11926.23788.23851Z"/><path class="cls-1" d="m300.33407,300.17093c-.01977-.82396-.67537-1.50889-1.50889-1.50889-.82396,0-1.49869.68493-1.49869,1.50889v2.67978c0,.00957-.00957.01977-.00957.01977v.01977c-.02041.05931-.06951.09949-.11926.12882-.03954.01977-.07972.02997-.11926.02997h-.04974c-.00957,0-.01977-.0102-.01977-.0102-.01977,0-.03954-.01977-.05931-.02934-.0102,0-.01977-.0102-.02997-.01977l-.02997-.02997c-.00957-.0102-.00957-.01977-.01977-.01977q0-.0102-.00957-.01977s0-.0102-.0102-.01977c0-.0102,0-.02041-.00957-.02997v-2.69955c0-.82396-.66516-1.50889-1.49869-1.50889-.83416,0-1.49869.68493-1.49869,1.50889v2.64981c0,.07972-.04018.14923-.10905.18877-.0102.00957-.04018.02934-.05995.02934-.00957.0102-.01977.0102-.03954.0102h-.05931c-.08992-.0102-.169-.08928-.19897-.17857v-4.44632c0-.12882.10905-.22831.22831-.22831.13903,0,.23851.09949.23851.22831v.46619c.35713-.42665.89284-.6945,1.49869-.6945.75381,0,1.3992.41708,1.73657,1.03186.34757-.61478,1.00253-1.03186,1.74677-1.03186,1.09181,0,1.97508.88327,1.97508,1.97508v2.64981c0,.11926-.09949.22831-.23788.22831-.12946,0-.22831-.10905-.22831-.22831v-2.64981Z"/><path class="cls-1" d="m302.46412,300.62756c0-1.3501,1.05163-2.44191,2.36155-2.44191,1.25061,0,2.24357.99296,2.34242,2.26334v.03954c0,.12882-.10905.21811-.23788.21811h-3.9897c.04911,1.06184.88327,1.86603,1.88516,1.86603.64539,0,1.24104-.33736,1.5682-.88327.06951-.11926.21874-.13903.31759-.07972.10969.07972.14923.21874.07972.338-.41708.66453-1.14155,1.10138-1.96552,1.10138-1.30992,0-2.36155-1.09181-2.36155-2.4215Zm.50573-.38711h3.68231c-.1588-.91324-.93301-1.57841-1.82649-1.57841-.91261,0-1.67726.65496-1.85582,1.57841Z"/><path class="cls-1" d="m315.81075,300.17093c-.01977-.82396-.67537-1.50889-1.50889-1.50889-.82396,0-1.49869.68493-1.49869,1.50889v2.67978c0,.00957-.00957.01977-.00957.01977v.01977c-.02041.05931-.06951.09949-.11926.12882-.03954.01977-.07972.02997-.11926.02997h-.04974c-.00957,0-.01977-.0102-.01977-.0102-.01977,0-.03954-.01977-.05931-.02934-.0102,0-.01977-.0102-.02997-.01977l-.02997-.02997c-.00957-.0102-.00957-.01977-.01977-.01977q0-.0102-.00957-.01977s0-.0102-.0102-.01977c0-.0102,0-.02041-.00957-.02997v-2.69955c0-.82396-.66516-1.50889-1.49869-1.50889-.83416,0-1.49869.68493-1.49869,1.50889v2.64981c0,.07972-.04018.14923-.10905.18877-.0102.00957-.04018.02934-.05995.02934-.00957.0102-.01977.0102-.03954.0102h-.05931c-.08992-.0102-.169-.08928-.19897-.17857v-4.44632c0-.12882.10905-.22831.22831-.22831.13903,0,.23851.09949.23851.22831v.46619c.35713-.42665.89284-.6945,1.49869-.6945.75381,0,1.3992.41708,1.73657,1.03186.34757-.61478,1.00253-1.03186,1.74677-1.03186,1.09181,0,1.97508.88327,1.97508,1.97508v2.64981c0,.11926-.09949.22831-.23788.22831-.12946,0-.22831-.10905-.22831-.22831v-2.64981Z"/><path class="cls-1" d="m320.36294,298.18565c1.27994,0,2.30224,1.11158,2.30224,2.4317s-1.0223,2.4317-2.30224,2.4317c-1.27038,0-2.30288-1.11158-2.30288-2.4317s1.0325-2.4317,2.30288-2.4317Zm0,4.38701c.99232,0,1.82585-.87307,1.82585-1.95531,0-1.08161-.83353-1.96488-1.82585-1.96488s-1.82649.88327-1.82649,1.96488c0,1.08225.83416,1.95531,1.82649,1.95531Z"/><path class="cls-1" d="m324.29078,298.43373c0-.13839.10969-.23788.24808-.23788.11926,0,.22831.09949.22831.23788v1.07204c.01977-.03954.04018-.07908.06951-.11926.36734-.57524,1.01273-1.19066,1.94511-1.19066.12946,0,.23851.09949.23851.23788,0,.12946-.10905.23851-.23851.23851-.63519,0-1.0714.35713-1.40877.79399-.3278.43685-.51657.93301-.58608,1.13135-.01977.03954-.01977.05931-.01977.07972v2.13324c0,.13903-.10905.23851-.22831.23851-.13839,0-.24808-.09949-.24808-.23851v-4.37681Z"/><path class="cls-1" d="m328.23967,298.41396c0-.12882.10905-.22831.22831-.22831.13903,0,.24808.09949.24808.22831v2.64024c0,.83353.66516,1.49869,1.48912,1.49869.83353,0,1.49869-.66516,1.50826-1.49869v-2.64024c0-.03954.0102-.08928.03954-.11862,0-.0102.0102-.02041.0102-.02997.00957,0,.00957-.0102.01977-.0102.01977-.02934.05931-.04911.08928-.05931h.01977c.0102,0,.01977-.0102.02997-.0102h.05931c.04018.0102.07972.02997.11926.04974.01977.01977.04974.04974.05931.07972.02041.02934.02997.06951.02997.09885v4.24799c0,1.27038-1.03186,2.28247-2.31245,2.28247-.35713,0-.6945-.08928-1.00253-.22831-.10905-.06888-.1588-.2079-.09885-.31759.05931-.11862.18813-.14859.30739-.11862.23851.11862.51593.18813.79399.18813,1.01209,0,1.82649-.80355,1.83605-1.80608v-.31759c-.36734.41708-.90304.6945-1.50826.6945-1.08225-.00957-1.96552-.89284-1.96552-1.98465v-2.64024Z"/></g><g><path class="cls-1" d="m50,254.41371c0-.70917.60011-1.30928,1.30928-1.30928h19.64048c.76369,0,1.30928.60011,1.30928,1.30928,0,.76401-.54559,1.36413-1.30928,1.36413h-18.27668v15.11189h15.98528c.70917,0,1.30928.60011,1.30928,1.36413,0,.70917-.60011,1.30928-1.30928,1.30928h-15.98528v15.05768h18.27668c.76369,0,1.30928.60011,1.30928,1.36413,0,.70917-.54559,1.30928-1.30928,1.30928h-19.74954c-.65464-.05485-1.20023-.60011-1.20023-1.30928v-35.57123Z"/><path class="cls-1" d="m100.84575,275.47253c0-4.52796-3.65553-8.23769-8.23833-8.23769-4.52796,0-8.18348,3.70973-8.29254,8.23769v14.73052c-.05453.21811-.10905.43621-.27263.60011-.21843.32716-.60011.49106-.98212.49106h-.32748c-.38169-.10905-.70917-.38201-.87275-.70917-.05453-.05485-.05453-.10905-.05453-.1639,0-.05421-.05453-.10905-.05453-.10905v-24.38655c0-.70917.54559-1.30928,1.30928-1.30928.70917,0,1.25475.60011,1.25475,1.30928v2.56372c1.96392-2.34561,4.96481-3.873,8.29254-3.873,6.00145,0,10.85689,4.90996,10.85689,10.85625v14.51242c0,.76401-.60011,1.30928-1.30928,1.30928s-1.30928-.54527-1.30928-1.30928v-14.51242Z"/><path class="cls-1" d="m113.2836,277.87299c0-7.41947,6.11051-13.31155,13.7484-13.31155,3.16415,0,6.16503,1.09117,8.51096,2.94636.54559.38137.65464,1.20023.16358,1.80034-.43653.49106-1.20023.65432-1.80034.21811-1.90939-1.52803-4.31017-2.40045-6.8742-2.40045-6.21956,0-11.12952,4.85512-11.12952,10.7472,0,6.00177,4.90996,10.80268,11.12952,10.80268,2.56403,0,4.96481-.87307,6.8742-2.34625.60011-.43621,1.36381-.27295,1.80034.21811.49106.60011.38201,1.41897-.27263,1.91003-2.23687,1.74549-5.23776,2.83667-8.40191,2.83667-7.6379,0-13.7484-5.89208-13.7484-13.42124Z"/><path class="cls-1" d="m146.34469,265.92556c0-.76401.60011-1.30928,1.36381-1.30928.65464,0,1.25475.54527,1.25475,1.30928v5.89208c.10905-.21811.21843-.43685.38201-.65496,2.01845-3.16447,5.5646-6.5464,10.69299-6.5464.70917,0,1.3096.54527,1.3096,1.30928,0,.70917-.60043,1.30928-1.3096,1.30928-3.49163,0-5.89208,1.96424-7.74695,4.36469-1.80034,2.40045-2.83699,5.12807-3.21899,6.21924-.10905.21811-.10905.32716-.10905.43621v11.72996c0,.76401-.60011,1.30928-1.25475,1.30928-.76369,0-1.36381-.54527-1.36381-1.30928v-24.05939Z"/><path class="cls-1" d="m168.05783,265.81651c0-.7098.60011-1.25507,1.25475-1.25507.76369,0,1.36381.54527,1.36381,1.25507v14.51178c0,4.5828,3.65553,8.23833,8.18348,8.23833,4.5828,0,8.23833-3.65553,8.29285-8.23833v-14.51178c0-.21874.05453-.49106.21811-.65496,0-.05485.05453-.10905.05453-.1639.05453,0,.05453-.05421.10905-.05421.10937-.1639.32748-.27295.49106-.32716h.10905c.05453,0,.10937-.05485.1639-.05485h.32716c.21843.05485.43653.1639.65464.27295.10937.10905.27295.27232.32748.43621.10905.1639.16358.38201.16358.54591v23.35022c0,6.98326-5.67397,12.54754-12.71176,12.54754-1.96392,0-3.81879-.49042-5.51008-1.25443-.60011-.38201-.87307-1.14602-.54559-1.74613.32716-.65432,1.03665-.81822,1.69129-.65432,1.30928.65432,2.83699,1.03633,4.36437,1.03633,5.56492,0,10.03867-4.4189,10.0932-9.92898v-1.74613c-2.01877,2.2914-4.96481,3.81879-8.29285,3.81879-5.94661-.05421-10.80204-4.90996-10.80204-10.9111v-14.51178Z"/><path class="cls-1" d="m202.37335,278.36405v-12.49333c0-.70917.60011-1.30928,1.30928-1.30928.76369,0,1.36381.60011,1.36381,1.30928v3.87363c2.2914-3.10962,6.00145-5.18291,10.14804-5.18291,7.20136,0,12.92954,5.94693,12.92954,13.25734,0,7.25621-5.72818,13.31155-12.92954,13.31155-4.14659,0-7.85664-2.07266-10.14804-5.23712v15.27579c0,.70917-.60011,1.30928-1.36381,1.30928-.70917,0-1.30928-.60011-1.30928-1.30928v-22.80495Zm2.67309-.54527c0,5.89208,4.63733,10.63878,10.14804,10.69299,5.67397-.05421,10.25614-4.80091,10.25614-10.69299s-4.58216-10.58394-10.25614-10.58394c-5.40166,0-9.92961,4.47375-10.14804,10.14772v.43621Z"/><path class="cls-1" d="m258.02001,275.09116c0-4.69185-3.81879-7.85632-8.51064-7.85632-4.63701,0-8.45643,3.16447-8.45643,7.85632v15.05768c0,.10905-.05421.16326-.05421.21811-.05485.10905-.05485.16326-.10905.21811-.1639.32716-.43685.54527-.81822.65432,0,0-.05485.05485-.10969.05485h-.27232c-.38201,0-.76401-.1639-1.03697-.43621-.10905-.1639-.16326-.27295-.21811-.43685-.05421-.16326-.05421-.27232-.05421-.43621v-35.57123c0-.70917.60011-1.30928,1.30928-1.30928.76338,0,1.36349.60011,1.36349,1.30928v14.07556c2.01909-2.40045,5.07386-3.92784,8.45643-3.92784,6.16503,0,11.18405,4.36469,11.18405,10.52973v14.89378c0,.70917-.60011,1.30928-1.36349,1.30928-.70917,0-1.30992-.60011-1.30992-1.30928v-14.89378Z"/><path class="cls-1" d="m296.42664,265.87072v24.11423c0,.70917-.60011,1.30928-1.30928,1.30928s-1.30928-.60011-1.30928-1.30928v-3.98269c-2.2914,3.16447-5.94629,5.29197-10.03803,5.29197-7.0381,0-12.65723-6.05598-12.65723-13.3664s5.61913-13.3664,12.65723-13.3664c4.09174,0,7.74663,2.07329,10.03803,5.23776v-3.92848c0-.76401.60011-1.30928,1.30928-1.30928s1.30928.54527,1.30928,1.30928Zm-2.61856,12.05712c0-6.00114-4.52796-10.80204-10.03803-10.80204-5.45587,0-10.03867,4.80091-10.03867,10.80204s4.5828,10.74784,10.03867,10.74784c5.51008,0,10.03803-4.7467,10.03803-10.74784Z"/><path class="cls-1" d="m326.32326,275.47253c0-4.52796-3.65553-8.23769-8.23833-8.23769-4.52796,0-8.18348,3.70973-8.29254,8.23769v14.73052c-.05421.21811-.10905.43621-.27232.60011-.21874.32716-.60011.49106-.98212.49106h-.3278c-.38137-.10905-.70917-.38201-.87243-.70917-.05485-.05485-.05485-.10905-.05485-.1639,0-.05421-.05421-.10905-.05421-.10905v-24.38655c0-.70917.54527-1.30928,1.30928-1.30928.70917,0,1.25443.60011,1.25443,1.30928v2.56372c1.96424-2.34561,4.96481-3.873,8.29254-3.873,6.00177,0,10.85689,4.90996,10.85689,10.85625v14.51242c0,.76401-.60011,1.30928-1.30928,1.30928s-1.30928-.54527-1.30928-1.30928v-14.51242Z"/><path class="cls-1" d="m350,265.87072c0,.65496-.65432,1.30928-1.30928,1.30928h-3.43678v19.47722c0,1.30928,1.30928,1.9636,1.9636,1.9636.65496,0,1.36413.70917,1.36413,1.36413,0,.65432-.70917,1.30928-1.36413,1.30928-2.67341,0-4.69185-1.96424-4.69185-4.63701v-19.47722h-3.32773c-1.30928,0-1.30928-.65432-1.30928-1.30928,0-.65432,0-1.30928,1.30928-1.30928h3.32773v-9.92898c0-.65496.65496-1.30992,1.30928-1.30992.70917,0,1.41897.65496,1.41897,1.30992v9.92898h3.43678c.65496,0,1.30928.65496,1.30928,1.30928Z"/></g></g><g><path class="cls-1" d="m176.60633,206.10581l-.58434-.99336c-.59888-1.03719-1.40852-10.23302-1.64979-14.89463-.76007-14.68776,1.20063-16.64826,1.93858-17.38642l2.07642,2.07601c-.17717.17737-1.71267,2.0924-1.10846,14.64188.03584.7443.07681,1.47918.12187,2.20054,1.01855-6.79129,2.18907-13.82794,2.27551-14.34654l2.8961.48255c-1.04436,6.26696-3.7551,23.18803-3.7551,26.1849,0,1.19244-.61056,1.60658-1.1228,1.7438l-1.08798.29125Z"/><path class="cls-1" d="m261.84664,127.94866c-.3064-5.48313-3.14966-9.64949-8.45071-12.38358-6.18544-3.19001-12.73996-2.89016-18.90451-2.09138-5.4255.70339-10.79193,2.1944-15.54786,3.52655-4.97864-5.23973-11.63567-8.45114-18.94356-8.45114s-13.96499,3.21141-18.94361,8.45112c-4.75593-1.33215-10.12213-2.82313-15.54781-3.52652-6.16271-.79858-12.71866-1.09843-18.90451,2.09138-5.30084,2.73409-8.1441,6.90045-8.45071,12.38358-.20133,3.6021.89607,7.09032,1.86403,10.16788.42602,1.35424.86596,2.70439,1.30611,4.05474,1.35732,4.16575,2.76092,8.47324,3.69263,12.8012,1.02326,4.75337,1.63832,9.07027,1.88082,13.19732.31009,5.27729-.06923,10.58776-.48111,15.08674-.11756,1.28379.20338,2.25011.98127,2.95468.56017.50712,1.29464.7783,2.0756.7783.18945,0,.38198-.01598.57512-.04834l.06493-.01229c4.76156-.98762,8.42039-3.77681,11.95879-6.47423.52474-.40021,1.04866-.7996,1.57463-1.19203,4.40457-3.2832,8.3653-6.98136,11.98952-10.48903,2.32768-2.25308,3.24685-4.86604,3.78659-7.19897,2.31813,2.87672,5.09843,5.26316,8.20367,7.016,1.96424,17.07397,3.35558,33.73844,3.35558,43.19187v11.19155c0,3.7383-1.54124,7.39468-4.22863,10.03107-1.31861,1.29362-2.83854,2.28657-4.48014,2.94648-2.20792-2.55037-3.45565-5.84954-3.45565-9.2159v-3.46344c0-.81082-.6573-1.46812-1.46812-1.46812h-15.10067c-.81082,0-1.46812.6573-1.46812,1.46812h0c0,8.96316,7.28797,16.39429,16.24621,16.56552,1.51564.03031,2.99851-.15033,4.42833-.52638,3.05708,2.78755,6.93036,4.30523,11.00415,4.30482.10896,0,.21874-.00082.32791-.00328,8.95025-.1786,16.23166-7.61014,16.23166-16.56551v-15.26493c0-9.45369,1.39124-26.11805,3.35542-43.19182,3.10534-1.75289,5.88572-4.13941,8.20393-7.01625.53954,2.33301,1.45852,4.94602,3.78628,7.19918,3.6236,3.50686,7.58352,7.20461,11.98952,10.48903.52638.39243,1.0503.79182,1.57503,1.19203,3.5384,2.69743,7.19723,5.48661,11.95879,6.47423l.06677.01229c.19253.03236.38423.04834.57308.04834.78035,0,1.51523-.27118,2.07601-.77871.77748-.70416,1.09863-1.67089.98066-2.95427-.41168-4.49735-.791-9.807-.48091-15.08674.2425-4.12745.85777-8.44456,1.88103-13.19732.9315-4.32838,2.33531-8.63647,3.69283-12.80264.43994-1.34974.87948-2.69968,1.3055-4.0531.96796-3.07695,2.06577-6.56415,1.86423-10.16809Zm-84.76411,108.95369c-6.24776-.1195-11.50799-4.53182-12.96521-10.36537-.22861-.91516.48871-1.79661,1.432-1.79661h8.86344c.81082,0,1.46812.6573,1.46812,1.46812v.5272c0,3.6023,1.17994,7.13947,3.29959,10.04131-.68941.09667-1.3905.13927-2.09793.12535Zm45.06054-90.48339l-.01843-.81046c-.17202-7.40668-.6104-15.30572-2.53828-23.16648,3.35914,4.89495,5.37171,11.06838,5.37171,17.77654,0,4.55749-.93058,8.86774-2.57802,12.6999-.13515-2.17458-.18833-4.35385-.23697-6.4995Zm-44.28592-.00246c-.04857,2.14662-.10174,4.32687-.237,6.50239-1.64757-3.83226-2.5782-8.14266-2.5782-12.70033,0-6.70823,2.01262-12.88177,5.37184-17.77675-1.92765,7.85661-2.36616,15.75775-2.53821,23.16668l-.01843.808Zm-1.18834,14.01638c-.62141,2.9131-1.51236,4.71835-3.07511,6.23112-3.55376,3.43886-7.43093,7.06042-11.70236,10.24489-.53457.39816-1.06689.80411-1.60002,1.21046-3.42002,2.60731-6.65078,5.07042-10.74485,5.92819-.09688.01311-.1657-.00492-.18741-.02007-.00061-.00123-.05428-.12125-.01925-.50303.42192-4.60754.80984-10.05564.48849-15.52669-.25151-4.27861-.88644-8.74134-1.94166-13.6432-.96345-4.47584-2.39102-8.85645-3.77148-13.09286-.43687-1.34093-.87374-2.68166-1.29669-4.02627-.89279-2.83834-1.90479-6.05518-1.73336-9.12291.24783-4.43242,2.49322-7.68306,6.86502-9.93767,3.28156-1.69239,6.6727-2.3007,10.39666-2.3007,2.13787,0,4.38572.20051,6.78412.51163,4.7355.61373,9.50228,1.87363,13.82759,3.07713-4.26286,5.56313-6.85278,12.82025-6.85278,20.75567,0,6.68261,1.83725,12.88433,4.96169,17.99964-.11526.74261-.24243,1.48241-.3986,2.21467Zm3.46098-2.85342c.49271-3.71485.58035-7.45287.66278-11.0966l.01843-.80636c.12279-5.28546.38303-10.82096,1.23878-16.37931,1.77209,9.87464,3.60123,22.69722,5.13947,35.56918-2.73729-1.89278-5.13361-4.37254-7.05947-7.28692Zm29.12621,12.50888c-1.86902,16.55845-3.17378,32.50711-3.17378,41.69415v15.26493c0,7.36846-5.99066,13.48263-13.354,13.63009-2.9219.05284-5.74161-.84261-8.10723-2.56634,1.51728-.76519,2.92907-1.77494,4.18828-3.00998,3.24654-3.1853,5.10852-7.60523,5.10852-12.12715v-11.19155c0-9.18679-1.30481-25.13555-3.1739-41.69418l-.38718-3.36979c-1.97886-16.92686-4.49141-34.04945-6.75685-44.8729.0331-.12358.0629-.24749.0968-.371.1638-.59632.49629-1.81347-.1147-2.86963,4.392-4.42743,10.13537-7.11966,16.41805-7.11966s12.02628,2.69233,16.4183,7.11991c-.61099,1.05693-.27776,2.27584-.1129,2.87633.03321.12094.06237.2423.0948.36332-2.26552,10.82332-4.77818,27.94634-6.75706,44.87367l-.38715,3.36976Zm3.55461-5.22186c1.5383-12.87279,3.36758-25.69618,5.13983-35.571.85575,5.55771,1.11609,11.09447,1.23878,16.38103l.01843.80882c.08244,3.64286.17002,7.37995.66268,11.09396-1.92594,2.91451-4.32233,5.39437-7.05972,7.2872Zm44.37074-27.63106c-.42274,1.34421-.85941,2.68432-1.29608,4.02463-1.38087,4.23703-2.80844,8.61825-3.77189,13.0945-1.0548,4.90125-1.69014,9.36378-1.94166,13.6432-.32115,5.47391.06636,10.92038.48828,15.52669.03482.38178-.01843.5018-.02376.50671-.01761.01147-.08807.0299-.17983.0172-4.0955-.85777-7.32709-3.3213-10.74751-5.9286-.53334-.40676-1.06586-.8123-1.60043-1.21087-4.27287-3.18571-8.14922-6.80644-11.70196-10.24489-1.56316-1.51277-2.4537-3.31802-3.07511-6.23112-.15622-.73235-.28341-1.47224-.39867-2.21496,3.12437-5.11525,4.96156-11.31688,4.96156-17.99935,0-7.93542-2.58995-15.19253-6.85286-20.75569,4.32538-1.20363,9.09232-2.46337,13.82766-3.0771,6.57705-.85265,12.01573-.87436,17.18078,1.78907,4.372,2.25461,6.6176,5.50525,6.86543,9.93747.17123,3.06937-.84097,6.28539-1.73397,9.12312Z"/><g><path class="cls-1" d="m179.23563,218.8679c-4.52705-2.92941-8.68914-6.90767-12.46026-11.93094-3.94033-5.24877-7.46431-11.63647-10.55529-19.08316-1.2216.6115-2.51767,1.13824-3.89926,1.54208,3.23056,7.79425,6.93033,14.49982,11.08103,20.0341,2.73726,3.64964,5.66977,6.79613,8.78911,9.43792h7.04467Z"/><path class="cls-1" d="m141.97679,115.02167c-.14598-2.89825-.21667-5.18686-.25062-6.6993,4.71568-.05776,16.55138-.30948,28.26829-1.4079,8.89311-.8336,16.00411-1.98815,21.13537-3.43128,1.8415-.51798,6.23685-1.75425,8.87017-4.20958,2.63332,2.45533,7.02887,3.6916,8.87017,4.20958,5.13146,1.44313,12.24226,2.59768,21.13537,3.43128,11.7167,1.09843,23.55302,1.35035,28.2687,1.4079-.03374,1.51231-.1042,3.80118-.25,6.69999,1.59401,1.2183,2.91845,2.61158,3.9604,4.1646.50085-7.84985.51537-12.82289.51537-12.94491v-2.09732h-2.09732c-.14993,0-15.174-.01618-30.00554-1.40647-20.26773-1.90008-26.03225-4.95958-27.66261-6.64986-.71804-.74443-1.70028-1.17186-2.73458-1.17186h0c-1.03453,0-2.0167.4279-2.73506,1.17235-1.63048,1.68968-7.39203,4.74702-27.63767,6.64711-14.83134,1.39193-29.87978,1.40872-30.02991,1.40872l-2.09732.0002v2.09711c0,.12202.01449,5.09521.51534,12.94526,1.04218-1.55345,2.3669-2.9471,3.96145-4.16565Z"/><path class="cls-1" d="m243.78003,187.85372c-3.08637,7.43549-6.60442,13.81527-10.53758,19.05948-6.10631,8.14164-13.23559,13.55001-21.28775,16.17816v3.95607c0,.15164-.00794.30154-.01147.45241,9.40523-2.70733,17.6654-8.75079,24.65493-18.06986,4.15083-5.53428,7.85057-12.2399,11.08111-20.03415-1.38159-.40385-2.67766-.93058-3.89924-1.54211Z"/></g><path class="cls-1" d="m222.30569,205.81456c-.51245-.13723-1.1228-.55136-1.1228-1.7438,0-2.99687-2.71053-19.91794-3.7551-26.1849l2.8961-.48255c.08643.51859,1.25716,7.55525,2.27551,14.34654.04506-.72136.08602-1.45624.12207-2.20054.60421-12.54948-.9315-14.46451-1.10846-14.64188l2.07601-2.07601c.73816.73816,2.69906,2.69866,1.93879,17.38642-.24127,4.66161-1.05071,13.85744-1.65,14.89463l-1.67212.70211Z"/></g></g></g></svg>