<?xml version="1.0" encoding="UTF-8"?><svg xmlns="http://www.w3.org/2000/svg" viewBox="0 0 400 400"><defs><style>.cls-1{fill:#fff;}.cls-2{fill:#383838;}</style></defs><g id="Layer_1"><rect class="cls-2" width="400" height="400"/></g><g id="Layer_2"><g><g><path class="cls-1" d="m156.66994,214.9124c-.77917.34669-.8797-.57048-1.60715-.76928-.54872,2.43415,2.24117,3.98504,1.80169,7.14655-3.60896-5.11454-5.3377-10.08561-5.69518-15.50617-.14043-2.1294-.59714-4.51577,1.83391-5.95874,3.12936-.23951,2.57958,2.28062,3.26358,3.86602-3.18688,1.94377-3.86394,4.88274-1.67999,7.58802.916,1.13464,1.99138,2.11059,2.02085,3.68071l.06229-.04712Z"/><path class="cls-1" d="m239.77263,214.9124c.77917.34669.8797-.57048,1.60715-.76928.54872,2.43415-2.24117,3.98504-1.80169,7.14655,3.60896-5.11454,5.3377-10.08561,5.69518-15.50617.14043-2.1294.59714-4.51577-1.83391-5.95874-3.12936-.23951-2.57958,2.28062-3.26358,3.86602,3.18688,1.94377,3.86394,4.88274,1.67999,7.58802-.916,1.13464-1.99138,2.11059-2.02085,3.68071l-.06229-.04712Z"/><path class="cls-1" d="m238.072,214.49476c.47639-10.66286,1.39375-21.23438,6.21395-31.12937,2.24948-4.61758,2.52002-9.63673,1.18727-14.48549-.28327-.95708-.78858-1.61765-.94959-1.36459-.49898.78428-.85248,1.99634-1.42366,3.37181-.15112-11.53245-2.17947-16.0705-8.94609-20.0114-.21936.83841-.43647,1.66785-.72617,2.77461-9.03236-11.98111-16.93974-16.56089-26.08282-15.2302.7345.78654,1.60169,2.2354.89934,3.61381-2.06391-1.94627-4.32788-3.64121-7.11812-4.40152-10.0986-2.7513-19.72821-1.15006-29.43797,2.98327,1.89895.91873,3.64452,1.3151,4.63656,3.09539-11.32079-.34236-17.17133,1.7721-21.99233,7.82384,2.07486.47732,4.1539.95558,6.51427,1.49856-3.06915,2.64768-6.67038,3.3472-10.08315,4.61821,1.58447,5.75127,2.69979,11.4123,4.72975,16.83427.14526.55604.11701.78351.14601,1.23759.03165.49553-.7481.85168-1.06747.48262-1.76778-.3797-2.37141-1.56098-3.4127-2.95673-.39479,4.94986.05939,7.59927,2.31933,12.90566.99059,2.32564,1.82025,4.66907,2.35409,7.1555,1.87545,8.73359,2.94813,17.52434,2.62045,26.46392-.07017,1.91777-.15804,3.89964.23449,5.75646.97305,4.60278.85396,9.17453-.29211,13.66046-1.05368,4.12467-.90948,8.25155-.4949,12.35449.38014,3.7609.52676,7.65675,2.30822,10.77309,1.07026.45873.8657-1.32691,1.90844-.42677.71184,12.46236,7.15304,22.24113,16.00467,24.41323.39173-.34787.08868-1.28613,1.12289-1.00755,1.85147,1.21006,3.49372,3.02862,5.74593,3.4113,10.32086,1.75415,20.67116,3.23917,30.48103-2.12816.56185-.3074,1.0936-.50755,1.69713-.44519,4.52551.46787,7.37675-2.20501,9.87022-5.2519,4.54788-5.55741,7.83946-11.6282,7.04135-19.10196-.04329-.40629.02623-.59338.3663-.57653.82869.19842.64676.22333,2.03929,1.31794,2.30533-7.3303,2.96857-14.84469,1.75523-22.37956-.61898-3.84294-1.16023-7.66163-.71941-11.47513.54672-4.7297.33943-9.45295.55026-14.17399Zm-74.80577-23.45388c1.2885-3.79334,2.51117-7.5125,2.67372-11.60206.14855-3.7409,1.81011-6.95172,5.2887-9.34713.04056-.02.07902-.07638.11845-.10787,1.87658-1.49951,4.18046-.37007,4.18046-.37007,0,0-2.18897-3.46137-7.35052-7.04275,0,0,1.09853.13016,2.29824.65763,1.92469.84621,7.27938,5.06009,7.27938,5.06009,8.78853,4.84939,16.06953,5.87756,22.88105,5.53804-.01738-.10157-.05408-.19197-.07532-.29118-.00821-.00394-.01529-.01024-.0235-.01433-.54607-1.60691-3.81785-9.78696-16.01513-18.24087.00547-.01795.00579-.03716.01175-.05496,9.79683,4.14357,16.53931,13.35337,18.87683,16.86561.30482.43086.60514.86078.92252,1.28817,3.72885-.15023,7.22804-.88959,10.72578-1.90879l.00016.00031,3.48631-1.09479s-2.95279-9.97011-7.37482-13.5603c0,0,.47896-.00079.94263.30866,4.93913,3.29681,9.0264,12.51417,9.0264,12.51417,0,0,3.74092-.05842,4.98436.9814,1.26806.96093,2.11236,2.03352,2.7426,3.11634.9161-.96447.97946-1.07297,1.78735-2.04948,1.04551-.94551,1.40985-1.11601,2.22556-1.31426.58164,1.37573-.6428,2.21257-1.12402,3.27098-2.1019,4.48514-1.23185,8.93091.14179,13.38849.98142,3.18468,2.47448,6.24323,2.95891,9.87893-2.80553.09512-5.28709-.00945-7.45401-.91337-4.54869-1.89777-9.05666-1.9658-13.74006-.7707-2.47963.63275-5.02314,1.02235-7.5245,1.57904-1.7158.38173-3.8523.23732-3.51609,2.60989-3.08654.91479-5.61332.91007-8.44782.08252-.65455-1.42754-1.78211-2.46894-3.78422-2.75886-3.5766-.51779-7.0811-1.49321-10.64419-2.1236-3.01701-.53385-6.0654-.42803-8.91841.77983-2.69722,1.14188-5.50372,1.39053-8.49465,1.55935-1.00637-2.23367.3148-4.09034.93427-5.9141Zm67.59494,13.64723c-.01191.14756-.02028.29637-.04812.44141-2.0071,10.45656-3.00848,11.2175-12.92891,11.61592-8.40839.33763-11.98708-2.27619-14.57872-10.21515-.71233-2.18233-.58164-4.06656,1.79836-5.97725,3.06095.56409,5.81401-.8696,8.66509-1.68722,4.36522-1.25195,8.663-1.05432,12.96512.02551,3.4435.86408,4.4069,2.3206,4.12718,5.79678Zm-36.97743-.6918c-4.15132,13.86329-9.13938,14.10565-22.48594,11.86646-1.80271-.30236-2.97355-1.58675-3.58111-3.1261-1.46972-3.72373-2.82275-7.51014-1.66011-12.02378,8.36139-5.56198,16.90626-1.24392,25.8501.36677-.07854-.07008.33605.17496.567.53354.47655.74015.85508,1.54077,1.31006,2.38312Zm9.19089,43.22181h-9.74259c-1.48275,1.98659-2.52276,4.82057-5.7292,5.48591-3.04598.63212-5.97656.6181-9.03107-.75826.56539-2.53713,1.47117-4.81773,2.96132-6.99865,5.31815-2.37068,11.34847-2.82784,16.63861-5.58434,5.37464,2.60926,11.33929,3.2609,16.80857,5.55993,1.41516,2.13761,2.42651,4.37648,2.85108,6.8344-6.93513,2.80422-10.69038,1.64124-14.75673-4.539Zm21.17201,2.94264c.10027.11779-.11974-.02063-.14501-.1874-1.66735-10.99262-10.36399-14.33966-19.51528-17.17584-.86249-.26724-1.84696-.45637-2.65071.06488-2.95118,1.91399-5.75285,1.12455-8.31005-.35007-2.68032.29433-4.87781,1.33746-7.13373,2.16312-6.98905,2.55839-12.67012,6.36779-13.58459,14.29305-5.8845-5.60922-7.54091-12.71149-8.50383-20.27029-.68706-5.39426-2.92157-10.53561-3.62118-15.99035-.39318-3.06563-.36244-6.08795-.14533-10.03247,2.31788,2.13698,2.72941,4.24892,3.38734,6.2237,2.86251,8.59233,3.00832,8.31045,12.29513,9.48397,8.89121,1.12345,15.0432-1.54581,18.31836-9.91688.58213-1.48801,1.22831-3.07492,3.11872-3.62988,2.03993-.27071,2.84319,1.12912,3.64066,2.62422,1.25695,2.35619,2.44985,4.74514,4.09049,6.89456,2.04347,2.67713,4.64348,4.11491,8.11741,4.07302,3.48261-.0422,6.94881-.34094,10.41758-.48834,4.18367-.17764,6.29909-2.18155,7.34296-5.89804.59806-2.12895,1.45169-4.19255,2.25479-6.2615.36099-.93007.581-1.98816,2.7616-3.14437-1.67814,17.01222-3.55745,33.11848-12.13531,47.52491Z"/></g><path class="cls-1" d="m72.94233,197.88573c-.51481-.13656-1.03673-.25323-1.49573-.54366-1.00516-.63602-1.59471-1.56095-1.79592-2.71457-.28611-1.64039.12196-3.10396,1.31695-4.28218.91097-.89819,2.02486-1.33559,3.32019-1.09406.8112.15126,1.57143.43451,2.1446,1.08789.30979.35314.5244.3204.80077-.07518.5535-.79222.96117-1.6684,1.43293-2.50754.6497-1.15566,1.3147-2.30151,2.10124-3.37069.15783-.21455.16087-.3716.00354-.5899-.79481-1.10281-1.57552-2.21579-2.35905-3.32671-1.67611-2.37646-3.37172-4.73956-5.01687-7.13727-.74663-1.08816-1.1746-2.31379-1.13571-3.66259.02511-.87067.27773-1.67539.74173-2.41231.15204-.24146.38489-.24338.558-.00681.99059,1.35377,1.97855,2.70945,2.96977,4.06275,1.67769,2.29054,3.35778,4.57932,5.03551,6.86984.56942.77739,1.13839,1.55517,1.69901,2.3389.11775.16462.18336.21085.3247.01618,1.1625-1.60121,2.33069-3.19832,3.50263-4.79265,1.02928-1.40025,2.06792-2.79362,3.09821-4.19313,1.04058-1.4135,2.07623-2.83063,3.11343-4.24661.21392-.29204.28588-.28497.47072.01569.55207.89797.82941,1.86945.7672,2.92363-.05349.90652-.34375,1.74803-.74815,2.55706-.37612.75244-.90739,1.39949-1.38632,2.08095-1.7115,2.43527-3.43722,4.86054-5.15874,7.28876-.40306.56852-.80879,1.13519-1.21775,1.69947-.10161.1402-.1349.26195-.02067.41778,1.18964,1.62288,2.10047,3.41163,3.06989,5.16575.14938.2703.32191.52954.50228.78056.22534.3136.44548.3378.69842.05156.46923-.53099,1.06527-.81458,1.72987-1.01842,1.32478-.40632,2.48411-.07824,3.5231.76002,1.82269,1.47055,2.27962,4.4727.6859,6.43275-.66861.82229-1.57426,1.22145-2.61817,1.3387-1.84048.20672-3.77729-.99233-4.44975-2.77186-.39785-1.05282-.8121-2.10129-1.25741-3.137-.77923-1.81233-1.94589-3.31333-3.51006-4.51033-.26646-.20391-.53012-.41166-.79052-.62324-.09461-.07688-.16697-.08444-.27004-.00612-1.22895.93391-2.43232,1.89221-3.3229,3.18096-.75486,1.09235-1.26781,2.30145-1.74417,3.53088-.25789.66559-.50892,1.33614-.81223,1.98134-.63187,1.34411-1.73377,2.09615-3.16269,2.40573-.0502.01088-.09996.02373-.14993.03566-.39594,0-.79187,0-1.1878,0Zm22.41263-4.19219c-.00545-.83455-.26842-1.55686-.94919-2.07882-.84994-.65166-1.77828-.71037-2.71952-.24988-.88634.43363-1.19148,1.19995-1.12286,2.16087.08623,1.20742,1.36389,2.42911,2.58498,2.43025,1.01738.00095,2.23063-.72731,2.20659-2.26242Zm-23.95164.06176c0,.06881-.00218.13769.00032.20641.04216,1.15479.9127,2.03681,2.06496,2.0611,1.13834.024,1.91499-.57471,2.44705-1.52356.35587-.63466.39707-1.32972.12921-1.99472-.42458-1.05407-1.53996-1.50615-2.68294-1.27639-1.21825.2449-1.98257,1.26988-1.9586,2.52716Z"/><path class="cls-1" d="m323.7151,167.07431c.51481.13656,1.03673.25323,1.49573.54366,1.00516.63602,1.59471,1.56095,1.79592,2.71457.28611,1.64039-.12196,3.10396-1.31695,4.28218-.91097.89819-2.02486,1.33559-3.32019,1.09406-.8112-.15126-1.57143-.43451-2.1446-1.08789-.30979-.35314-.5244-.3204-.80077.07518-.5535.79222-.96117,1.6684-1.43293,2.50754-.6497,1.15566-1.3147,2.30151-2.10124,3.37069-.15783.21455-.16087.3716-.00354.5899.79481,1.10281,1.57552,2.21579,2.35905,3.32671,1.67611,2.37646,3.37172,4.73956,5.01687,7.13727.74663,1.08816,1.1746,2.31379,1.13571,3.66259-.02511.87067-.27773,1.67539-.74173,2.41231-.15204.24146-.38489.24338-.558.00681-.99059-1.35377-1.97855-2.70945-2.96977-4.06275-1.67769-2.29054-3.35778-4.57932-5.03551-6.86984-.56942-.77739-1.13839-1.55517-1.69901-2.3389-.11775-.16462-.18336-.21085-.3247-.01618-1.1625,1.60121-2.33069,3.19832-3.50263,4.79265-1.02928,1.40025-2.06792,2.79362-3.09821,4.19313-1.04058,1.4135-2.07623,2.83063-3.11343,4.24661-.21392.29204-.28588.28497-.47072-.01569-.55207-.89797-.82941-1.86945-.7672-2.92363.05349-.90652.34375-1.74803.74815-2.55706.37612-.75244.90739-1.39949,1.38632-2.08095,1.7115-2.43527,3.43722-4.86054,5.15874-7.28876.40306-.56852.80879-1.13519,1.21775-1.69947.10161-.1402.1349-.26195.02067-.41778-1.18964-1.62288-2.10047-3.41163-3.06989-5.16575-.14938-.2703-.32191-.52954-.50228-.78056-.22534-.3136-.44548-.3378-.69842-.05156-.46923.53099-1.06527.81458-1.72987,1.01842-1.32478.40632-2.48411.07824-3.5231-.76002-1.82269-1.47055-2.27962-4.4727-.6859-6.43275.66861-.82229,1.57426-1.22145,2.61817-1.3387,1.84048-.20672,3.77729.99233,4.44975,2.77186.39785,1.05282.8121,2.10129,1.25741,3.137.77923,1.81233,1.94589,3.31333,3.51006,4.51033.26646.20391.53012.41166.79052.62324.09461.07688.16697.08444.27004.00612,1.22895-.93391,2.43232-1.89221,3.3229-3.18096.75486-1.09235,1.26781-2.30145,1.74417-3.53088.25789-.66559.50892-1.33614.81223-1.98134.63187-1.34411,1.73377-2.09615,3.16269-2.40573.0502-.01088.09996-.02373.14993-.03566.39594,0,.79187,0,1.1878,0Zm-22.41263,4.19219c.00545.83455.26842,1.55686.94919,2.07882.84994.65166,1.77828.71037,2.71952.24988.88634-.43363,1.19148-1.19995,1.12286-2.16087-.08623-1.20742-1.36389-2.42911-2.58498-2.43025-1.01738-.00095-2.23063.72731-2.20659,2.26242Zm23.95164-.06176c0-.06881.00218-.13769-.00032-.20641-.04216-1.15479-.9127-2.03681-2.06496-2.0611-1.13834-.024-1.91499.57471-2.44705,1.52356-.35587.63466-.39707,1.32972-.12921,1.99472.42458,1.05407,1.53996,1.50615,2.68294,1.27639,1.21825-.2449,1.98257-1.26988,1.9586-2.52716Z"/><g><g><path class="cls-1" d="m72.99853,213.81102v29.77333h-4.02997v-13.77216h-8.37254v13.77216h-4.02997v-13.77216h-2.69991v-4.02922h2.69991v-7.90347h-2.69991v-4.06849h6.72988v11.97196h8.37254v-11.97196h4.02997Z"/><path class="cls-1" d="m79.65198,213.84923h13.77237v7.55107h-4.02997v-3.52079h-7.70752v7.90347h7.94264v4.02922h-7.94264v9.62406h7.70752v-3.52079h4.02997v7.55107h-18.46736v-4.03028h2.69991v-21.55674h-2.69991v-4.03028h4.69499Z"/><path class="cls-1" d="m96.67412,243.46653h-1.29131v-4.03028h2.30822l5.36055-21.55674h-2.77793v-4.06849h9.82042l5.71244,29.77333h-4.10799l-1.21329-6.41639h-8.05993l-1.13421,4.49837v1.8002h-4.61697Zm6.72935-10.32885h6.29944l-2.73866-14.24131-3.56079,14.24131Z"/><path class="cls-1" d="m136.89789,219.87502v17.5668c0,3.32548-2.69938,6.02472-6.02505,6.02472h-10.40743v-25.58702h-2.69991v-4.03028h13.10734c3.32566,0,6.02505,2.7003,6.02505,6.02578Zm-4.02997,0c0-1.0954-.89962-1.9955-1.99508-1.9955h-6.37746v21.55674h6.37746c1.09546,0,1.99508-.89904,1.99508-1.99444v-17.5668Z"/></g><g><path class="cls-1" d="m277.59274,231.72913l.07802,11.85511h-4.02984l-.07802-11.81583c0-1.05612-.86085-1.95621-1.95628-1.95621h-4.73412v13.77205h-4.02984v-25.70464h-2.69983v-4.03025h2.69983v-.03821h4.02984v10.56335l5.8683-10.56335h4.61683l-6.65112,11.97187h.90012c3.28629,0,5.98612,2.65994,5.98612,5.94613Z"/><path class="cls-1" d="m289.05759,239.55399v4.03025h-9.42897v-4.03025h2.69983v-21.71367h-2.69983v-4.02919h9.42897v4.02919h-2.6993v21.71367h2.6993Z"/><path class="cls-1" d="m308.46431,213.81114v29.7731h-4.02931v-8.37256l-6.6904-13.65423v22.02679h-4.03037v-25.70464h-2.6993v-4.03025h2.6993v-.03821h4.73412l5.98665,12.20644v-12.20644h4.02931Z"/><path class="cls-1" d="m317.543,225.783h9.35148v4.02919h-.03927v7.62956c0,3.32546-2.6993,6.02467-6.02486,6.02467h-4.42205c-3.32556,0-5.98559-2.69922-5.98559-5.9854v-17.60593c0-3.32546,2.6993-6.02574,6.02486-6.02574h4.3435c3.36484,0,6.06414,2.73955,6.06414,6.06501v1.486h-4.03037v-1.486c0-1.13467-.89906-2.03476-2.03376-2.03476h-4.3435c-1.09543,0-1.99449.90009-1.99449,1.99549v17.60593c0,1.0954.85978,1.95515,1.95521,1.95515h4.42205c1.09543,0,1.99449-.89903,1.99449-1.99443v-7.62956h-5.28184v-4.02919Z"/><polygon class="cls-1" points="341.46371 239.55338 335.26457 239.55338 339.26677 229.81287 344.17407 229.81287 344.17407 225.78202 340.95758 225.78202 345.89573 213.81114 344.217 213.81114 341.16045 213.81114 328.85288 213.81114 328.85288 215.79558 328.85288 217.82056 328.85288 221.36187 333.28491 221.36187 333.28491 217.84206 339.48311 217.84206 336.21255 225.78202 331.13341 225.78202 331.13341 229.81287 334.53381 229.81287 328.85288 243.58423 333.58823 243.58423 345.89573 243.58423 345.89573 241.59986 345.89573 239.57488 345.89573 236.0335 341.46371 236.0335 341.46371 239.55338"/></g></g><g><path class="cls-1" d="m82.43302,270.83365h-2.12758v-1.42499h.89682l2.08204-7.6241h-1.07897v-1.40897h1.47404v-.01349h2.34051l2.21865,10.51287h-1.59547l-.47139-2.26565h-3.13065l-.44061,1.58857v.63576h-.16739Zm2.37086-8.67556l-1.38297,5.02877h2.44676l-1.06379-5.02877Z"/><path class="cls-1" d="m95.77656,260.3621v10.51287h-1.56554v-2.95622l-2.59855-4.82135v7.77756h-1.56554v-9.09041h-1.04861v-1.40897h1.04861v-.01349h1.83918l2.3249,4.31038v-4.31038h1.56554Z"/><path class="cls-1" d="m103.31458,260.3621v10.51287h-1.56554v-2.95622l-2.59855-4.82135v7.77756h-1.56554v-9.09041h-1.04861v-1.40897h1.04861v-.01349h1.83918l2.3249,4.31038v-4.31038h1.56554Z"/><path class="cls-1" d="m108.11702,260.37559c.32424,0,.62824.05565.912.16611.28334.11046.53168.26223.74461.45616.2125.19309.37989.41906.50133.67624.12185.25802.18257.53458.18257.82885v6.20333c0,.29512-.06072.57084-.18257.82885-.12143.25802-.28882.48315-.50133.67708-.21293.19309-.46127.34486-.74461.45532-.28376.11046-.58776.16611-.912.16611h-1.70215c-.32424,0-.62824-.05565-.912-.16611s-.53168-.26223-.74461-.45532c-.21293-.19393-.37989-.41906-.50133-.67708-.12185-.25802-.18257-.53374-.18257-.82885v-6.20333c0-.29427.06072-.57084.18257-.82885.12143-.25717.2884-.48315.50133-.67624.21293-.19393.46085-.34571.74461-.45616s.58776-.16611.912-.16611h1.70215Zm.77497,2.12736c0-.19309-.07589-.3592-.22768-.49664-.15221-.13828-.33436-.20742-.54728-.20742h-1.70215c-.21293,0-.39507.06914-.54728.20742-.15179.13744-.22768.30355-.22768.49664v6.20333c0,.19309.07589.3592.22768.49748.15221.13828.33436.20658.54728.20658h1.70215c.21293,0,.39507-.0683.54728-.20658.15179-.13828.22768-.30439.22768-.49748v-6.20333Z"/></g><g><path class="cls-1" d="m286.51425,261.95965c.14386-.30774.33868-.57651.58544-.80731.24577-.2298.53349-.41364.86418-.55053.32969-.13688.68635-.20582,1.07098-.20582h2.12499c.37165,0,.72331.06794,1.053.20482.32969.13588.61542.31873.85519.54853.23977.2288.43259.49657.57645.80131.14386.30574.2158.62846.2158.96617v1.48972l-5.70759,5.54924v1.14602h3.85335v-1.47274h1.85424v3.15929h-7.56183v-3.48701l5.70759-5.56622v-.8183c0-.2288-.08991-.42563-.26974-.58949-.18083-.16386-.39662-.24579-.64839-.24579h-1.9991c-.26375,0-.48554.08293-.66637.24879-.17983.16586-.26974.36968-.26974.61247v.61247h-1.85424v-.60848c0-.3507.07193-.68042.2158-.98715Z"/><path class="cls-1" d="m299.60384,260.39599c.37265,0,.72631.06794,1.06299.20482.33568.13588.62341.31873.86418.54853.23977.2288.43159.49657.57545.80131.14486.30574.21679.62846.21679.96617v7.34969c0,.3497-.07193.67742-.21679.98316-.14386.30474-.34168.57251-.59344.80131-.25276.2298-.54648.40965-.88216.54054-.33668.13089-.69634.19683-1.08098.19683h-2.01609c-.38464,0-.74429-.06594-1.08098-.19683-.33568-.13089-.6294-.31073-.88216-.54054-.25176-.2288-.44957-.49657-.59344-.80131-.14486-.30574-.21679-.63346-.21679-.98316v-7.34969c0-.33771.07193-.66043.21679-.96617.14386-.30474.33568-.57251.57545-.80131.23977-.2298.5255-.41265.85519-.54853.33069-.13688.68735-.20482,1.07198-.20482h2.12399Zm-2.98817,9.87053c0,.1209.04196.25678.12588.40965l2.89825-8.59462h-2.106c-.25276,0-.46856.08193-.64839.24579s-.26974.36069-.26974.58949v7.34969Zm3.85235-7.34969c0-.16386-.04196-.30574-.12588-.42563l-2.88027,8.59462c.01099,0,.02398.002.03597.00799.01099.00599.02398.00799.03597.00799h2.01609c.25276,0,.46856-.08193.64839-.24579s.26974-.35969.26974-.58949v-7.34969Z"/><path class="cls-1" d="m303.43921,261.95965c.14386-.30774.33868-.57651.58544-.80731.24577-.2298.53349-.41364.86418-.55053.32969-.13688.68635-.20582,1.07098-.20582h2.12499c.37165,0,.72331.06794,1.053.20482.32969.13588.61542.31873.85519.54853.23977.2288.43259.49657.57645.80131.14386.30574.2158.62846.2158.96617v1.48972l-5.70759,5.54924v1.14602h3.85335v-1.47274h1.85424v3.15929h-7.56183v-3.48701l5.70759-5.56622v-.8183c0-.2288-.08991-.42563-.26974-.58949-.18083-.16386-.39662-.24579-.64839-.24579h-1.9991c-.26375,0-.48554.08293-.66637.24879-.17983.16586-.26974.36968-.26974.61247v.61247h-1.85424v-.60848c0-.3507.07193-.68042.2158-.98715Z"/><path class="cls-1" d="m316.5288,260.39599c.37265,0,.72631.06794,1.06299.20482.33568.13588.62341.31873.86418.54853.23977.2288.43159.49657.57545.80131.14486.30574.21679.62846.21679.96617v7.34969c0,.3497-.07193.67742-.21679.98316-.14386.30474-.34168.57251-.59344.80131-.25276.2298-.54648.40965-.88216.54054-.33668.13089-.69634.19683-1.08098.19683h-2.01609c-.38464,0-.74429-.06594-1.08098-.19683-.33568-.13089-.6294-.31073-.88216-.54054-.25176-.2288-.44957-.49657-.59344-.80131-.14486-.30574-.21679-.63346-.21679-.98316v-7.34969c0-.33771.07193-.66043.21679-.96617.14386-.30474.33568-.57251.57545-.80131.23977-.2298.5255-.41265.85519-.54853.33069-.13688.68735-.20482,1.07198-.20482h2.12399Zm-2.98817,9.87053c0,.1209.04196.25678.12588.40965l2.89825-8.59462h-2.106c-.25276,0-.46856.08193-.64839.24579s-.26974.36069-.26974.58949v7.34969Zm3.85235-7.34969c0-.16386-.04196-.30574-.12588-.42563l-2.88027,8.59462c.01099,0,.02398.002.03597.00799.01099.00599.02398.00799.03597.00799h2.01609c.25276,0,.46856-.08193.64839-.24579s.26974-.35969.26974-.58949v-7.34969Z"/></g><g><path class="cls-1" d="m147.40952,206.41435H50v2.17392h97.64536c-.10084-.71491-.17959-1.43944-.23585-2.17392Z"/><path class="cls-1" d="m153.86148,248.8061H50v2.17392h104.02647c-.06409-.70761-.12293-1.42843-.16499-2.17392Z"/><path class="cls-1" d="m347.82601,206.41435h-98.79528c-.05639.73448-.13534,1.45901-.23625,2.17392h101.20551v-2.17392h-2.17399Z"/><path class="cls-1" d="m347.82601,248.8061h-105.20804c-.01732.72413-.05719,1.44893-.10542,2.17392h107.48744v-2.17392h-2.17399Z"/></g><g><path class="cls-1" d="m126.54312,160.80512l13.50291,4.76782-.74734,2.11667-13.50291-4.76782-.94363,2.67244,1.85061.65274-.74852,2.11667-1.86007-.6551-1.04296-.36894-1.06306-.37603,1.69097-4.78911-.0201-.00709.74734-2.11667.0201.00709,1.68387-4.76782,1.06306.37603,1.04296.36894,1.86007.6551-.74734,2.11667-1.84942-.65274-.93654,2.65115Z"/><path class="cls-1" d="m133.09888,142.817l14.23251,8.51633-1.15293,1.92747-6.58295-3.94007-2.39455,4.00156,6.58295,3.94007-1.15293,1.92747-6.58295-3.94007-.77217,1.29128-1.92629-1.15412.77217-1.28892-3.79699-2.27276-.77217,1.29128-1.90737-1.14229.77217-1.29128-.01892-.00946,1.15293-1.92747,5.7221,3.42451,2.39574-4.00156-5.72328-3.42451,1.15293-1.92747Z"/><path class="cls-1" d="m136.80245,138.04445l5.06699-5.76348.8514.7497.83366.73315,1.47339,1.29601-1.48167,1.68624-1.47339-1.29601-2.83562,3.22585,3.30626,2.90657,2.92195-3.32281,1.68624,1.48285-2.92195,3.32281,4.0264,3.54039,2.83562-3.22585-1.47339-1.29365,1.48285-1.68624,1.47221,1.29601.83484.73315.8514.74734-5.06581,5.76112-.73433.83484-.9933,1.13047-1.68624-1.48285.9933-1.1281-9.01889-7.93218-.99211,1.13047-1.68624-1.48285.9933-1.1281.73315-.83484Z"/><path class="cls-1" d="m160.63565,137.99005l.02483.03547-1.84233,1.28183-.02483-.03547-1.21679.84667-1.28183-1.84469,1.21679-.84667-3.07331-4.4178-1.21797.8443-1.28064-1.84233,1.21679-.84667-2.52699-3.63263-1.21679.84667-1.26882-1.82577,1.21679-.84667-.01182-.01655,1.84233-1.28183.01301.01655.55459-.38549c.50138-.34765,1.03823-.57942,1.61292-.69531.57351-.11588,1.14466-.12298,1.70989-.02128.56642.10169,1.09854.30745,1.59637.6149.49783.30981.92116.71423,1.27,1.21561.34765.49901.57942,1.02877.69294,1.58691s.13126,1.11391.05321,1.66259c.78281.00473,1.53251.18683,2.25147.54631.71777.35711,1.31848.88214,1.79976,1.57508.38904.5605.65037,1.15885.78163,1.79266s.14072,1.26527.02838,1.89199c-.11352.62672-.34174,1.21561-.68585,1.76428s-.79582,1.01695-1.35632,1.40717l-.87741.61017Zm-5.63696-8.10719l.54158-.37603c.25187-.17501.4529-.38549.60307-.63145.15018-.24832.25187-.51084.30745-.78754.05676-.27907.05558-.56287-.00236-.8514s-.17501-.5605-.35002-.81119c-.17501-.25305-.38549-.45171-.63264-.60071-.24596-.14899-.51084-.25069-.79582-.30035s-.56996-.04966-.85258.00473-.55104.17028-.80291.34529l-.54158.37603,2.52581,3.63263Zm4.35513,6.26486l.8644-.60307c.29917-.20812.54513-.46117.73669-.76389.19156-.30035.31809-.62199.38076-.96728.06385-.34529.06031-.68821-.00828-1.03114-.0674-.34056-.21048-.66693-.4257-.97674-.20694-.29799-.46354-.54395-.76862-.74024-.30508-.19393-.62791-.31927-.96846-.37603-.34056-.05439-.68703-.0473-1.0406.02128s-.67993.20575-.97911.41624l-.324.22467-.5404.37603,3.07331,4.42017Z"/><path class="cls-1" d="m161.34041,118.14069l6.96608-3.21402.47536,1.02877.4659,1.00985.82183,1.78084-2.03862.94127-.82183-1.7832-3.89869,1.79976,1.84351,3.99683,4.01812-1.85179.94008,2.03862-4.01694,1.85179,2.24556,4.86952,3.89869-1.79976-.82183-1.78084,2.03862-.9389.82183,1.78084.4659,1.00749.47536,1.03114-6.96726,3.21402-1.00867.4659-1.36578.62909-.94008-2.03862,1.3646-.62909-5.03034-10.90497-1.36578.62909-.94008-2.03862,1.3646-.62909,1.00985-.4659Z"/><path class="cls-1" d="m172.44641,117.8356c-.12416-.46354-.15254-.96255-.08396-1.4994.0674-.53685.22349-1.04769.47063-1.53488.24596-.48719.56287-.91762.95191-1.29128s.85021-.63382,1.3847-.77572l4.57034-1.21797,1.08198,4.06542-2.1687.57942-.50493-1.89672-2.35908.62909c-.21048.05676-.39968.17737-.5676.36421-.16791.1892-.30745.40205-.41624.64091-.10879.24123-.17974.48246-.21285.72369-.03429.24123-.02601.45408.02247.63618.09696.36421.21876.68348.36657.95073.14663.26961.34174.48009.58534.63382.24478.15372.54986.24123.91643.26251.36657.02365.8171-.03547,1.35041-.17737l.29562-.08041c.67402-.17974,1.28301-.21994,1.82696-.12534.54395.09696,1.02168.28143,1.43318.55341.41151.27434.75325.62672,1.02641,1.05952.27197.43043.473.88451.59953,1.36223l.42688,1.6011c.14899.5605.16673,1.12101.05203,1.67678-.1147.55814-.34174,1.07607-.67875,1.55616-.33819.48246-.76744.90343-1.28655,1.26764-.5203.36421-1.10918.63382-1.76901.81119l-3.74969.99803-1.08198-4.06542,2.1687-.57706.50493,1.89436,1.57981-.42097c.3512-.09223.67166-.23177.96137-.41387s.52621-.39259.71186-.62909c.18447-.2365.31691-.48719.3985-.7497.07923-.26015.08632-.51793.01892-.77099l-.4257-1.6011c-.05321-.19629-.12771-.39022-.22349-.58415-.09696-.19156-.2294-.35238-.3985-.48009s-.37722-.21521-.62318-.26251-.54395-.02365-.89515.07095l-.50493.1348c-1.48521.35002-2.72092.24359-3.70594-.32164s-1.6685-1.56326-2.04926-2.99644Z"/><path class="cls-1" d="m191.12274,112.28733l1.0406,14.28218-2.23965.16318-1.0406-14.28218-2.82616.20575.14308,1.95585-2.23965.16318-.14308-1.96767-.08041-1.10445-.08159-1.12337,5.06463-.36894-.00118-.02128,2.23846-.16318.00236.02128,5.04334-.36894.08159,1.12574.08041,1.10209.14308,1.96767-2.23846.16318-.14308-1.95585-2.8037.20575Z"/><path class="cls-1" d="m207.32884,125.21201l-.33583,2.21836-1.48758-.22467-2.21954-.33583-1.4864-.22467.33583-2.21836,1.4864.22467,1.80922-11.96212-1.48758-.22467.33583-2.21836,1.4864.22467,2.22073.33583,1.4864.22467-.33583,2.21836-1.4864-.22467-1.80922,11.96212,1.48758.22467Z"/><path class="cls-1" d="m221.60274,114.1675l-4.68032,15.91166-2.15332-.63382,1.31612-4.47456-1.42964-8.34842-3.46235,11.77292-2.15332-.63382,4.0465-13.75952-1.44383-.42333.62791-2.13322,1.44264.42333.00591-.01892,2.53054.74261,1.28064,7.46628,1.91801-6.52501,2.15451.63382Z"/><path class="cls-1" d="m234.84906,123.19231l-7.45445,12.227-1.91683-1.17067,7.45445-12.22464-2.41939-1.47575-1.02049,1.67441-1.91683-1.16831,1.02641-1.68387.57588-.946.5877-.96255,4.33503,2.64406.01182-.01892,1.91683,1.16831-.01182.01892,4.31847,2.63223-.5877.96255-.57588.946-1.02641,1.68387-1.91683-1.16831,1.02049-1.67441-2.40047-1.46393Z"/><path class="cls-1" d="m247.35986,129.87104c.34529.31218.61017.66929.79582,1.07134s.28971.81829.31218,1.24872-.03784.85613-.17974,1.27473c-.14308.4186-.37012.80173-.68112,1.14702l-6.54984,7.26998c-.31218.34529-.66811.61253-1.07016.797-.40205.18683-.81829.29089-1.24872.31218-.43161.02365-.85613-.03784-1.27591-.17974-.4186-.14426-.80055-.3713-1.14584-.68112l-1.81395-1.63421c-.34529-.31218-.61135-.66693-.797-1.06898s-.28971-.81829-.31218-1.25108c-.02247-.43043.03784-.85376.18092-1.27473.14308-.4186.37012-.79937.68112-1.14466l6.54984-7.27235c.311-.34529.66811-.61017,1.07016-.797.40205-.18447.81829-.28853,1.24872-.31218.43161-.02128.85613.03784,1.27473.1821.41979.1419.80173.36894,1.14702.68112l1.81395,1.63184Zm-1.42136,3.24004c.20457-.22704.29917-.49428.28262-.80173-.01655-.30981-.13717-.56523-.36421-.76862l-1.81395-1.63421c-.22586-.20339-.4931-.29799-.80173-.28143-.30745.01419-.56405.13717-.76744.36184l-6.55102,7.27235c-.20339.22704-.29799.49428-.28143.80173.01537.30745.13717.56287.36421.76862l1.81277,1.63421c.22704.20339.49428.29799.80173.28143.30863-.01655.56405-.13717.76862-.36421l6.54984-7.26998Z"/><path class="cls-1" d="m263.79063,150.32821l-15.9897,6.00471-1.93338-2.8238,5.05872-5.07291-6.79462,2.53527-1.9322-2.8238,10.29599-10.34683-1.18131-1.72644,1.85297-1.27,2.23965,3.27551-9.998,10.01101,9.32752-3.50492,2.216-2.20417,1.29365,1.88963-9.16907,9.18089,13.40832-5.03034,1.30547,1.90618Z"/><path class="cls-1" d="m268.75475,163.33803l-15.53562,5.81078-.78636-2.10484,4.36814-1.63184,5.81906-6.15607-11.49267,4.29719-.78636-2.10248,13.43197-5.02324-.52621-1.40953,2.08237-.77808.52621,1.40953.02128-.00946.92353,2.47142-5.2018,5.5057,6.3701-2.38155.78636,2.10248Z"/></g><g><path class="cls-1" d="m156.66994,214.9124c-.77917.34669-.8797-.57048-1.60715-.76928-.54872,2.43415,2.24117,3.98504,1.80169,7.14655-3.60896-5.11454-5.3377-10.08561-5.69518-15.50617-.14043-2.1294-.59714-4.51577,1.83391-5.95874,3.12936-.23951,2.57958,2.28062,3.26358,3.86602-3.18688,1.94377-3.86394,4.88274-1.67999,7.58802.916,1.13464,1.99138,2.11059,2.02085,3.68071l.06229-.04712Z"/><path class="cls-1" d="m239.77263,214.9124c.77917.34669.8797-.57048,1.60715-.76928.54872,2.43415-2.24117,3.98504-1.80169,7.14655,3.60896-5.11454,5.3377-10.08561,5.69518-15.50617.14043-2.1294.59714-4.51577-1.83391-5.95874-3.12936-.23951-2.57958,2.28062-3.26358,3.86602,3.18688,1.94377,3.86394,4.88274,1.67999,7.58802-.916,1.13464-1.99138,2.11059-2.02085,3.68071l-.06229-.04712Z"/><path class="cls-1" d="m238.072,214.49476c.47639-10.66286,1.39375-21.23438,6.21395-31.12937,2.24948-4.61758,2.52002-9.63673,1.18727-14.48549-.28327-.95708-.78858-1.61765-.94959-1.36459-.49898.78428-.85248,1.99634-1.42366,3.37181-.15112-11.53245-2.17947-16.0705-8.94609-20.0114-.21936.83841-.43647,1.66785-.72617,2.77461-9.03236-11.98111-16.93974-16.56089-26.08282-15.2302.7345.78654,1.60169,2.2354.89934,3.61381-2.06391-1.94627-4.32788-3.64121-7.11812-4.40152-10.0986-2.7513-19.72821-1.15006-29.43797,2.98327,1.89895.91873,3.64452,1.3151,4.63656,3.09539-11.32079-.34236-17.17133,1.7721-21.99233,7.82384,2.07486.47732,4.1539.95558,6.51427,1.49856-3.06915,2.64768-6.67038,3.3472-10.08315,4.61821,1.58447,5.75127,2.69979,11.4123,4.72975,16.83427.14526.55604.11701.78351.14601,1.23759.03165.49553-.7481.85168-1.06747.48262-1.76778-.3797-2.37141-1.56098-3.4127-2.95673-.39479,4.94986.05939,7.59927,2.31933,12.90566.99059,2.32564,1.82025,4.66907,2.35409,7.1555,1.87545,8.73359,2.94813,17.52434,2.62045,26.46392-.07017,1.91777-.15804,3.89964.23449,5.75646.97305,4.60278.85396,9.17453-.29211,13.66046-1.05368,4.12467-.90948,8.25155-.4949,12.35449.38014,3.7609.52676,7.65675,2.30822,10.77309,1.07026.45873.8657-1.32691,1.90844-.42677.71184,12.46236,7.15304,22.24113,16.00467,24.41323.39173-.34787.08868-1.28613,1.12289-1.00755,1.85147,1.21006,3.49372,3.02862,5.74593,3.4113,10.32086,1.75415,20.67116,3.23917,30.48103-2.12816.56185-.3074,1.0936-.50755,1.69713-.44519,4.52551.46787,7.37675-2.20501,9.87022-5.2519,4.54788-5.55741,7.83946-11.6282,7.04135-19.10196-.04329-.40629.02623-.59338.3663-.57653.82869.19842.64676.22333,2.03929,1.31794,2.30533-7.3303,2.96857-14.84469,1.75523-22.37956-.61898-3.84294-1.16023-7.66163-.71941-11.47513.54672-4.7297.33943-9.45295.55026-14.17399Zm-74.80577-23.45388c1.2885-3.79334,2.51117-7.5125,2.67372-11.60206.14855-3.7409,1.81011-6.95172,5.2887-9.34713.04056-.02.07902-.07638.11845-.10787,1.87658-1.49951,4.18046-.37007,4.18046-.37007,0,0-2.18897-3.46137-7.35052-7.04275,0,0,1.09853.13016,2.29824.65763,1.92469.84621,7.27938,5.06009,7.27938,5.06009,8.78853,4.84939,16.06953,5.87756,22.88105,5.53804-.01738-.10157-.05408-.19197-.07532-.29118-.00821-.00394-.01529-.01024-.0235-.01433-.54607-1.60691-3.81785-9.78696-16.01513-18.24087.00547-.01795.00579-.03716.01175-.05496,9.79683,4.14357,16.53931,13.35337,18.87683,16.86561.30482.43086.60514.86078.92252,1.28817,3.72885-.15023,7.22804-.88959,10.72578-1.90879l.00016.00031,3.48631-1.09479s-2.95279-9.97011-7.37482-13.5603c0,0,.47896-.00079.94263.30866,4.93913,3.29681,9.0264,12.51417,9.0264,12.51417,0,0,3.74092-.05842,4.98436.9814,1.26806.96093,2.11236,2.03352,2.7426,3.11634.9161-.96447.97946-1.07297,1.78735-2.04948,1.04551-.94551,1.40985-1.11601,2.22556-1.31426.58164,1.37573-.6428,2.21257-1.12402,3.27098-2.1019,4.48514-1.23185,8.93091.14179,13.38849.98142,3.18468,2.47448,6.24323,2.95891,9.87893-2.80553.09512-5.28709-.00945-7.45401-.91337-4.54869-1.89777-9.05666-1.9658-13.74006-.7707-2.47963.63275-5.02314,1.02235-7.5245,1.57904-1.7158.38173-3.8523.23732-3.51609,2.60989-3.08654.91479-5.61332.91007-8.44782.08252-.65455-1.42754-1.78211-2.46894-3.78422-2.75886-3.5766-.51779-7.0811-1.49321-10.64419-2.1236-3.01701-.53385-6.0654-.42803-8.91841.77983-2.69722,1.14188-5.50372,1.39053-8.49465,1.55935-1.00637-2.23367.3148-4.09034.93427-5.9141Zm67.59494,13.64723c-.01191.14756-.02028.29637-.04812.44141-2.0071,10.45656-3.00848,11.2175-12.92891,11.61592-8.40839.33763-11.98708-2.27619-14.57872-10.21515-.71233-2.18233-.58164-4.06656,1.79836-5.97725,3.06095.56409,5.81401-.8696,8.66509-1.68722,4.36522-1.25195,8.663-1.05432,12.96512.02551,3.4435.86408,4.4069,2.3206,4.12718,5.79678Zm-36.97743-.6918c-4.15132,13.86329-9.13938,14.10565-22.48594,11.86646-1.80271-.30236-2.97355-1.58675-3.58111-3.1261-1.46972-3.72373-2.82275-7.51014-1.66011-12.02378,8.36139-5.56198,16.90626-1.24392,25.8501.36677-.07854-.07008.33605.17496.567.53354.47655.74015.85508,1.54077,1.31006,2.38312Zm9.19089,43.22181h-9.74259c-1.48275,1.98659-2.52276,4.82057-5.7292,5.48591-3.04598.63212-5.97656.6181-9.03107-.75826.56539-2.53713,1.47117-4.81773,2.96132-6.99865,5.31815-2.37068,11.34847-2.82784,16.63861-5.58434,5.37464,2.60926,11.33929,3.2609,16.80857,5.55993,1.41516,2.13761,2.42651,4.37648,2.85108,6.8344-6.93513,2.80422-10.69038,1.64124-14.75673-4.539Zm21.17201,2.94264c.10027.11779-.11974-.02063-.14501-.1874-1.66735-10.99262-10.36399-14.33966-19.51528-17.17584-.86249-.26724-1.84696-.45637-2.65071.06488-2.95118,1.91399-5.75285,1.12455-8.31005-.35007-2.68032.29433-4.87781,1.33746-7.13373,2.16312-6.98905,2.55839-12.67012,6.36779-13.58459,14.29305-5.8845-5.60922-7.54091-12.71149-8.50383-20.27029-.68706-5.39426-2.92157-10.53561-3.62118-15.99035-.39318-3.06563-.36244-6.08795-.14533-10.03247,2.31788,2.13698,2.72941,4.24892,3.38734,6.2237,2.86251,8.59233,3.00832,8.31045,12.29513,9.48397,8.89121,1.12345,15.0432-1.54581,18.31836-9.91688.58213-1.48801,1.22831-3.07492,3.11872-3.62988,2.03993-.27071,2.84319,1.12912,3.64066,2.62422,1.25695,2.35619,2.44985,4.74514,4.09049,6.89456,2.04347,2.67713,4.64348,4.11491,8.11741,4.07302,3.48261-.0422,6.94881-.34094,10.41758-.48834,4.18367-.17764,6.29909-2.18155,7.34296-5.89804.59806-2.12895,1.45169-4.19255,2.25479-6.2615.36099-.93007.581-1.98816,2.7616-3.14437-1.67814,17.01222-3.55745,33.11848-12.13531,47.52491Z"/></g></g></g></svg>