<?xml version="1.0" encoding="UTF-8"?><svg xmlns="http://www.w3.org/2000/svg" viewBox="0 0 400 400"><defs><style>.cls-1{fill:#fff;}.cls-2{fill:#383838;}</style></defs><g id="Layer_1"><rect class="cls-2" width="400" height="400"/></g><g id="Layer_2"><g><g><path class="cls-1" d="m237.69972,241.06075l-.20615.0342-.11723.17236c-17.61503,25.98684-46.7738,42.36305-77.99905,43.80726-54.9499,2.54151-101.7225-40.09621-104.26399-95.04563-2.54149-54.94942,40.09573-101.72248,95.04563-104.26399,20.83923-.96384,41.12578,4.52891,58.66617,15.8835l.13103.085,8.26679-.38235-1.12415-.81307c-19.12507-13.83949-42.62531-20.86156-66.17107-19.77253-57.7066,2.66901-102.48333,51.78809-99.81432,109.49469,2.66901,57.7066,51.78854,102.48284,109.49514,99.81382,33.06271-1.5292,63.40244-18.65572,81.93528-46.04625.74181-1.09635,2.79898-4.35086,2.79898-4.35086,0,0-4.62228,1.05419-6.64306,1.38383Z"/><g><path class="cls-1" d="m162.70015,118.5767c7.43267.91789,13.52209,2.91038,18.29064,5.98867,4.76855,3.0671,8.37295,7.06328,10.802,11.96615,2.42905,4.90288,3.7835,10.6117,4.06334,17.12649.26865,6.50359-.32462,13.65641-1.791,21.45848-1.37684,7.33193-3.43649,14.29446-6.19016,20.89879-2.75367,6.60433-5.83196,12.61539-9.21248,18.02199-3.40291,5.4066-6.97373,10.06321-10.73484,13.95864-3.76111,3.90663-7.3767,6.71627-10.86916,8.4625,4.58945,1.92533,8.11549,3.52604,10.58932,4.81333,2.48502,1.28728,3.49246,2.97755,3.03351,5.09317-.19029.7276-.5485,1.53355-1.10818,2.40666-.5485.87311-1.23132,1.66787-2.05966,2.40666-.82834.7276-1.71265,1.30967-2.67531,1.71265-.96267.41417-1.95891.57088-2.96635.48133-.7276-.1791-1.27609-.3582-1.64549-.5485l-9.77217-6.19016c-4.20886-2.38428-8.01475-4.07454-11.40646-5.08198-3.40291-1.00744-6.8394-1.74623-10.32067-2.20517-2.38428-.27984-4.61184-.41417-6.67149-.41417s-3.73872-.08955-5.02601-.26865c-1.82459-.19029-3.22381-.62685-4.18647-1.30967-.96267-.69401-1.22012-2.08204-.76118-4.19767.27984-1.00744.98505-1.791,2.13801-2.3395,1.14177-.5485,2.49621-.91789,4.05215-1.09699,1.55594-.1791,3.14545-.25746,4.74616-.21268,1.60071.05597,2.95516.12313,4.06334.21268-1.28728-2.01488-2.20517-3.85066-2.75367-5.50734-.5485-1.64549-.94028-3.26858-1.17535-4.88049-.22388-1.60071-.39178-3.21262-.48133-4.81333s-.26865-3.4141-.5485-5.42898c-4.48871-.91789-8.22743-2.55218-11.20497-4.89168-2.98874-2.32831-5.29466-5.19391-6.95134-8.59682-1.64549-3.39172-2.60815-7.16402-2.888-11.3393-.27984-4.17528,0-8.59682.82834-13.27582,1.27609-6.51478,3.54843-12.90643,6.80582-19.18614,3.25739-6.27971,7.39909-11.89899,12.44748-16.85783,5.0484-4.94765,10.89155-8.95502,17.54065-12.03331,6.64911-3.0671,14.00342-4.60064,22.07414-4.60064l1.92533.26865Zm-17.87647,110.72888c2.83203.36939,5.88793-1.02983,9.14532-4.19767,3.2462-3.15665,6.39165-7.44386,9.42516-12.86165,3.02232-5.4066,5.77599-11.61914,8.24982-18.63765,2.47383-7.00731,4.44393-14.18252,5.91032-21.52564,1.10818-5.95509,1.72384-11.68631,1.85817-17.19365.13433-5.49615-.43656-10.45499-1.72384-14.85415-1.27609-4.39916-3.34694-8.02594-6.17897-10.86916-2.84322-2.83203-6.6603-4.53348-11.41766-5.08198-4.679.08955-9.33561,1.81339-13.96984,5.14914-4.62303,3.35813-8.91025,7.62296-12.86165,12.79449-3.94021,5.18272-7.33193,10.91394-10.17515,17.19365-2.84322,6.27971-4.8581,12.44748-6.05584,18.50332-2.10443,10.63409-.26865,18.20109,5.50734,22.70099,1.92533-8.80951,4.15289-16.62276,6.67149-23.46217,2.5186-6.82821,5.47376-12.71614,8.87667-17.67498.5485-.81715,1.41042-1.38803,2.60815-1.71265,1.18654-.32462,2.56338-.39178,4.13051-.21268,1.09699.19029,2.21637.45895,3.36933.82834,1.14177.36939,2.14921.82834,3.02232,1.37684s1.55594,1.19773,2.05966,1.92533c.50372.73879.67163,1.55594.48133,2.47383-.1791.73879-.83953,2.07085-1.99249,3.99618-1.14177,1.92533-2.47383,4.48871-3.98499,7.70132-1.51116,3.21262-3.10068,7.02969-4.74616,11.48482-1.65668,4.44393-3.02232,9.46994-4.13051,15.05564,1.55594-.1791,2.84322-.7276,3.85066-1.64549s1.90294-1.85817,2.68651-2.82083c.77237-.96267,1.57832-1.81339,2.40666-2.54099.82834-.73879,1.83578-1.06341,3.02232-.96267,1.37684.1791,2.68651.68282,3.92902,1.51116,1.23132.81715,1.75742,1.83578,1.57832,3.02232-.5485,1.55594-1.48877,2.97755-2.82083,4.26483-1.33206,1.28728-2.84322,2.40666-4.54468,3.36933-1.69026.96267-3.48127,1.74623-5.36182,2.3395-1.88056.59327-3.63798.94028-5.29466,1.02983-.08955,1.28728-.08955,3.01113,0,5.16033.08955,2.14921.36939,4.26483.82834,6.32449s1.14177,3.87305,2.05966,5.44018c.91789,1.55594,2.11562,2.42905,3.58201,2.60815Z"/><path class="cls-1" d="m204.34327,234.58329c-1.0994,3.61672-2.08578,6.80189-2.96941,9.53498s-1.87001,5.00381-2.95913,6.81217c-1.0994,1.80836-2.34265,3.11325-3.72974,3.91468s-3.1338,1.07885-5.24013.82198c-2.52759-.33907-4.20238-1.2638-5.04491-2.77419-.84253-1.52066-1.0583-3.28792-.63704-5.30178.33907-1.68506.92473-3.93523,1.76726-6.76079.84253-2.81529,1.82891-5.92854,2.96941-9.33976,1.13022-3.41122,2.33237-6.96629,3.59617-10.6652,1.2638-3.70919,2.44539-7.28481,3.53452-10.73713,1.34599-4.03798,2.46594-7.5725,3.34957-10.60356s1.64396-5.76414,2.27072-8.20954c.62676-2.43512,1.15077-4.66474,1.58231-6.68887.41099-2.02413.83226-4.03798,1.25352-6.06211.84253-4.29485,1.52066-8.15816,2.02413-11.61048.50346-3.45232.96583-6.64777,1.38709-9.59663.42127-2.18852,1.60286-3.67837,3.53452-4.4798,1.94193-.80143,3.99688-1.07885,6.18541-.82198,1.76726.24659,3.18518.80143,4.2332,1.64396s1.53094,1.84946,1.44874,3.02078c-.32879,2.3632-.70896,4.81886-1.13022,7.38755s-.88363,5.28123-1.38709,8.14789c-.76033,3.95578-1.66451,8.16844-2.72281,12.62768-1.04803,4.45925-2.16797,9.17536-3.3393,14.13807,3.61672-5.05518,7.67525-9.82267,12.18587-14.33329,4.50035-4.50035,9.65828-8.81575,15.46352-12.93593.58566-.50346,1.2638-.67813,2.01385-.50346.935.0822,1.62341.66786,2.08578,1.76726.46236,1.08912.57539,2.35292.31852,3.78111-.25687,1.2638-.96583,2.3632-2.14743,3.28792-5.04491,3.87359-9.59663,7.97322-13.63461,12.30917s-7.68552,8.81575-10.92207,13.43939c-3.23655,4.63392-6.12376,9.37058-8.65135,14.21-2.51732,4.83941-4.75722,9.69938-6.68887,14.57989Zm14.51824-90.15077c-1.68506-.24659-3.07215-1.36654-4.16128-3.3393-1.0994-1.98303-1.94193-4.2743-2.52759-6.88409-.59594-2.60979-.92473-5.19903-1.00693-7.76772-.09247-2.55842,0-4.5209.24659-5.86689.50346-2.60979,1.87001-4.45925,4.10991-5.55865,2.21935-1.08912,4.5209-1.51039,6.87382-1.25352,3.37012.42127,5.51755,1.51039,6.44228,3.27765.92473,1.76726,1.00693,4.54145.24659,8.33283-.32879,1.84946-.83226,3.81194-1.51039,5.86689-.67813,2.06523-1.46929,4.02771-2.39402,5.87716-.935,1.84946-1.94193,3.45232-3.03106,4.79831-1.0994,1.34599-2.18852,2.18852-3.28792,2.51732Z"/><path class="cls-1" d="m255.71642,164.51224c6.7329-6.25338,13.38751-9.02287,19.96384-8.29869,6.81119.80247,11.78258,4.53101,14.90437,11.18562,4.33528-1.68323,7.89746-2.32911,10.7061-1.92788,2.72056.40123,4.7463,1.40921,6.07723,3.00436,1.32114,1.60494,1.82023,3.09244,1.49729,4.45272-.15658.88076-.44038,1.24285-.84161,1.08627-.23487,0-.53824-.10765-.90033-.30337s-.7829-.34252-1.26242-.42081c-1.12541-.15658-2.4074-.01957-3.84597.42081-1.44836.44038-2.82821.99819-4.14935,1.68323-1.32114.68503-2.46612,1.419-3.42517,2.22147-.96883.80247-1.52665,1.4875-1.68323,2.04531.07829,1.60494.01957,3.34688-.18594,5.23561-.19572,1.87895-.4991,3.86555-.90033,5.95001-.95905,4.80502-2.34869,9.86448-4.14935,15.14903-1.80066,5.29433-4.03191,10.08957-6.67418,14.37592s-5.69557,7.73109-9.14031,10.33422c-3.44474,2.61291-7.29071,3.66982-11.53792,3.1903-4.8931-.64589-8.25955-2.52484-10.10914-5.64663-1.8398-3.13158-2.28018-7.05585-1.32114-11.79236.88076-4.88331,2.32911-9.33603,4.33528-13.34837,1.99638-4.00255,4.3255-7.6528,6.96777-10.94097,2.65206-3.28816,5.47048-6.29252,8.48463-9.01308,3.00436-2.73035,5.95001-5.21604,8.83693-7.45708.07829-.96883.07829-2.00617,0-3.13158-.07829-1.11563-.30337-2.18232-.66546-3.18051-.36209-1.00798-.80247-1.86916-1.32114-2.59334-.51867-.71439-1.14498-1.11563-1.85938-1.2037-2.25082.08808-4.394.92969-6.43932,2.53462-2.04531,1.59515-3.94384,3.70897-5.71514,6.3121-1.76151,2.60313-3.4056,5.5292-4.92246,8.77822-1.52665,3.23923-2.86735,6.50782-4.03191,9.79598s-2.14318,6.45889-2.94564,9.50239-1.39943,5.64663-1.80066,7.81917l-.24465,1.556c-.47952,1.7713-1.58536,3.01415-3.30773,3.72854-1.72237.72418-3.74811.92969-6.06744.60674-2.32911-.32294-4.09063-.93947-5.29433-1.86916-1.2037-.9199-1.72237-1.93767-1.56579-3.06308,1.2037-5.37262,2.44655-11.03883,3.72854-17.01819,1.28199-5.96958,2.58356-12.00766,3.90469-18.09467,1.33092-6.0968,2.63249-12.10552,3.91448-18.03596,1.28199-5.94022,2.52484-11.50856,3.72854-16.71482,1.2037-5.21604,2.29976-9.9232,3.30773-14.13126.99819-4.20806,1.89852-7.68216,2.70099-10.40272,1.04712-2.4074,3.65025-3.36645,7.81917-2.88693,2.08446.24465,3.96341.90033,5.64663,1.9866,1.68323,1.07648,2.36826,2.42698,2.04531,4.02213-1.68323,5.13775-3.10222,9.54154-4.26678,13.23093-1.16456,3.6894-2.18232,7.13414-3.06308,10.34401-.88076,3.20987-1.7028,6.42953-2.46612,9.67855-.76332,3.24902-1.58536,6.99713-2.46612,11.24434Zm12.14467,37.39305c-1.76151,3.13158-3.24902,6.13594-4.45272,9.02287-1.2037,2.88693-2.08446,5.73471-2.64227,8.54335-.47952,2.39762-.62632,4.10042-.42081,5.10839.19572.99819.4991,1.54622.90033,1.62451.64589.07829,1.39943-.42081,2.28997-1.50707.88076-1.08627,1.78109-2.50527,2.70099-4.26678.9199-1.76151,1.86916-3.78726,2.82821-6.07723.95905-2.28018,1.8398-4.55058,2.64227-6.79162s1.50707-4.394,2.10403-6.42953c.60674-2.04531,1.0667-3.74811,1.38964-5.11818.31316-1.8398.19572-2.79885-.36209-2.88693-.47952-.07829-1.37007.68503-2.65206,2.28997-1.28199,1.60494-2.72056,3.76768-4.3255,6.48825Z"/><path class="cls-1" d="m325.72905,150.23506c-.36321,1.07861-.90251,2.83961-1.61792,5.27199-.72641,2.43238-1.54087,5.30501-2.44339,8.59587s-1.80502,6.86789-2.69653,10.74209c-.90251,3.8852-1.761,7.84745-2.57546,11.90875-1.71697,8.73895-2.66351,15.68389-2.83961,20.82381-.1761,5.13991.58333,8.38675,2.3003,9.74052.99056-.1761,2.13521-.85849,3.44495-2.02515,1.30974-1.17767,2.68552-2.83961,4.12734-5.00784,3.07074-4.60061,5.48111-8.66191,7.24211-12.1729,1.74999-3.522,3.19181-6.44966,4.32545-8.79399,1.12264-2.34433,2.13521-4.07231,3.03772-5.20595.90251-1.12264,2.03615-1.5959,3.37892-1.4198,2.08018.27516,2.89464,1.67295,2.44339,4.19338-.27516,1.71697-1.02358,4.08331-2.23427,7.09902-1.22169,3.02672-2.75156,6.29557-4.60061,9.80656-1.84905,3.522-3.89621,7.07701-6.15249,10.68706-2.25628,3.61005-4.60061,6.8789-7.03299,9.80656s-4.86476,5.27199-7.30814,7.03299c-2.43238,1.74999-4.73268,2.58647-6.88991,2.49842-3.43395-.71541-5.97639-2.6415-7.64934-5.74526-1.66194-3.11477-2.69653-6.98896-3.10376-11.6336-.40723-4.64463-.31918-9.85058.26415-15.61785.59434-5.76727,1.4198-11.6336,2.50942-17.58797.80346-4.32545,1.66194-8.17764,2.56445-11.55655.90251-3.38992,1.73899-6.44966,2.50942-9.20122.75943-2.75156,1.46383-5.22796,2.09119-7.44022.62736-2.20125,1.12264-4.25941,1.48584-6.15249-1.35377-.08805-2.70753-.06604-4.0503.06604-1.35377.14308-2.61949.31918-3.79715.53931-1.16666.23113-2.20125.40723-3.10376.55031-.90251.13207-1.5849.19811-2.02515.19811-1.26572-.1761-2.16823-.96855-2.70753-2.36634s-.72641-2.86162-.53931-4.39149c.26415-1.35377,1.10062-2.44339,2.49842-3.24684,1.39779-.81446,3.05973-1.44182,5.00784-1.89307,1.9371-.45126,4.00627-.74842,6.21853-.8805,2.20125-.13207,4.21539-.20912,6.02041-.20912.71541-2.15722,1.39779-4.30344,2.02515-6.41664.62736-2.1242,1.24371-4.12734,1.82704-6.02041s1.12264-3.58803,1.61792-5.07388.96855-2.68552,1.4198-3.58803c.45126-1.07861,1.28773-1.74999,2.50942-2.02515,1.21069-.26415,2.63049-.30817,4.25941-.13207,2.15722.26415,4.09432,1.01257,5.81129,2.23427,1.71697,1.21069,2.38835,2.71854,2.02515,4.52356-.08805.63836-.33019,1.60691-.73742,2.90565-.40723,1.30974-.8805,2.77357-1.4198,4.4025-.53931,1.61792-1.13364,3.37892-1.761,5.27199s-1.26572,3.74212-1.89307,5.54714c1.44182.26415,3.3569.67138,5.74526,1.21069,2.38835.55031,4.71067,1.22169,6.96695,2.03615,2.25628.80346,4.17136,1.78301,5.74526,2.90565,1.5849,1.12264,2.23427,2.41037,1.97012,3.85218-.18711.90251-.55031,1.87106-1.08962,2.90565-.53931,1.04559-1.16666,1.99213-1.89307,2.83961-.71541.85849-1.48584,1.54087-2.3003,2.03615-.80346.49528-1.57389.69339-2.3003.60534-.3522,0-.62736-.08805-.80346-.27516-1.00157-.62736-2.14622-1.29874-3.45596-2.02515-1.29874-.71541-2.67452-1.39779-4.11633-2.02515-1.45282-.62736-2.89464-1.19968-4.33646-1.69496s-2.75156-.82547-3.91822-1.01257Z"/></g><g><path class="cls-1" d="m255.42744,279.43566c7.75222-11.83087,11.92864-18.27359,12.52927-19.32817s.90093-2.06377.90093-3.02756c0-.47491-.05587-.95681-.16762-1.44568-.3492-1.53648-1.18029-2.71677-2.49328-3.54088-.93585-.55872-1.90663-.83808-2.91232-.83808-.44697,0-.89395.04889-1.34092.14666-1.50854.3492-2.67487,1.18029-3.49898,2.49328-.46094.72633-.7403,1.44568-.83808,2.15805l-1.71806-.25142c.08381-.93585.42602-1.87171,1.02665-2.80756,1.11744-1.746,2.6609-2.84248,4.63038-3.28946.60062-.13968,1.18728-.20952,1.75996-.20952,1.36886,0,2.6609.38412,3.87611,1.15236,1.73203,1.0895,2.82153,2.61899,3.2685,4.58848.16762.72633.25142,1.41775.25142,2.07424,0,1.15934-.33174,2.33614-.99522,3.5304s-4.31959,6.83383-10.96835,16.9187h11.96356v1.67616h-15.27397Z"/><path class="cls-1" d="m295.65519,264.87405c0,4.67927-.98823,8.36332-2.9647,11.05215s-4.36848,4.03325-7.17604,4.03325-5.20656-1.34442-7.197-4.03325-2.98565-6.37289-2.98565-11.05215c0-4.6653.99522-8.34237,2.98565-11.0312,1.99044-2.68883,4.38943-4.03325,7.197-4.03325s5.19958,1.34442,7.17604,4.03325,2.9647,6.3659,2.9647,11.0312Zm-1.75996,0c0-4.19039-.82062-7.45191-2.46185-9.78456-1.64124-2.33265-3.6212-3.49898-5.93988-3.49898s-4.29864,1.16633-5.93988,3.49898c-1.64124,2.33265-2.46185,5.59417-2.46185,9.78456,0,4.20436.82062,7.47286,2.46185,9.80551,1.64124,2.33265,3.6212,3.49898,5.93988,3.49898s4.29864-1.16633,5.93988-3.49898,2.46185-5.60115,2.46185-9.80551Z"/><path class="cls-1" d="m300.26462,279.43566c7.75222-11.83087,11.92864-18.27359,12.52927-19.32817.60062-1.05458.90093-2.06377.90093-3.02756,0-.47491-.05587-.95681-.16762-1.44568-.3492-1.53648-1.18029-2.71677-2.49328-3.54088-.93585-.55872-1.90663-.83808-2.91232-.83808-.44697,0-.89395.04889-1.34092.14666-1.50854.3492-2.67487,1.18029-3.49898,2.49328-.46094.72633-.7403,1.44568-.83808,2.15805l-1.71806-.25142c.08381-.93585.42602-1.87171,1.02665-2.80756,1.11744-1.746,2.6609-2.84248,4.63038-3.28946.60062-.13968,1.18728-.20952,1.75996-.20952,1.36886,0,2.6609.38412,3.87611,1.15236,1.73203,1.0895,2.82153,2.61899,3.2685,4.58848.16762.72633.25142,1.41775.25142,2.07424,0,1.15934-.33174,2.33614-.99522,3.5304s-4.31959,6.83383-10.96835,16.9187h11.96356v1.67616h-15.27397Z"/><path class="cls-1" d="m329.5764,277.7595v-24.63949l-3.07994,2.01139-1.29902-.94284,6.03416-4.37896v27.9499h6.43225v1.67616h-14.66637v-1.67616h6.57891Z"/></g></g><g><path class="cls-1" d="m55.10737,307.06365c-1.1685-.38692-2.09131-.91894-2.76843-1.59605s-1.01567-1.49932-1.01567-2.46663c0-.94409.33856-1.75663,1.01567-2.43761s1.49932-1.02147,2.46663-1.02147c.95183,0,1.7721.34049,2.46082,1.02147.37145.36371.63068.76997.77771,1.2188l-.83575.32501c-.12382-.33275-.32501-.63842-.6036-.91701-.49526-.49526-1.09499-.74289-1.79919-.74289s-1.30586.24763-1.80499.74289-.74869,1.09886-.74869,1.8108c0,.7042.24763,1.3078.74289,1.8108.46431.45657,1.1066.87444,1.92687,1.25363,1.31553.42561,2.42213,1.08725,3.31979,1.98491.94409.94409,1.41613,2.08551,1.41613,3.42426,0,1.34649-.47398,2.49565-1.42194,3.44748s-2.09131,1.42774-3.43006,1.42774c-1.34649,0-2.49178-.47978-3.43587-1.43935-.76611-.75837-1.22267-1.64055-1.3697-2.64655l.87057-.31341c.09286.88992.47204,1.66376,1.13755,2.32153.77384.77384,1.70633,1.16077,2.79745,1.16077s2.0236-.38692,2.79745-1.16077,1.16077-1.70633,1.16077-2.79745c0-1.08338-.38692-2.01199-1.16077-2.78584-.68098-.68098-1.51287-1.22267-2.49565-1.62507Z"/><path class="cls-1" d="m62.722,306.07699v-4.28323h.91701v4.28323h2.05456v.92861h-2.05456v9.14684h-.91701v-9.14684h-2.05456v-.92861h2.05456Z"/><path class="cls-1" d="m71.23041,316.29174c-1.26137,0-2.26349-.37145-3.00638-1.11434s-1.12594-1.68311-1.14916-2.82066v-6.29135h.92861v6.2101c0,.85123.30954,1.57864.92861,2.18224.61134.61134,1.37357.91701,2.28671.91701.85123,0,1.58445-.30373,2.19965-.9112s.92281-1.33682.92281-2.18804v-6.2101h.92861v6.29135c-.02322,1.13755-.40627,2.07777-1.14916,2.82066s-1.70633,1.11434-2.89031,1.11434Z"/><path class="cls-1" d="m88.27046,316.15244h-.92861v-2.05456c-.17798.23989-.37145.46818-.58038.68485-1.09886,1.1066-2.42987,1.6599-3.99304,1.6599-1.54769,0-2.8729-.55136-3.97562-1.65409s-1.65409-2.42794-1.65409-3.97562c0-1.56317.55136-2.89418,1.65409-3.99304s2.42794-1.64829,3.97562-1.64829c1.56317,0,2.89418.54943,3.99304,1.64829.20894.21668.4024.44496.58038.68485v-7.76553h.92861v16.41323Zm-.92861-4.43413v-1.8224c-.17025-.9054-.59586-1.69859-1.27684-2.37957-.91314-.91314-2.01199-1.3697-3.29658-1.3697s-2.38151.45657-3.29077,1.3697-1.3639,2.01199-1.3639,3.29658.45463,2.37957,1.3639,3.28497,2.00619,1.3581,3.29077,1.3581,2.38344-.45657,3.29658-1.3697c.68098-.68098,1.1066-1.4703,1.27684-2.36796Z"/><path class="cls-1" d="m90.91701,310.29058c-.02322.16251-.03482.33662-.03482.52234,0,1.28458.45463,2.37957,1.3639,3.28497s2.00619,1.3581,3.29077,1.3581,2.38344-.45657,3.29658-1.3697c.15477-.15477.3018-.31728.44109-.48752l.98665.34823c-.11608.19346-.35984.47204-.73128.83575-1.09886,1.1066-2.42987,1.6599-3.99304,1.6599-1.54769,0-2.8729-.55136-3.97562-1.65409s-1.65409-2.42794-1.65409-3.97562c0-1.56317.55136-2.89418,1.65409-3.99304s2.42794-1.64829,3.97562-1.64829c1.56317,0,2.89418.54943,3.99304,1.64829.96731.97504,1.45096,2.13194,1.45096,3.47069h-10.06384Zm.17411-.94022h8.84504c-.21668-.7042-.58425-1.31553-1.10273-1.83401-.91314-.91314-2.01199-1.3697-3.29658-1.3697s-2.38344.45657-3.29658,1.3697c-.54169.54943-.92474,1.16077-1.14916,1.83401Z"/><path class="cls-1" d="m103.47649,308.32888v7.82356h-.92861v-10.07545h.92861v.65003c.83575-.83575,1.8108-1.25363,2.92513-1.25363,1.19172,0,2.16096.37338,2.90772,1.12014s1.12788,1.68505,1.14335,2.81486v6.74405h-.91701v-6.65119c0-.85897-.30954-1.59025-.92861-2.19385s-1.35423-.9054-2.20546-.9054c-.84349,0-1.57477.29793-2.19385.89379-.33275.33275-.57651.67711-.73128,1.03308Z"/><path class="cls-1" d="m114.02786,306.07699v-4.28323h.91701v4.28323h2.05456v.92861h-2.05456v9.14684h-.91701v-9.14684h-2.05456v-.92861h2.05456Z"/><path class="cls-1" d="m118.98433,310.29058c-.02322.16251-.03482.33662-.03482.52234,0,1.28458.45463,2.37957,1.3639,3.28497s2.00619,1.3581,3.29077,1.3581,2.38344-.45657,3.29658-1.3697c.15477-.15477.3018-.31728.44109-.48752l.98665.34823c-.11608.19346-.35984.47204-.73128.83575-1.09886,1.1066-2.42987,1.6599-3.99304,1.6599-1.54769,0-2.8729-.55136-3.97562-1.65409s-1.65409-2.42794-1.65409-3.97562c0-1.56317.55136-2.89418,1.65409-3.99304s2.42794-1.64829,3.97562-1.64829c1.56317,0,2.89418.54943,3.99304,1.64829.96731.97504,1.45096,2.13194,1.45096,3.47069h-10.06384Zm.17411-.94022h8.84504c-.21668-.7042-.58425-1.31553-1.10273-1.83401-.91314-.91314-2.01199-1.3697-3.29658-1.3697s-2.38344.45657-3.29658,1.3697c-.54169.54943-.92474,1.16077-1.14916,1.83401Z"/><path class="cls-1" d="m131.54382,308.32888v7.82356h-.92861v-10.07545h.92861v.65003c.83575-.83575,1.8108-1.25363,2.92513-1.25363,1.19172,0,2.16096.37338,2.90772,1.12014s1.12788,1.68505,1.14335,2.81486v6.74405h-.91701v-6.65119c0-.85897-.30954-1.59025-.92861-2.19385s-1.35423-.9054-2.20546-.9054c-.84349,0-1.57477.29793-2.19385.89379-.33275.33275-.57651.67711-.73128,1.03308Z"/><path class="cls-1" d="m147.79454,316.46585c0,.83575-.28245,1.52447-.84736,2.06616s-1.26137.81254-2.08938.81254v-.84736c.56491,0,1.04469-.19346,1.43935-.58038.37918-.37918.56878-.90153.56878-1.56703v-16.61056h.92861v16.72664Z"/><path class="cls-1" d="m150.73128,310.29058c-.02322.16251-.03482.33662-.03482.52234,0,1.28458.45463,2.37957,1.3639,3.28497s2.00619,1.3581,3.29077,1.3581,2.38344-.45657,3.29658-1.3697c.15477-.15477.3018-.31728.44109-.48752l.98665.34823c-.11608.19346-.35984.47204-.73128.83575-1.09886,1.1066-2.42987,1.6599-3.99304,1.6599-1.54769,0-2.8729-.55136-3.97562-1.65409s-1.65409-2.42794-1.65409-3.97562c0-1.56317.55136-2.89418,1.65409-3.99304s2.42794-1.64829,3.97562-1.64829c1.56317,0,2.89418.54943,3.99304,1.64829.96731.97504,1.45096,2.13194,1.45096,3.47069h-10.06384Zm.17411-.94022h8.84504c-.21668-.7042-.58425-1.31553-1.10273-1.83401-.91314-.91314-2.01199-1.3697-3.29658-1.3697s-2.38344.45657-3.29658,1.3697c-.54169.54943-.92474,1.16077-1.14916,1.83401Z"/><path class="cls-1" d="m166.37841,316.29174c-1.26137,0-2.26349-.37145-3.00638-1.11434s-1.12594-1.68311-1.14916-2.82066v-6.29135h.92861v6.2101c0,.85123.30954,1.57864.92861,2.18224.61134.61134,1.37357.91701,2.28671.91701.85123,0,1.58445-.30373,2.19965-.9112s.92281-1.33682.92281-2.18804v-6.2101h.92861v6.29135c-.02322,1.13755-.40627,2.07777-1.14916,2.82066s-1.70633,1.11434-2.89031,1.11434Z"/><path class="cls-1" d="m189.31515,316.15244h-.92861v-2.05456c-.17798.23989-.37145.46818-.58038.68485-1.09886,1.1066-2.42987,1.6599-3.99304,1.6599-1.54769,0-2.8729-.55136-3.97562-1.65409s-1.65409-2.42794-1.65409-3.97562c0-1.56317.55136-2.89418,1.65409-3.99304s2.42794-1.64829,3.97562-1.64829c1.56317,0,2.89418.54943,3.99304,1.64829.20894.21668.4024.44496.58038.68485v-7.76553h.92861v16.41323Zm-.92861-4.43413v-1.8224c-.17025-.9054-.59586-1.69859-1.27684-2.37957-.91314-.91314-2.01199-1.3697-3.29658-1.3697s-2.38151.45657-3.29077,1.3697-1.3639,2.01199-1.3639,3.29658.45463,2.37957,1.3639,3.28497,2.00619,1.3581,3.29077,1.3581,2.38344-.45657,3.29658-1.3697c.68098-.68098,1.1066-1.4703,1.27684-2.36796Z"/><path class="cls-1" d="m191.96169,310.29058c-.02322.16251-.03482.33662-.03482.52234,0,1.28458.45463,2.37957,1.3639,3.28497s2.00619,1.3581,3.29077,1.3581,2.38344-.45657,3.29658-1.3697c.15477-.15477.3018-.31728.44109-.48752l.98665.34823c-.11608.19346-.35984.47204-.73128.83575-1.09886,1.1066-2.42987,1.6599-3.99304,1.6599-1.54769,0-2.8729-.55136-3.97562-1.65409s-1.65409-2.42794-1.65409-3.97562c0-1.56317.55136-2.89418,1.65409-3.99304s2.42794-1.64829,3.97562-1.64829c1.56317,0,2.89418.54943,3.99304,1.64829.96731.97504,1.45096,2.13194,1.45096,3.47069h-10.06384Zm.17411-.94022h8.84504c-.21668-.7042-.58425-1.31553-1.10273-1.83401-.91314-.91314-2.01199-1.3697-3.29658-1.3697s-2.38344.45657-3.29658,1.3697c-.54169.54943-.92474,1.16077-1.14916,1.83401Z"/><path class="cls-1" d="m216.50029,305.85645c.6036.25537,1.1569.63842,1.6599,1.14916,1.04469,1.04469,1.56703,2.30992,1.56703,3.79571,0,1.47804-.52234,2.73941-1.56703,3.7841-.87444.87444-1.93848,1.39679-3.19211,1.56703h-5.32792v-16.41323h4.89843c.93635,0,1.73148.32888,2.38537.98665s.98085,1.45096.98085,2.37957-.32888,1.7218-.98665,2.37957c-.13929.14703-.27858.27085-.41788.37145Zm-5.93151-5.20023v4.78236h4.17876c.67324-.06965,1.17624-.27085,1.509-.6036.47204-.47204.70807-1.04856.70807-1.72954,0-.67324-.23796-1.24976-.71387-1.72954-.47591-.47978-1.05049-.71967-1.72374-.71967h-3.95821Zm3.79571,14.56761c1.21494,0,2.25189-.43142,3.11085-1.29425s1.28845-1.90559,1.28845-3.12826-.42948-2.26736-1.28845-3.13407-1.89592-1.30006-3.11085-1.30006h-3.79571v8.85665h3.79571Z"/><path class="cls-1" d="m226.79629,305.1716c1.56317,0,2.89224.54943,3.98723,1.64829s1.64248,2.42987,1.64248,3.99304c0,1.54769-.54749,2.8729-1.64248,3.97562s-2.42407,1.65409-3.98723,1.65409c-1.54769,0-2.8729-.55136-3.97562-1.65409s-1.65409-2.42794-1.65409-3.97562c0-1.56317.55136-2.89418,1.65409-3.99304s2.42794-1.64829,3.97562-1.64829Zm-3.29077,2.34475c-.90927.91314-1.3639,2.01199-1.3639,3.29658s.45463,2.37957,1.3639,3.28497,2.00619,1.3581,3.29077,1.3581,2.38151-.4527,3.29077-1.3581,1.3639-2.00039,1.3639-3.28497-.45463-2.38344-1.3639-3.29658-2.00619-1.3697-3.29077-1.3697-2.38151.45657-3.29077,1.3697Z"/><path class="cls-1" d="m238.42716,316.29174c-1.26137,0-2.26349-.37145-3.00638-1.11434s-1.12594-1.68311-1.14916-2.82066v-6.29135h.92861v6.2101c0,.85123.30954,1.57864.92861,2.18224.61134.61134,1.37357.91701,2.28671.91701.85123,0,1.58445-.30373,2.19965-.9112s.92281-1.33682.92281-2.18804v-6.2101h.92861v6.29135c-.02322,1.13755-.40627,2.07777-1.14916,2.82066s-1.70633,1.11434-2.89031,1.11434Z"/><path class="cls-1" d="m245.68195,299.73921v16.41323h-.92861v-16.41323h.92861Z"/><path class="cls-1" d="m248.57226,310.29058c-.02322.16251-.03482.33662-.03482.52234,0,1.28458.45463,2.37957,1.3639,3.28497s2.00619,1.3581,3.29077,1.3581,2.38344-.45657,3.29658-1.3697c.15477-.15477.3018-.31728.44109-.48752l.98665.34823c-.11608.19346-.35984.47204-.73128.83575-1.09886,1.1066-2.42987,1.6599-3.99304,1.6599-1.54769,0-2.8729-.55136-3.97562-1.65409s-1.65409-2.42794-1.65409-3.97562c0-1.56317.55136-2.89418,1.65409-3.99304s2.42794-1.64829,3.97562-1.64829c1.56317,0,2.89418.54943,3.99304,1.64829.96731.97504,1.45096,2.13194,1.45096,3.47069h-10.06384Zm.17411-.94022h8.84504c-.21668-.7042-.58425-1.31553-1.10273-1.83401-.91314-.91314-2.01199-1.3697-3.29658-1.3697s-2.38344.45657-3.29658,1.3697c-.54169.54943-.92474,1.16077-1.14916,1.83401Z"/><path class="cls-1" d="m262.81486,310.74327c-.78158-.42561-1.32327-.78932-1.62507-1.09112-.47204-.47204-.70807-1.04082-.70807-1.70633s.23602-1.23622.70807-1.71213,1.04082-.71387,1.70633-.71387,1.2188.22055,1.6599.66164c.42561.42561.63842.91314.63842,1.46257v.04643l-.80093.32501c-.06965-.51848-.23215-.90927-.48752-1.17237s-.59199-.39466-1.00987-.39466c-.41014,0-.76224.14703-1.0563.44109s-.44109.64616-.44109,1.0563.14703.76224.44109,1.0563c.17025.17798.53008.44109,1.07951.78932.87444.47204,1.49739.89379,1.86883,1.26524.58038.58812.87057,1.28845.87057,2.10099,0,.83575-.29019,1.54575-.87057,2.13001s-1.28458.87638-2.11259.87638-1.53221-.29213-2.11259-.87638-.87057-1.22461-.87057-1.92107l.91701-.23215c0,.59586.20313,1.09692.6094,1.50319s.89186.6094,1.45676.6094,1.05243-.20313,1.46257-.6094.61521-.89959.61521-1.47998c0-.56491-.20507-1.04856-.61521-1.45096-.21668-.21668-.65777-.53782-1.32327-.96344Z"/><path class="cls-1" d="m277.86999,300.66782v15.48462h-.91701v-15.48462h-4.15554v-.92861h9.22809v.92861h-4.15554Z"/><path class="cls-1" d="m287.89901,305.1716c1.56317,0,2.89224.54943,3.98723,1.64829s1.64248,2.42987,1.64248,3.99304c0,1.54769-.54749,2.8729-1.64248,3.97562s-2.42407,1.65409-3.98723,1.65409c-1.54769,0-2.8729-.55136-3.97562-1.65409s-1.65409-2.42794-1.65409-3.97562c0-1.56317.55136-2.89418,1.65409-3.99304s2.42794-1.64829,3.97562-1.64829Zm-3.29077,2.34475c-.90927.91314-1.3639,2.01199-1.3639,3.29658s.45463,2.37957,1.3639,3.28497,2.00619,1.3581,3.29077,1.3581,2.38151-.4527,3.29077-1.3581,1.3639-2.00039,1.3639-3.28497-.45463-2.38344-1.3639-3.29658-2.00619-1.3697-3.29077-1.3697-2.38151.45657-3.29077,1.3697Z"/><path class="cls-1" d="m295.97795,310.29058c-.02322.16251-.03482.33662-.03482.52234,0,1.28458.45463,2.37957,1.3639,3.28497s2.00619,1.3581,3.29077,1.3581,2.38344-.45657,3.29658-1.3697c.15477-.15477.3018-.31728.44109-.48752l.98665.34823c-.11608.19346-.35984.47204-.73128.83575-1.09886,1.1066-2.42987,1.6599-3.99304,1.6599-1.54769,0-2.8729-.55136-3.97562-1.65409s-1.65409-2.42794-1.65409-3.97562c0-1.56317.55136-2.89418,1.65409-3.99304s2.42794-1.64829,3.97562-1.64829c1.56317,0,2.89418.54943,3.99304,1.64829.96731.97504,1.45096,2.13194,1.45096,3.47069h-10.06384Zm.17411-.94022h8.84504c-.21668-.7042-.58425-1.31553-1.10273-1.83401-.91314-.91314-2.01199-1.3697-3.29658-1.3697s-2.38344.45657-3.29658,1.3697c-.54169.54943-.92474,1.16077-1.14916,1.83401Z"/><path class="cls-1" d="m311.17237,306.88953c-.65777.1006-1.30393.51848-1.93848,1.25363s-.95183,1.47804-.95183,2.22867v5.78062h-.92861v-10.07545h.92861v2.18224c.38692-1.01374,1.18011-1.76823,2.37957-2.26349l.51074.89379Z"/><path class="cls-1" d="m313.25015,308.32888v7.82356h-.92861v-10.07545h.92861v.65003c.83575-.83575,1.8108-1.25363,2.92513-1.25363,1.19172,0,2.16096.37338,2.90772,1.12014s1.12788,1.68505,1.14335,2.81486v6.74405h-.91701v-6.65119c0-.85897-.30954-1.59025-.92861-2.19385s-1.35423-.9054-2.20546-.9054c-.84349,0-1.57477.29793-2.19385.89379-.33275.33275-.57651.67711-.73128,1.03308Z"/><path class="cls-1" d="m327.84098,305.1716c1.56317,0,2.89224.54943,3.98723,1.64829s1.64248,2.42987,1.64248,3.99304c0,1.54769-.54749,2.8729-1.64248,3.97562s-2.42407,1.65409-3.98723,1.65409c-1.54769,0-2.8729-.55136-3.97562-1.65409s-1.65409-2.42794-1.65409-3.97562c0-1.56317.55136-2.89418,1.65409-3.99304s2.42794-1.64829,3.97562-1.64829Zm-3.29077,2.34475c-.90927.91314-1.3639,2.01199-1.3639,3.29658s.45463,2.37957,1.3639,3.28497,2.00619,1.3581,3.29077,1.3581,2.38151-.4527,3.29077-1.3581,1.3639-2.00039,1.3639-3.28497-.45463-2.38344-1.3639-3.29658-2.00619-1.3697-3.29077-1.3697-2.38151.45657-3.29077,1.3697Z"/><path class="cls-1" d="m340.77191,305.1716c1.56317,0,2.89224.54943,3.98723,1.64829s1.64248,2.42987,1.64248,3.99304c0,1.54769-.54749,2.8729-1.64248,3.97562-1.09499,1.10273-2.42407,1.65409-3.98723,1.65409-1.54769,0-2.8729-.55136-3.97562-1.65409-1.10273-1.10273-1.65409-2.42794-1.65409-3.97562,0-1.56317.55136-2.89418,1.65409-3.99304,1.10273-1.09886,2.42794-1.64829,3.97562-1.64829Zm-3.29077,2.34475c-.90927.91314-1.3639,2.01199-1.3639,3.29658s.45463,2.37957,1.3639,3.28497,2.00619,1.3581,3.29077,1.3581,2.38151-.4527,3.29077-1.3581,1.3639-2.00039,1.3639-3.28497-.45463-2.38344-1.3639-3.29658-2.00619-1.3697-3.29077-1.3697-2.38151.45657-3.29077,1.3697Z"/><path class="cls-1" d="m349.72722,302.78042c.18185.17798.27278.39079.27278.63842,0,.26311-.09093.48365-.27278.66164s-.3966.26698-.64423.26698c-.25537,0-.47398-.08899-.65583-.26698s-.27278-.39853-.27278-.66164c0-.24763.09093-.46044.27278-.63842s.40046-.26698.65583-.26698c.24763,0,.46237.08899.64423.26698Zm-.19153,3.29658v10.07545h-.91701v-10.07545h.91701Z"/></g></g></g></svg>