<?xml version="1.0" encoding="UTF-8"?><svg xmlns="http://www.w3.org/2000/svg" viewBox="0 0 400 400"><defs><style>.cls-1{fill:#fff;}.cls-2{fill:#383838;}</style></defs><g id="Layer_1"><rect class="cls-2" width="400" height="400"/></g><g id="Layer_2"><g id="RED"><path class="cls-1" d="m199.99963,66.77588c-73.45966,0-133.22369,59.7641-133.22369,133.22369s59.76404,133.22461,133.22369,133.22461,133.22455-59.7641,133.22455-133.22461-59.7641-133.22369-133.22455-133.22369Zm-31.47046,119.815h4.06714l19.42737,33.68207,19.46692-33.68207h4.06714l-21.75714,37.63074v25.54785h-3.55377v-25.54785l-21.71765-37.63074Zm13.01086-85.23224h31.58923v3.55377h-28.03546v26.25861h28.03546v3.55377h-28.03546v26.25861h28.03546v3.55377h-31.58923v-63.17853Zm-43.00092,0h16.58435c4.81738.65808,8.91083,2.67194,12.28033,6.04144,4.02765,4.02765,6.04144,8.88446,6.04144,14.57056,0,5.7124-2.01379,10.5824-6.04144,14.61005-2.79041,2.79034-5.98877,4.61993-9.59521,5.48865l14.57056,22.46783h-4.38306l-14.09668-21.95453c-.34222.02631-.69763.03949-1.06616.03949h-10.74036v21.91504h-3.55377v-63.17853Zm-3.53406,144.42267c-.5528-.52649-1.03979-1.0661-1.461-1.61896-.4212.55286-.9082,1.09247-1.461,1.61896-3.05365,3.02734-6.72589,4.54095-11.01678,4.54095-4.3172,0-7.98944-1.52679-11.01678-4.58044-2.97461-2.9483-4.50146-6.47577-4.58044-10.5824v-48.56854h3.55383v48.25262c0,3.29059,1.19116,6.10071,3.57355,8.43042,2.38232,2.32971,5.20563,3.49457,8.46985,3.49457s6.08093-1.14514,8.45013-3.43536c.89502-.89502,1.64526-1.90851,2.25073-3.04047v-53.70178h3.55377v53.70178c.60547,1.13196,1.35571,2.14545,2.25073,3.04047,2.3692,2.29022,5.18591,3.43536,8.45013,3.43536s6.08752-1.16486,8.46991-3.49457c2.38232-2.32971,3.57355-5.13983,3.57355-8.43042v-48.25262h3.55377v48.56854c-.08429,4.3844-1.80402,8.1087-5.15906,11.17285-2.63239,2.40411-6.05969,3.81683-9.62128,3.97205-4.64343.20233-8.58795-1.3053-11.83362-4.52301Zm116.07379,51.18488c0,.22009-.17834.3985-.39844.3985h-5.54449v1.90649c0,.35498-.28766.64258-.64264.64258h-15.46631c-.35486,0-.64264-.2876-.64264-.64258v-.70129h-1.28271c-.35315,0-.63324-.26685-.67889-.60748-.62067-.00238-1.24658-.00134-1.87054.01892-2.05676.05658-3.66779-.78857-5.08362-2.68915-.94543-1.2688-1.56158-2.69897-2.21423-4.21368-.12164-.28308-.24402-.5661-.36823-.84845-.02539-.05731-.04492-.12238-.06641-.18805-.10931-.33704-.35394-1.112-1.26617-1.08728-.91547.04297-1.09637.87512-1.17316,1.23041-.01428.06311-.02667.12561-.04358.18219-.32794,1.112-.59991,2.25061-.86279,3.3515-.42358,1.77502-.86145,3.61121-1.53882,5.32434-.58923,1.48993-1.35022,2.98572-2.91675,3.823-1.64258.87781-3.72937.23859-4.69232-1.35559-1.18604-1.96344-1.58295-4.21295-1.91394-6.5379-.3833-2.68652-.72156-5.42908-1.04889-8.08118-.19714-1.59674-.39429-3.19348-.60187-4.78882-.26025-1.99817-.70209-3.92157-1.31299-5.71674-.02283-.06702-.04041-.14246-.05988-.21991-.0976-.38977-.3241-1.29614-1.29547-1.29614h-.03711c-.922.02344-1.11719.89337-1.20044,1.26489-.01758.07874-.03381.15552-.05597.22186-.81659,2.44196-1.15753,4.9574-1.46271,7.53333-.32788,2.76727-.5459,5.58527-.75604,8.3103-.29932,3.88049-.60968,7.89313-1.24341,11.79248-.31494,1.93903-.71442,3.47131-1.25641,4.82208-.81726,2.03589-1.57916,3.15051-3.2605,3.20709-1.58307.04425-2.72626-.82501-3.79852-2.93707-1.27917-2.51935-1.85504-5.35364-2.41528-8.10785-.24988-1.23175-.4704-2.49664-.68323-3.71985-.4574-2.63-.93042-5.34973-1.74176-7.97449-.02734-.0885-.04553-.19-.06573-.29413-.08527-.4411-.26349-1.35986-1.20044-1.4126-.03125-.00195-.06183-.00256-.09174-.00256-1.01764,0-1.23499,1.00397-1.32935,1.43927-.01953.09174-.03833.18085-.06177.25897-.61554,2.03137-.98248,4.13104-1.3371,6.16107-.16205.9259-.3241,1.85181-.50885,2.77246l-.03967.1991c-.3728,1.85895-.72485,3.61505-1.47052,5.27881-.67279,1.50244-1.43207,2.38336-2.46277,2.85577-1.50555.69031-3.4101.07806-4.52728-1.45428-.92065-1.26288-1.40155-2.71649-1.91095-4.25525-.11127-.3371-.22321-.67407-.33966-1.00922l-.11578-.33441c-.36829-1.06708-.74963-2.17059-1.28503-3.21686-.74573-1.45551-1.93121-2.17902-3.49866-2.15826-1.33514.0202-2.67291.01691-4.01068.01306-1.28632-.0033-2.56946-.00653-3.85382.01038-.41644-.00262-.4809-.06573-.48151-.06573,0-.00067-.05463-.08069-.03516-.38129.03906-.59796.03516-1.19586.03125-1.77435-.00195-.2616-.00323-.52307-.00128-.784.00061-.08331.00519-.14252.0097-.18286.91809-.00256,1.83624-.0202,2.75427-.03711,2.34113-.04358,4.76483-.0885,7.1189.12109,2.07953.18475,3.59363,1.40149,4.91052,3.94684.70074,1.354,1.19586,2.84534,1.67548,4.28851l.29602.88623c.22382.65973.4444,1.25903.68774,1.8667.10089.25574.38062.93567,1.14777.91815.75085-.01501.99286-.66309,1.08398-.90771l.02606-.06964c.70398-1.79254,1.03516-3.67102,1.35535-5.487.08716-.49646.17499-.99225.27002-1.48682.09497-.49573.18542-.99353.27588-1.4906.48535-2.66968.94342-5.19098,2.13086-7.54315.76324-1.51141,1.66504-2.30719,2.92407-2.57916,1.26166-.2746,2.276.08911,3.10492,1.10742,1.36902,1.68066,1.94165,3.71198,2.49921,6.00043.49902,2.04822.86865,4.16937,1.2265,6.22089.39691,2.27606.80682,4.62885,1.39764,6.91913.23688.91809.53937,1.82251.84583,2.73737l.03259.1106c.0722.25439.29016,1.02478,1.0885,1.02478h.01825c.60638-.00909.97339-.38971,1.09113-1.13147.00714-.04816.013-.0957.02472-.13599.59473-2.16931.84851-4.40894,1.09308-6.57495l.00916-.0755c.28369-2.51416.48602-5.07251.68188-7.54761.28564-3.60468.58044-7.33301,1.13086-10.96173.32404-2.13611.71252-4.39716,1.57196-6.48639.22192-.54004.43402-1.00073.64807-1.40802.86218-1.64166,1.92792-2.38666,3.30731-2.39703,1.41455.00714,2.50507.74695,3.43097,2.32935,1.20886,2.06714,1.70795,4.37567,2.15234,6.75714.48669,2.6098.79449,5.30157,1.09119,7.90417.26416,2.31244.53741,4.70367.93628,7.04736.16852.9903.38715,2.03394.64935,3.09973.01172.04681.02087.09821.03058.15161.05792.31226.23486,1.26294,1.24084,1.26294h.00195c.92523-.00134,1.19849-.84595,1.31561-1.20703l.03644-.10999c.27979-.81653.63898-1.89862.93762-3.02557.18738-.70917.35718-1.42291.52704-2.13672.33441-1.40674.68054-2.86163,1.16467-4.23645.30841-.87646.68384-1.60712,1.14838-2.2337.64484-.87,1.53229-1.39893,2.49854-1.48871.97406-.09045,1.95654.2713,2.76337,1.01825.82178.76062,1.31757,1.76849,1.83679,2.91107.16724.3689.33057.74042.49457,1.11127.36108.82056.73456,1.66901,1.15094,2.48883.86932,1.71643,2.21552,2.49268,4.10114,2.40289.29437-.01569.59406-.01434.89087-.02356.0462-.34015.32593-.60657.67871-.60657h1.28271v-.70142c0-.35498.28778-.64264.64264-.64264h15.46631c.35498,0,.64264.28778.64264.64264v1.90662h5.54449c.22009,0,.39844.17834.39844.39844v1.17224Zm2.64368.2345c0,.09058-.07349.164-.16406.164h-1.64111c-.09058,0-.164-.07343-.164-.164v-1.64111c0-.09058.07343-.16406.164-.16406h1.64111c.09058,0,.16406.07349.16406.16406v1.64111Zm1.32178-107.05597h-15.99207v59.62476h-3.55377v-59.62476h-15.99207v-3.55383h35.5379v3.55383Zm-3.06018-34.29456c-5.7124,5.73871-13.7677,8.60803-24.16583,8.60803h-.27637v.07898h-3.55383v-63.17853h3.55383v.07898h.27637c10.39813,0,18.45343,2.86932,24.16583,8.60803,6.31787,6.34418,9.47675,13.97827,9.47675,22.90228,0,8.95026-3.15887,16.58435-9.47675,22.90222Zm42.54681,60.5531v3.55383h-28.03552v26.25861h28.03552v3.55377h-31.58929v-63.17859h31.58929v3.55383h-28.03552v26.25854h28.03552Z"/><path class="cls-1" d="m166.09619,132.68048c2.0957-2.49176,3.38605-5.60022,3.672-8.84351.48724-5.52667-1.14984-10.16321-4.91125-13.90973-3.33002-3.31689-7.33795-4.97534-12.02368-4.97534h-10.74036v34.07697h10.74036c5.28247,0,9.70349-2.11615,13.26294-6.34839Z"/><path class="cls-1" d="m227.8183,105.07037h-.27637v55.79456h.27637c9.37152,0,16.57123-2.52716,21.59918-7.58142,5.60712-5.60712,8.41064-12.38562,8.41064-20.33557,0-7.92365-2.80353-14.70221-8.41064-20.33563-5.02795-5.02795-12.22766-7.54193-21.59918-7.54193Z"/><path class="cls-1" d="m200,50c-82.84271,0-150,67.15729-150,150s67.15729,150,150,150,150-67.15729,150-150S282.84271,50,200,50Zm-.00037,286.77551c-75.41779,0-136.77509-61.35773-136.77509-136.77594S124.58185,63.22455,199.99963,63.22455s136.77588,61.35724,136.77588,136.77502-61.35767,136.77594-136.77588,136.77594Z"/></g></g></svg>