<?xml version="1.0" encoding="UTF-8"?><svg xmlns="http://www.w3.org/2000/svg" viewBox="0 0 400 400"><defs><style>.cls-1{fill:#fff;}.cls-2{fill:#383838;}</style></defs><g id="Layer_1"><rect class="cls-2" width="400" height="400"/></g><g id="Layer_2"><g id="Stijlvol"><g><g><path class="cls-1" d="m55.28239,167.13385c.76318,7.82929,6.4915,9.48433,9.42,9.48433,4.90079,0,9.42-3.75602,9.42-8.97407,0-6.62018-5.66398-8.0822-11.13938-9.86593-3.81814-1.14478-12.02902-3.563-12.02902-12.47273-.12646-8.33956,6.81097-12.98522,14.00353-12.98522,5.85477,0,12.60141,3.24575,13.36459,12.1577h-5.21805c-.57239-3.05495-2.10097-7.70283-8.33734-7.70283-4.71,0-8.59247,3.18363-8.59247,8.08442-.06434,5.72832,4.58132,7.12823,11.70955,9.54645,4.45486,1.71716,11.45663,4.19973,11.45663,12.85654,0,7.70061-5.79265,13.81052-14.5737,13.81052-7.89363,0-14.44725-4.96513-14.76672-13.9392h5.28239Z"/><path class="cls-1" d="m88.93125,148.1451h-6.74441v-3.75602h6.74441v-12.06884h4.64788v12.06884h7.50982v3.75602h-7.50982v32.99229h-4.64788v-32.99229Z"/><path class="cls-1" d="m106.23156,132.32025h4.71v7.38336h-4.71v-7.38336Zm0,12.1577h4.71v98.70046h-4.71v-98.70046Z"/><path class="cls-1" d="m126.08099,179.73526c0,6.10991-.50805,12.79442-9.54645,13.81274-.44593,0-.95398,0-1.46425.06212v-3.9446c.31947,0,.63673,0,.89186-.06434,4.96291-.82752,5.40884-4.64566,5.40884-9.73725v-35.38599h4.71v35.25732Zm-4.71-47.41501h4.71v7.38336h-4.71v-7.38336Z"/><path class="cls-1" d="m136.19096,132.32025h4.71v48.81714h-4.71v-48.81714Z"/><path class="cls-1" d="m164.31339,181.13739h-4.90079l-13.49105-36.65944h4.96291l11.0107,30.45769,10.94636-30.45769h4.96513l-13.49327,36.65944Z"/><path class="cls-1" d="m178.96718,162.77386c0-9.69787,7.24129-18.29592,18.42663-18.29592,11.24845,0,18.48974,8.59804,18.48974,18.36127s-7.24129,18.29817-18.48974,18.29817c-11.18534,0-18.42663-8.53494-18.42663-18.29817v-.06536Zm4.71935.13072c0,7.88811,6.013,13.83575,13.70729,13.83575,7.7574,0,13.70503-5.94764,13.70503-13.90111s-5.94764-13.90111-13.70503-13.90111c-7.69429,0-13.70729,5.94764-13.70729,13.90111v.06536Z"/><path class="cls-1" d="m222.63483,132.32025h4.71v48.7528h-4.71v-48.7528Z"/></g><g><path class="cls-1" d="m121.0604,207.02375h4.45708c0,2.8685,0,4.77646-.06434,7.06823,1.9723-4.45486,6.61796-7.19256,12.72786-7.06389,10.62911.12646,14.38513,7.38336,14.38513,15.7207v20.42961h-4.64566v-19.47563c0-7.38336-3.31009-12.41061-11.0107-12.28415-7.06611.06434-11.13938,4.32841-11.13938,11.45663v20.30316h-4.71v-36.15466Z"/><path class="cls-1" d="m164.31561,210.77977h-6.74663v-3.75602h6.74663v-11.89822h4.64788v11.89822h7.50982v3.75602h-7.50982v32.39864h-4.64788v-32.39864Z"/><path class="cls-1" d="m181.80894,226.44047c.25513,8.59025,7.57416,12.72786,13.36681,12.66353,5.28239,0,9.54645-2.60902,11.77388-7.06389h4.90079c-1.59071,3.69168-4.01115,6.4915-6.93743,8.33734-2.86416,1.84584-6.23858,2.79982-9.73725,2.79982-11.90256,0-18.07681-9.48211-18.07681-18.01025,0-10.05672,7.76495-18.13893,18.01247-18.13893,4.83646,0,9.29132,1.71716,12.53707,4.83646,3.94681,3.81814,5.85699,9.10052,5.34672,14.57592h-31.18626Zm26.5406-3.75602c-.31947-5.98345-6.10991-11.83822-13.17379-11.64743-7.38336,0-12.85654,5.41106-13.30247,11.64743h26.47627Z"/><path class="cls-1" d="m219.65753,207.02809h4.45486v6.55584c2.48035-5.09159,6.93743-6.42938,10.94636-6.55584v4.64566h-.44593c-6.61796,0-10.30964,4.13761-10.30964,11.90256v19.60096h-4.64566v-36.14918Z"/><path class="cls-1" d="m240.13925,195.12553h4.70778v6.55584h-4.70778v-6.55584Zm0,11.90256h4.70778v36.14918h-4.70778v-36.14918Z"/><path class="cls-1" d="m256.10399,226.44047c.25513,8.59025,7.57416,12.72786,13.36681,12.66353,5.28239,0,9.54645-2.60902,11.77388-7.06389h4.90079c-1.59071,3.69168-4.01115,6.4915-6.93743,8.33734-2.86416,1.84584-6.23858,2.79982-9.73725,2.79982-11.90256,0-18.07681-9.48211-18.07681-18.01025,0-10.05672,7.76495-18.13893,18.01247-18.13893,4.83646,0,9.29132,1.71716,12.53707,4.83646,3.94681,3.81814,5.85699,9.10052,5.34672,14.57592h-31.18626Zm26.5406-3.75602c-.31947-5.98345-6.10991-11.83822-13.17379-11.64743-7.38336,0-12.85654,5.41106-13.30247,11.64743h26.47627Z"/><path class="cls-1" d="m325.4561,243.17727h-4.45486v-7.06389c-1.91018,4.45486-6.55584,7.12823-12.66574,7.06389-10.69345-.1908-14.44725-7.44548-14.44725-15.78282v-20.36636h4.64566v19.4745c0,7.38336,3.31009,12.34849,11.0107,12.28415,7.12823-.06434,11.2015-4.32841,11.2015-11.45663v-20.30202h4.71v36.14918Z"/><path class="cls-1" d="m334.59656,207.02809h4.45708v6.55584c2.48035-5.09159,6.93743-6.42938,10.94636-6.55584v4.64566h-.44593c-6.61796,0-10.30964,4.13761-10.30964,11.90256v19.60096h-4.64788v-36.14918Z"/></g><g><g><path class="cls-1" d="m148.73277,267.42307v-12.62894h1.97987l4.67615,10.59816,4.65856-10.59816h1.97987v12.62894h-1.33102l.03425-11.22942-4.89829,11.22942h-.90431l-4.91496-11.22942.03425,11.22942h-1.31436Z"/><path class="cls-1" d="m165.07708,263.19029c.06849,2.30475,2.03077,3.41363,3.58394,3.39697,1.41617,0,2.55929-.69976,3.15723-1.89471h1.31343c-.4267.98947-1.07463,1.74106-1.85954,2.23533-.76825.4952-1.67257.75159-2.61113.75159-3.19148,0-4.84646-2.54356-4.84646-4.8298,0-2.69628,2.08168-4.86405,4.82887-4.86405,1.2977,0,2.49173.46095,3.36272,1.29677,1.05797,1.02464,1.56982,2.44082,1.43283,3.9079h-8.3619Zm7.11604-1.00613c-.08516-1.60407-1.63832-3.17482-3.5321-3.12299-1.97987,0-3.44787,1.45042-3.56728,3.12299h7.09938Z"/><path class="cls-1" d="m183.67523,267.42307h-1.19495v-1.63832c-.51186,1.19495-1.75772,1.91137-3.39604,1.89471-2.86659-.05183-3.87365-1.99745-3.87365-4.23279v-5.20467h1.24586v4.96586c0,1.97987.88765,3.31088,2.95268,3.2933,1.91137-.01666,3.00358-1.15978,3.00358-3.07115v-5.18801h1.26252v9.18106Z"/><path class="cls-1" d="m186.12993,254.79414h1.26252v5.29075c.76825-1.29677,2.15018-2.08168,3.73759-2.09927,2.61113,0,4.72706,1.96228,4.72706,4.8298,0,2.76478-1.97987,4.86405-4.76131,4.86405-1.72347,0-3.07208-.83675-3.75425-2.1511v1.89471h-1.21162v-12.62894Zm8.46372,8.02128c0-2.09927-1.58648-3.66909-3.63485-3.66909-2.11593,0-3.63485,1.63832-3.63485,3.66909,0,1.99653,1.45042,3.68575,3.58394,3.68575,2.44082,0,3.68575-1.89379,3.68575-3.66909v-.01666Z"/><path class="cls-1" d="m198.29422,263.19029c.06849,2.30475,2.03077,3.41363,3.58394,3.39697,1.41617,0,2.55929-.69976,3.15723-1.89471h1.31343c-.42578.98947-1.07463,1.74106-1.85954,2.23533-.76825.4952-1.67257.75159-2.61113.75159-3.19148,0-4.84646-2.54356-4.84646-4.8298,0-2.69628,2.08168-4.86405,4.82887-4.86405,1.2977,0,2.49173.46095,3.36272,1.29677,1.05797,1.02464,1.56982,2.44082,1.43283,3.9079h-8.3619Zm7.11604-1.00613c-.08516-1.60407-1.63832-3.17482-3.5321-3.12299-1.97987,0-3.44787,1.45042-3.56728,3.12299h7.09938Z"/><path class="cls-1" d="m208.44439,254.79414h1.26345v12.62894h-1.26345v-12.62894Z"/><path class="cls-1" d="m216.27685,260.54584c0-.97281-.64792-1.51892-1.56982-1.51892-1.00706,0-1.62073.68217-1.58741,1.48467.03425.87007.69976,1.22828,1.80956,1.55316,1.31436.35821,2.78144.73308,2.84993,2.69628.06849,1.68923-1.29677,2.91843-3.03783,2.91843-1.48467,0-3.12299-.93856-3.14057-2.86752h1.24586c.05183,1.26252.9904,1.82622,1.91137,1.82622,1.05889,0,1.79197-.78491,1.77531-1.72347-.03425-1.0413-.71642-1.46801-2.30383-1.92896-1.31436-.39246-2.33807-.92098-2.37232-2.37232,0-1.65498,1.31436-2.62779,2.86752-2.62779,1.27918,0,2.71294.69976,2.7981,2.56022h-1.24586Z"/><path class="cls-1" d="m234.94257,259.64152l-2.23533,4.24852,2.83235,2.88418-.88673.85341-2.61113-2.6787c-.85341,1.67164-1.79197,2.71294-3.82274,2.71294-2.32141,0-3.80608-1.74106-3.80608-3.58394,0-2.09927,1.79197-3.20814,3.03783-3.7885-.85341-.90431-1.53558-1.67257-1.56982-2.84993,0-1.55316,1.26252-2.86659,2.93509-2.86659,1.68923,0,2.96934,1.31343,2.96934,2.86659,0,1.70681-1.33102,2.38898-2.50839,2.96934l2.57688,2.62871,1.74106-3.39604h1.34768Zm-6.68934,1.45042c-1.91137.88673-2.45748,1.87712-2.47506,2.90084.01759,1.29677,1.02372,2.44082,2.50931,2.44082,1.46708,0,2.16684-.85341,2.88326-2.32141l-2.9175-3.02024Zm.56277-5.42681c-1.05797,0-1.68923.87007-1.68923,1.68923,0,.98947.80157,1.67257,1.39951,2.28717,1.36527-.66643,2.06502-1.09221,2.06502-2.21867,0-.9219-.69976-1.75772-1.75772-1.75772h-.01759Z"/><path class="cls-1" d="m242.19005,254.79414h1.39951v12.62894h-1.39951v-12.62894Z"/><path class="cls-1" d="m246.09794,258.24201h1.19403c0,.51186,0,1.02372-.01666,1.63832.52852-1.19495,1.77438-1.92896,3.4127-1.89471,2.84993.03425,3.85699,1.97987,3.85699,4.2152v5.22226h-1.24586v-4.96586c0-1.97987-.88765-3.32847-2.95268-3.29422-1.89379.01759-2.986,1.16071-2.986,3.07208v5.18801h-1.26252v-9.18106Z"/><path class="cls-1" d="m257.69854,259.24814h-1.80956v-1.00613h1.80956v-3.44787h1.24586v3.44787h2.01319v1.00613h-2.01319v8.17493h-1.24586v-8.17493Z"/><path class="cls-1" d="m262.39042,263.19029c.06849,2.30475,2.03077,3.41363,3.58394,3.39697,1.41617,0,2.55929-.69976,3.15723-1.89471h1.31343c-.42578.98947-1.07463,1.74106-1.85954,2.23533-.76825.4952-1.67257.75159-2.61113.75159-3.19148,0-4.84646-2.54356-4.84646-4.8298,0-2.69628,2.08168-4.86405,4.82887-4.86405,1.2977,0,2.49173.46095,3.36272,1.29677,1.05797,1.02464,1.56982,2.44082,1.43283,3.9079h-8.3619Zm7.11604-1.00613c-.08516-1.60407-1.63832-3.17482-3.5321-3.12299-1.97987,0-3.44787,1.45042-3.56728,3.12299h7.09938Z"/><path class="cls-1" d="m272.54059,258.24201h1.19495v1.50133c.66551-1.36527,1.86046-1.72347,2.93509-1.75772v1.24586h-.1194c-1.77438,0-2.76478,1.10887-2.76478,3.19148v5.00011h-1.24586v-9.18106Z"/><path class="cls-1" d="m278.03497,254.79414h1.26252v1.75772h-1.26252v-1.75772Zm0,3.44787h1.26252v9.18106h-1.26252v-9.18106Z"/><path class="cls-1" d="m282.31682,263.19029c.06849,2.30475,2.03077,3.41363,3.58394,3.39697,1.41617,0,2.55929-.69976,3.15723-1.89471h1.31343c-.42578.98947-1.07463,1.74106-1.85954,2.23533-.76825.4952-1.67257.75159-2.61113.75159-3.19148,0-4.84646-2.54356-4.84646-4.8298,0-2.69628,2.08168-4.86405,4.82887-4.86405,1.2977,0,2.49173.46095,3.36272,1.29677,1.05797,1.02464,1.56982,2.44082,1.43283,3.9079h-8.3619Zm7.11604-1.00613c-.08516-1.60407-1.63832-3.17482-3.5321-3.12299-1.97987,0-3.44787,1.45042-3.56728,3.12299h7.09938Z"/><path class="cls-1" d="m300.91497,267.42307h-1.19495v-1.63832c-.51186,1.19495-1.75772,1.91137-3.39604,1.89471-2.86659-.05183-3.87365-1.99745-3.87365-4.23279v-5.20467h1.24586v4.96586c0,1.97987.88765,3.31088,2.95268,3.2933,1.91137-.01666,3.00358-1.15978,3.00358-3.07115v-5.18801h1.26252v9.18106Z"/><path class="cls-1" d="m303.36875,258.24201h1.19495v1.50133c.66551-1.36527,1.86046-1.72347,2.93509-1.75772v1.24586h-.1194c-1.77438,0-2.76478,1.10887-2.76478,3.19148v5.00011h-1.24586v-9.18106Z"/></g><rect class="cls-1" x="324.29697" y="260.27935" width="25.70303" height="1.69396"/><rect class="cls-1" x="106.23156" y="260.27935" width="25.70303" height="1.69396"/></g></g><g><path class="cls-1" d="m50.00248,242.61712c.89606.56444,2.08844-.28928,3.04094-.762,3.67594-1.8415,7.51417-3.01272,11.557-3.46428,1.91911-.21167,3.88056-.53622,5.29872-1.97556,5.715-5.82083,12.10733-10.88672,17.28611-17.30022,1.24883-1.53811,2.18722-3.28789,2.68111-5.34811-.14817-2.56117-2.05317-2.76578-3.83117-2.96333-12.01561-1.29117-23.02228-5.66561-33.41511-12.01561-.76906-.47272-1.79211-1.64394-2.61761-1.31939v5.95489c.55033.58561,1.36172.96661,2.08139,1.36172,3.90878,2.14489,8.09978,3.35844,12.41072,4.21922,4.93889.98072,9.92717,1.87678,14.54856,4.09222,3.56306,1.7145,4.73428,4.52967,2.67406,7.28839-3.81706,5.12233-7.9375,9.99067-14.58383,11.1125-5.588.94544-10.63272,3.556-15.72683,6.00428-.52917.254-1.00894.56444-1.40406.93133v4.18394Z"/><path class="cls-1" d="m61.4607,243.18156c-.10583-.28928-.21872-.57856-.32456-.87489,7.47889.74083,12.24139-3.83117,16.86983-8.87589,3.28083-3.57011,6.93561-6.74511,10.32933-10.20233,1.78506-1.82033,3.13972-4.04283,4.16278-6.44172,1.9685-4.54378.40922-8.03628-4.21217-9.10167-2.95628-.67028-5.99722-.86783-8.96761-1.48167-8.763-1.79211-16.86983-5.334-25.13894-10.61861,1.4605-.29633,2.75872-.45861,3.97228-.45861,1.50989,0,2.87161.254,4.21217.83256,9.00994,3.90878,18.45733,5.91256,28.07406,6.97089,1.68628.18344,2.6035.6985,3.13972,1.59456.02822.04233.05644.09172.07761.13406v15.05656c-.02117.07761-.04939.16228-.07761.23989-1.34761,4.28272-3.96522,8.001-8.11389,11.18306-2.68817,2.06728-4.81894,4.953-7.16844,7.50711-2.18017,2.37067-4.59317,4.0005-7.44361,4.53672h-4.51556c-1.00894-.07056-2.032-.03528-3.06211,0h-1.81328Z"/><path class="cls-1" d="m79.05746,218.20487c-.16937.35985-.27518.86784-.57156,1.1783-3.00571,3.12569-5.58813,7.04868-9.94858,8.07883-5.5952,1.32648-10.95754,3.22448-16.1506,5.73632-.73378.35985-1.66514,1.00897-2.38484.75497v-3.78893c.43745-.29637.98076-.47983,1.57346-.56449,3.09744-.44452,6.22317-.75497,9.21479-1.74981,2.39191-.7973,4.71323-1.86273,5.08014-4.96722.36687-3.19627-1.47467-5.03781-3.83832-6.45602-2.93521-1.76393-6.20202-2.6459-9.32771-3.90886-.94544-.3881-1.94033-.69149-2.70236-1.41115v-3.11161c.32458-.07054.67737.02825,1.00195.20464,7.81773,4.1558,16.67272,4.31105,24.8009,7.26034,1.30534.47272,2.90696.7197,3.25273,2.74469Z"/><path class="cls-1" d="m80.84936,243.18156c-.29633-.03528-.62794-.08467-.98072-.13406,4.56494-4.90361,9.20044-9.88483,13.70894-14.72494v6.39233c-.62089.87489-1.60867,1.73567-3.06211,2.80811-1.2065.89606-2.30717,1.95439-3.37961,3.01978-1.60161,1.5875-2.45533,2.35656-3.52778,2.63878h-2.75872Z"/><path class="cls-1" d="m59.83759,223.65894c-2.65998.79024-5.43995,1.35469-8.19877,1.517-.73378.04233-1.2559-.07765-1.63694-.31752v-8.29756c.6421-.16227,1.68633.15521,3.3656.74084,2.32132.81143,4.72029,1.44642,6.78762,2.8999,1.89093,1.32648,1.87685,2.80821-.31752,3.45733Z"/><path class="cls-1" d="m93.57759,199.09139c-.6985.84667-2.08139.51506-3.2385.36689-6.31472-.85372-12.60122-1.87678-18.62667-4.28978,6.25828,0,12.51656-.01411,18.77483.01411,1.143.00706,2.42711.04939,3.09033.8255v3.08328Z"/></g></g></g></svg>