<?xml version="1.0" encoding="UTF-8"?><svg id="Layer_2" xmlns="http://www.w3.org/2000/svg" viewBox="0 0 75 98.475"><defs><style>.cls-1{fill:#f3d250;}</style></defs><path class="cls-1" d="m71.5,13.175L39.5.375c-1.3-.5-2.8-.5-4.1,0L3.6,13.175c-2.2.8-3.6,2.9-3.6,5.3v42.4c0,20.7,16.8,37.6,37.5,37.6,10,0,19.4-3.9,26.5-11s11-16.5,11-26.6V18.475c0-2.4-1.4-4.5-3.5-5.3Zm-34,77.8c-8,0-15.6-3.2-21.3-8.9-5.7-5.6-8.8-13.1-8.8-21.3V20.175c0-.4.3-.8.7-.9l29-11.7c.2-.1.6-.1.7,0l29.2,11.7c.3.1.6.5.6.9v40.6c0,16.7-13.5,30.2-30.1,30.2Z"/><path class="cls-1" d="m55.9,45.675h-14.9v-14.9c0-1.9-1.6-3.5-3.5-3.5s-3.5,1.6-3.5,3.5v14.9h-14.9c-1.9,0-3.5,1.6-3.5,3.5s1.6,3.5,3.5,3.5h14.9v14.9c0,1.9,1.6,3.5,3.5,3.5s3.5-1.6,3.5-3.5v-14.9h14.9c1.9,0,3.5-1.6,3.5-3.5s-1.5-3.5-3.5-3.5Z"/></svg>