<?xml version="1.0" encoding="UTF-8"?><svg id="Layer_2" xmlns="http://www.w3.org/2000/svg" viewBox="0 0 75 98.475"><defs><style>.cls-1{fill:#383838;}</style></defs><path class="cls-1" d="m71.5,13.175L39.5.375c-1.3-.5-2.8-.5-4.1,0L3.6,13.175c-2.2.8-3.6,2.9-3.6,5.3v42.4c0,20.7,16.8,37.6,37.5,37.6,10,0,19.4-3.9,26.5-11s11-16.5,11-26.6V18.475c0-2.4-1.4-4.5-3.5-5.3Zm-34,77.8c-8,0-15.6-3.2-21.3-8.9-5.7-5.6-8.8-13.1-8.8-21.3V20.175c0-.4.3-.8.7-.9l29-11.7c.2-.1.6-.1.7,0l29.2,11.7c.3.1.6.5.6.9v40.6c0,16.7-13.5,30.2-30.1,30.2Z"/><path class="cls-1" d="m35.08898,33.99704c-9.73594,0-17.58898,7.85304-17.58898,17.58898s7.85304,17.58898,17.58898,17.58898,17.58898-7.85304,17.58898-17.58898-7.85304-17.58898-17.58898-17.58898Zm0,29.02411c-6.29162,0-11.43513-5.12821-11.43513-11.43513s5.12821-11.43513,11.43513-11.43513,11.43513,5.12821,11.43513,11.43513-5.14351,11.43513-11.43513,11.43513h0Zm22.41102-29.74359c0,2.2809-1.83697,4.10256-4.10256,4.10256-2.2809,0-4.10256-1.83697-4.10256-4.10256s1.83697-4.10256,4.10256-4.10256,4.10256,1.83697,4.10256,4.10256Z"/></svg>