<?xml version="1.0" encoding="utf-8"?>
<!-- Generator: Adobe Illustrator 27.2.0, SVG Export Plug-In . SVG Version: 6.00 Build 0)  -->
<svg version="1.1" id="Layer_2_00000147905711757354327340000008574480497806658987_"
	 xmlns="http://www.w3.org/2000/svg" xmlns:xlink="http://www.w3.org/1999/xlink" x="0px" y="0px" viewBox="0 0 75 100"
	 style="enable-background:new 0 0 75 100;" xml:space="preserve">
<style type="text/css">
	.st0{fill:#383838;}
</style>
<path class="st0" d="M71.5,14l-32-12.8c-1.3-0.5-2.8-0.5-4.1,0L3.6,14C1.4,14.8,0,16.9,0,19.3v42.4c0,20.7,16.8,37.6,37.5,37.6
	c10,0,19.4-3.9,26.5-11s11-16.5,11-26.6V19.3C75,16.9,73.6,14.8,71.5,14z M37.5,91.8c-8,0-15.6-3.2-21.3-8.9
	c-5.7-5.6-8.8-13.1-8.8-21.3V21c0-0.4,0.3-0.8,0.7-0.9l29-11.7c0.2-0.1,0.6-0.1,0.7,0L67,20.1c0.3,0.1,0.6,0.5,0.6,0.9v40.6
	C67.6,78.3,54.1,91.8,37.5,91.8z"/>
<path class="st0" d="M16.6,47.8c-1.2,1.2-1.2,3.2,0,4.4l15.6,15.6c1.2,1.2,3.2,1.2,4.4,0c1.2-1.2,1.2-3.2,0-4.4L26.3,53.1h29.9
	c1.7,0,3.1-1.4,3.1-3.1c0-1.7-1.4-3.1-3.1-3.1H26.3l10.3-10.3c1.2-1.2,1.2-3.2,0-4.4c-1.2-1.2-3.2-1.2-4.4,0L16.6,47.8L16.6,47.8z"
	/>
</svg>
