<?xml version="1.0" encoding="UTF-8"?><svg id="Layer_2" xmlns="http://www.w3.org/2000/svg" viewBox="0 0 75 98.475"><defs><style>.cls-1{fill:#383838;}</style></defs><path class="cls-1" d="m71.5,13.175L39.5.375c-1.3-.5-2.8-.5-4.1,0L3.6,13.175c-2.2.8-3.6,2.9-3.6,5.3v42.4c0,20.7,16.8,37.6,37.5,37.6,10,0,19.4-3.9,26.5-11s11-16.5,11-26.6V18.475c0-2.4-1.4-4.5-3.5-5.3Zm-34,77.8c-8,0-15.6-3.2-21.3-8.9-5.7-5.6-8.8-13.1-8.8-21.3V20.175c0-.4.3-.8.7-.9l29-11.7c.2-.1.6-.1.7,0l29.2,11.7c.3.1.6.5.6.9v40.6c0,16.7-13.5,30.2-30.1,30.2Z"/><path class="cls-1" d="m26.45357,69.17421h-8.29286v-26.70536h8.29286v26.70536Zm-4.15089-30.34821c-2.65179,0-4.80268-2.19643-4.80268-4.84821.00038-2.65245,2.15092-4.80237,4.80337-4.80199,2.65191.00038,4.80161,2.15008,4.80199,4.80199,0,2.65179-2.15179,4.84821-4.80268,4.84821Zm35.18839,30.34821h-8.275v-13c0-3.09822-.0625-7.07143-4.31161-7.07143-4.31161,0-4.97232,3.36607-4.97232,6.84821v13.22321h-8.28393v-26.70536h7.95357v3.64286h.11607c1.10714-2.09821,3.81161-4.3125,7.84643-4.3125,8.39286,0,9.93571,5.52679,9.93571,12.70536v14.66964h-.00893Z"/></svg>