<?xml version="1.0" encoding="UTF-8"?><svg id="Layer_2" xmlns="http://www.w3.org/2000/svg" viewBox="0 0 200 46.99318"><defs><style>.cls-1{fill:#383838;}</style></defs><g id="Layer_1-2"><g><path class="cls-1" d="m0,46.99318V.00045h15.46203v7.54996H7.01677v14.31926h7.69998v7.54996h-7.69998v17.57355H0Z"/><path class="cls-1" d="m45.76247,46.99318l-1.67624-12.62681c-.37288-2.99406-.80734-4.94674-2.67027-4.94674h-.68321v17.57355h-7.01677V.00045h11.11552C49.86122.00045,51.84828,4.23107,51.84828,9.11276v8.26608c0,3.18923-.8694,6.83384-3.91206,8.26608,1.98706.58549,2.54564,3.96989,3.10472,8.26556l1.7388,13.08271h-7.01727Zm-.86891-36.77397c0-1.6274-.12462-2.66879-1.925-2.66879h-2.23581v14.31926h1.925c1.80087,0,2.23581-1.56235,2.23581-4.55589v-7.09458Z"/><path class="cls-1" d="m71.09576,46.99318V.00045h15.46203v7.54996h-8.44525v12.17142h7.69998v7.54996h-7.69998v12.17091h8.44525v7.55048h-15.46203Z"/><path class="cls-1" d="m116.85873,34.30132c0-2.343-.24826-3.18923-3.6638-5.72791l-3.53868-2.60322c-3.53967-2.60374-4.90608-4.49084-4.90608-10.28381v-4.36118c0-6.37846,2.48358-11.3252,9.56291-11.3252s9.56291,4.94674,9.56291,11.3252v7.35479h-6.89314v-6.05318c0-2.53817-.06206-4.88168-2.66977-4.88168-2.48358,0-2.54564,2.34352-2.54564,4.88168v1.75796c0,3.44945.24826,4.23062,3.91206,6.96395l3.53967,2.60374c3.35249,2.47311,4.65683,4.49084,4.65683,9.17736v2.53823c0,6.37846-2.48358,11.32468-9.62498,11.32468s-9.62498-4.94622-9.62498-11.32468v-3.5145h6.89215v2.21238c0,2.5392.06206,4.8822,2.73282,4.8822,2.54564,0,2.60771-2.343,2.60771-4.8822v-.0646Z"/><path class="cls-1" d="m155.29361,18.68044v-6.05318c0-2.53817-.06206-4.88168-2.73184-4.88168-2.54564,0-2.60771,2.34352-2.60771,4.88168v21.73911c0,2.5392.06206,4.8822,2.60771,4.8822,2.66977,0,2.73184-2.343,2.73184-4.8822v-2.21238h6.89314v3.5145c0,6.37846-2.48456,11.32468-9.62498,11.32468-7.1414,0-9.62498-4.94622-9.62498-11.32468V11.32565C142.9368,4.94719,145.42038.00045,152.56178.00045c7.14041,0,9.62498,4.94674,9.62498,11.3252v7.35479h-6.89314Z"/><path class="cls-1" d="m192.98273,46.99272v-17.57355h-5.27748v17.57355h-7.01727V0h7.01727v21.86922h5.27748V0h7.01727v46.99272h-7.01727Z"/></g></g></svg>