<?xml version="1.0" encoding="UTF-8"?><svg id="Layer_2" xmlns="http://www.w3.org/2000/svg" viewBox="0 0 500 463.50437"><defs><style>.cls-1{fill:#383838;}</style></defs><g id="Layer_1-2"><g><g><path class="cls-1" d="m0,397.71985v-117.48181h38.65506v18.8749h-21.11313v35.79815h19.24995v18.8749h-19.24995v43.93386H0Z"/><path class="cls-1" d="m114.40618,397.71985l-4.19061-31.56702c-.9322-7.48516-2.01834-12.36685-6.67566-12.36685h-1.70801v43.93386h-17.54194v-117.48181h27.78879c12.57429,0,17.54194,10.57655,17.54194,22.78076v20.66519c0,7.97307-2.1735,17.0846-9.78014,20.66519,4.96765,1.46373,6.36411,9.92471,7.7618,20.6639l4.347,32.70676h-17.54317Zm-2.17227-91.93494c0-4.0685-.31156-6.67198-4.81249-6.67198h-5.58953v35.79815h4.81249c4.50216,0,5.58953-3.90586,5.58953-11.38973v-17.73644Z"/><path class="cls-1" d="m177.73941,397.71985v-117.48181h38.65506v18.8749h-21.11313v30.42856h19.24995v18.8749h-19.24995v30.42727h21.11313v18.87619h-38.65506Z"/><path class="cls-1" d="m292.14683,365.9902c0-5.8575-.62065-7.97307-9.15949-14.31978l-8.8467-6.50805c-8.84917-6.50934-12.26519-11.2271-12.26519-25.70951v-10.90296c0-15.94615,6.20895-28.31299,23.90728-28.31299s23.90728,12.36685,23.90728,28.31299v18.38699h-17.23284v-15.13296c0-6.34541-.15516-12.20421-6.67443-12.20421-6.20895,0-6.36411,5.85879-6.36411,12.20421v4.3949c0,8.62362.62065,10.57655,9.78014,17.40988l8.84917,6.50934c8.38122,6.18278,11.64208,11.2271,11.64208,22.9434v6.34557c0,15.94615-6.20895,28.3117-24.06244,28.3117s-24.06244-12.36556-24.06244-28.3117v-8.78626h17.23038v5.53094c0,6.348.15516,12.2055,6.83206,12.2055,6.36411,0,6.51927-5.8575,6.51927-12.2055v-.16151Z"/><path class="cls-1" d="m388.23403,326.93802v-15.13296c0-6.34541-.15516-12.20421-6.8296-12.20421-6.36411,0-6.51927,5.85879-6.51927,12.20421v54.34778c0,6.348.15516,12.2055,6.51927,12.2055,6.67443,0,6.8296-5.8575,6.8296-12.2055v-5.53094h17.23284v8.78626c0,15.94615-6.21141,28.3117-24.06244,28.3117-17.85349,0-24.06244-12.36556-24.06244-28.3117v-60.85712c0-15.94615,6.20895-28.31299,24.06244-28.31299,17.85103,0,24.06244,12.36685,24.06244,28.31299v18.38699h-17.23284Z"/><path class="cls-1" d="m482.45683,397.71872v-43.93386h-13.1937v43.93386h-17.54317v-117.48181h17.54317v54.67305h13.1937v-54.67305h17.54317v117.48181h-17.54317Z"/></g><g><path class="cls-1" d="m183.05072,442.04148v.98161c0,2.82438-.86237,4.62982-2.78584,5.53193,2.31491.90212,3.21823,2.98216,3.21823,5.88604v2.23662c0,4.23717-2.23662,6.51354-6.55329,6.51354h-6.78815v-27.46696h6.51354c4.47324,0,6.39551,2.08005,6.39551,6.31722Zm-8.59238,4.86589h1.6874c1.60791,0,2.58952-.707,2.58952-2.90387v-1.52962c0-1.96201-.66725-2.82559-2.19808-2.82559h-2.07884v7.25908Zm0,12.35983h2.47148c1.45254,0,2.23662-.66725,2.23662-2.70755v-2.3932c0-2.55098-.82383-3.33506-2.78584-3.33506h-1.92227v8.43581Z"/><path class="cls-1" d="m200.7835,459.81642v-4.31667c0-2.54977-.86237-3.49163-2.82438-3.49163h-1.49108v11.18311h-4.31667v-27.46696h6.51354c4.47324,0,6.39551,2.08005,6.39551,6.31722v2.15833c0,2.82559-.90212,4.66956-2.82438,5.57168,2.15833.90212,2.86413,2.98216,2.86413,5.84629v4.23838c0,1.3333.03854,2.31491.47093,3.33506h-4.39495c-.23486-.707-.39264-1.13818-.39264-3.3748Zm-4.31546-11.73232h1.6874c1.60791,0,2.58952-.70579,2.58952-2.90387v-2.70635c0-1.96201-.66725-2.82559-2.19808-2.82559h-2.07884v8.43581Z"/><path class="cls-1" d="m223.61702,463.19122l-.74554-4.98392h-5.29707l-.74554,4.98392h-3.96377l4.39495-27.46696h6.31722l4.39495,27.46696h-4.35521Zm-1.33451-8.71162l-2.08005-13.88945-2.07884,13.88945h4.15889Z"/><path class="cls-1" d="m239.89847,463.19122h-3.88428v-27.46696h5.4139l4.4347,16.44043v-16.44043h3.84453v27.46696h-4.4335l-5.37536-19.89352v19.89352Z"/><path class="cls-1" d="m265.71296,435.72426c4.31546,0,6.43525,2.3932,6.43525,6.78815v13.89066c0,4.39375-2.11979,6.78815-6.43525,6.78815h-6.8279v-27.46696h6.8279Zm-2.51123,23.54294h2.43294c1.37305,0,2.19688-.70579,2.19688-2.66781v-14.2833c0-1.96201-.82383-2.66781-2.19688-2.66781h-2.43294v19.61891Z"/><path class="cls-1" d="m285.28971,435.72426v27.46696h-4.31667v-27.46696h4.31667Z"/><path class="cls-1" d="m298.35413,463.19122h-3.88428v-27.46696h5.4139l4.4347,16.44043v-16.44043h3.84453v27.46696h-4.4335l-5.37536-19.89352v19.89352Z"/><path class="cls-1" d="m329.85833,447.88777v8.71162c0,4.39375-2.19808,6.90498-6.43525,6.90498-4.23838,0-6.43525-2.51123-6.43525-6.90498v-14.2833c0-4.39495,2.19687-6.90618,6.43525-6.90618,4.23717,0,6.43525,2.51123,6.43525,6.90618v2.66901h-4.0818v-2.94362c0-1.96201-.86237-2.70755-2.23662-2.70755-1.37305,0-2.23542.74554-2.23542,2.70755v14.83252c0,1.96201.86237,2.66781,2.23542,2.66781,1.37425,0,2.23662-.70579,2.23662-2.66781v-5.06221h-1.96081v-3.92402h6.04261Z"/></g><g><path class="cls-1" d="m297.80539,126.29906c9.08285-6.05912,15.57063-16.58632,15.57063-26.9667.43443-18.1716-13.84457-30.14315-32.01603-30.14315-4.19791,0-8.12786.40861-11.78737,1.19054.61917-1.19369,1.23861-2.3113,1.85407-3.30941,6.20004,1.00978,12.68783,1.73196,19.89765,1.73196,7.79122,0,15.43562-3.60498,15.43562-10.09854,0-5.76561-5.9182-8.79524-13.26909-8.79524-9.22967.28774-18.1716,3.89273-24.37164,10.5272-6.49355-1.43845-12.54691-3.17041-18.1716-4.75569-10.52706-3.17632-20.1913-5.91243-30.85929-5.91243-12.69373,0-24.9529,11.53712-24.9529,25.52248,0,12.54691,8.65418,21.0544,22.63954,21.0544,5.19616,0,10.77745-1.18175,15.86414-3.60498l.00563-.00563,24.48358-11.59893c-2.66401,7.05449-5.12254,14.57293-6.74614,19.68339l-2.45428,7.49757h-10.38038c-1.73196,0-3.02949,1.44436-3.02949,3.17055,0,1.59104,1.29753,3.02949,3.02949,3.02949h8.36067c-11.6779,31.29399-15.28879,44.12851-35.33327,44.12851-.94097,0-1.8369-.06552-2.71098-.16166-.10933-.74594-.18446-1.5155-.18446-2.33423,0-8.50736,7.06904-17.30259,14.85436-17.30259.86296,0,1.58514,0,2.30731.28774,2.01971.57535,3.89273-1.00992,3.89273-3.02963,0-1.29753-.8631-2.30731-2.16063-2.8828-1.44436-.57535-2.74188-.57535-4.18624-.57535-10.81495,0-20.76666,11.24938-20.76666,23.79629,0,.11276.01483.2188.01648.33073-6.49767-3.07125-9.94979-9.68168-9.94979-17.88536,0-13.40987,12.25339-24.51242,25.08791-24.51242,1.7321,0,3.02963-1.44436,3.02963-3.17645,0-1.58514-1.29753-3.02949-3.02963-3.02949-16.14598.29351-30.28393,13.12817-31.14703,30.57758-.23899,11.97375,6.00116,21.93535,17.3666,24.97872,2.97771,7.462,10.54492,12.03899,19.686,12.03899,24.07812,0,32.59139-28.26423,40.81127-55.37775.61395-1.97548,1.22295-3.93187,1.83236-5.87082h1.92617c1.73196,0,3.02949-1.43845,3.02949-3.02949,0-1.70408-1.26663-3.12742-2.96521-3.16382,2.04786-6.18205,4.16605-11.88159,6.55756-16.48784,1.58527-3.46406,5.48377-7.20996,8.80101-7.79122,1.1507-.28774,2.44837-1.29753,2.44837-3.45816-.28774-1.58527-1.58527-2.59506-3.02963-2.59506-4.61477,0-10.66812,5.33104-13.69761,10.95573-2.75947,5.41853-5.17927,12.12992-7.49482,19.36982h-6.4838l1.7321-5.62469c2.24592-6.83335,5.55052-16.77009,9.10661-25.16482,4.41245-1.47004,9.37128-2.27792,14.96465-2.27792,14.70753,0,26.53226,9.51728,26.1036,23.79615,0,8.79524-5.77151,18.45934-14.71344,23.21503-4.61477-3.17041-12.25326-5.04343-17.5902-5.04343-4.6149,0-7.50361,2.44837-7.50361,7.06314,0,6.20004,5.19616,7.35679,11.68395,7.35679,3.46392,0,9.51728-1.15675,12.6936-2.45428,6.20004,4.90251,9.51742,13.70352,9.51742,22.06419,0,15.1421-9.51742,27.40127-25.52839,27.40127-9.6641,0-18.89364-3.7459-18.89364-12.68783,0-5.0492,4.03941-9.6641,8.94193-9.6641,3.31724,0,6.63447,2.8828,8.21975,7.49757.43443,1.29767,1.59104,2.01971,2.88871,2.01971,2.30731,0,3.60484-2.16063,2.88267-4.03941-2.59506-6.77539-7.49757-11.53699-14.13204-11.53699-7.6444,0-14.85436,6.63447-14.85436,15.72323,0,11.82473,10.5272,18.74695,24.94699,18.74695,18.74695,0,31.72843-14.56661,31.72843-33.17264,0-7.92624-2.30745-16.00506-7.20996-22.20511l-2.59506-3.02963Zm-4.31452-70.33127c2.8828,0,7.06314.86296,7.06314,2.59506,0,2.59506-4.75569,4.18033-9.22967,4.18033-5.19012,0-9.9458-.42866-14.56071-1.00992,5.04343-3.31724,10.09277-5.62455,16.72724-5.76547Zm-33.52522,58.54816c-.41603,1.36991-.83068,2.75095-1.24534,4.13872-6.77539,22.49876-14.70753,51.05073-35.18645,51.05073-4.88205,0-9.27609-1.6968-11.99875-5.0036.0136,0,.0261.00179.03983.00179,24.08389,0,28.9864-14.41979,41.82106-50.18763h6.56965Zm1.52512-41.67904l-1.95447.92587c-.09958.04752-.20025.09367-.29928.14188l-.2898.13721-27.90382,13.21923.00055.00041c-4.25794,2.02506-8.94179,3.02963-13.12212,3.02963-9.80502,0-16.72724-4.76159-16.72724-15.14197,0-9.81093,9.22967-19.32821,18.89377-19.32821,9.94594,0,19.17548,2.74188,29.12732,5.62469,5.04934,1.44436,10.23946,3.02949,15.86414,4.32716-1.14823,1.84335-2.36363,4.29076-3.58905,7.0641Zm18.43064,52.73997c-2.1664,0-6.34673,0-6.34673-1.1507,0-1.00992.86887-1.15661,2.01971-1.15661,1.29753,0,7.35665,1.15661,8.7951,1.73196-1.43845.28774-2.8828.57535-4.46808.57535Z"/><path class="cls-1" d="m331.58477,32.01982L253.03977.58135c-1.95844-.77513-4.12098-.77513-6.05913,0l-78.54499,31.43847c-3.10104,1.22403-5.14117,4.22308-5.14117,7.56893v104.29142c0,47.90221,38.82373,86.70551,86.70551,86.70551,23.9511,0,45.61727-9.71104,61.30587-25.37922,15.6886-15.70902,25.39964-37.37519,25.39964-61.32629V39.58875c0-3.34584-2.01971-6.3449-5.12075-7.56893Zm-1.48925,111.86035c0,44.23-35.86551,80.09539-80.09551,80.09539-22.11494,0-42.1286-8.9765-56.63402-23.46149-14.48487-14.48487-23.44107-34.51896-23.44107-56.6339V44.05663c0-3.32542,2.01971-6.32448,5.12075-7.56893L246.98065,7.7218c1.93815-.77513,4.10068-.77513,6.05913,0l71.91457,28.7659c3.10104,1.24445,5.14117,4.2435,5.14117,7.56893v99.82353Z"/></g></g></g></svg>