<?xml version="1.0" encoding="UTF-8"?><svg id="Layer_2" xmlns="http://www.w3.org/2000/svg" viewBox="0 0 250 332.4265"><defs><style>.cls-1{fill:#383838;}</style></defs><g id="Layer_1-2"><g><g><g><path class="cls-1" d="m68.66666,63.43207v3.44738h-4.89572v9.96154h-3.79094v-24.13h10.03059v3.44738h-6.23965v7.27369h4.89572Z"/><path class="cls-1" d="m90.11942,73.87652v-3.79245c0-2.23977-.75782-3.06831-2.48227-3.06831h-1.31018v9.82466h-3.79076v-24.12886h5.72235c3.92885,0,5.61794,1.82718,5.61794,5.5489v1.89622c0,2.48227-.79318,4.10231-2.48227,4.89549,1.89622.7915,2.51595,2.61867,2.51595,5.13631v3.72172c0,1.17209.03536,2.03431.41427,2.93022h-3.85981c-.20714-.61972-.34523-1.00032-.34523-2.9639Zm-3.79245-10.3063h1.48195c1.41459,0,2.27513-.62141,2.27513-2.55131v-2.37786c0-1.72445-.58604-2.48227-1.9299-2.48227h-1.82718v7.41144Z"/><path class="cls-1" d="m116.08724,62.87977v3.44722h-5.20535v7.06621h6.54921v3.44722h-10.33998v-24.12886h10.33998v3.44722h-6.54921v6.72098h5.20535Z"/><path class="cls-1" d="m135.5749,52.43538c3.68804,0,5.58426,2.20609,5.58426,6.06758v.75782h-3.58363v-1.00032c0-1.72277-.69045-2.37786-1.89622-2.37786s-1.89622.65509-1.89622,2.37786c0,4.96454,7.41312,5.89412,7.41312,12.78856,0,3.86149-1.93327,6.06758-5.65499,6.06758s-5.65162-2.20609-5.65162-6.06758v-1.48195h3.58363v1.72445c0,1.72277.75782,2.34249,1.96359,2.34249,1.20914,0,1.96695-.61972,1.96695-2.34249,0-4.96454-7.41312-5.89581-7.41312-12.78856,0-3.86149,1.89622-6.06758,5.58426-6.06758Z"/><path class="cls-1" d="m165.05899,71.04903c0,3.86149-1.9299,6.06758-5.65162,6.06758-3.72509,0-5.65499-2.20609-5.65499-6.06758v-12.54606c0-3.86149,1.9299-6.06758,5.65499-6.06758,3.72172,0,5.65162,2.20609,5.65162,6.06758v2.34418h-3.58363v-2.58668c0-1.72277-.75782-2.37786-1.96695-2.37786-1.20577,0-1.96359.65509-1.96359,2.37786v13.03107c0,1.72277.75782,2.34249,1.96359,2.34249,1.20914,0,1.96695-.61972,1.96695-2.34249v-3.44722h3.58363v3.20472Z"/><path class="cls-1" d="m178.06648,76.84042v-24.12886h3.79245v10.34166h4.30776v-10.34166h3.86318v24.12886h-3.86318v-10.34166h-4.30776v10.34166h-3.79245Z"/></g><g><path class="cls-1" d="m72.50924,270.55858l-.61581.6316c-1.77279,1.81729-3.46088,2.4374-5.26525,1.81154.92443,2.0326.19953,3.93889-1.6235,5.80785l-1.40244,1.43833c-2.6599,2.72737-5.52794,2.79053-8.30698.08039l-4.36809-4.26043,17.23838-17.67907,4.19297,4.08818c2.87809,2.80775,2.81062,5.35425.15072,8.08161Zm-16.34122,5.69302l1.59048,1.55029c.93448.91295,1.85891.97611,3.13934-.33877l1.50149-1.53881c1.60053-1.64216,1.56321-2.66421.30001-3.89583l-1.23736-1.20578-5.29396,5.42889Zm7.7572-7.95529l1.0852,1.05937c1.0364,1.01056,2.11012,1.17133,3.48959-.24403l.96032-.98472c1.23162-1.2632,1.34359-2.23644.35886-3.19819l-1.33784-1.30339-4.55614,4.67097Z"/><path class="cls-1" d="m76.70364,292.7134l2.0039-3.32164c1.18425-1.96083.95601-3.08623-.55265-3.99631l-1.14693-.69189-5.19061,8.60412-3.32164-2.0039,12.74828-21.13278,5.01261,3.02307c3.44079,2.07567,3.95468,4.56762,1.98811,7.82897l-1.00195,1.65939c-1.31057,2.17328-2.86086,3.17523-4.75997,2.97713,1.24167,1.69671.81965,3.62309-.50959,5.82795l-1.96657,3.25848c-.61868,1.02779-1.04501,1.80006-1.18569,2.78478l-3.38193-2.03835c.14785-.65457.2268-1.05937,1.26464-2.77904Zm2.12447-11.03004l1.29909.78376c1.23736.74644,2.3197.65744,3.3403-1.03353l1.25602-2.08141c.91008-1.5101.79811-2.48334-.37896-3.19532l-1.60053-.96463-3.91592,6.49113Z"/><path class="cls-1" d="m97.19907,304.7052l.72921-4.47288-4.53604-1.45268-2.00533,4.06234-3.39485-1.08808,11.29991-22.31272,5.4088,1.73403-3.77238,24.72428-3.72931-1.1943Zm1.24741-7.8261l2.02973-12.4655-5.5911,11.32574,3.56136,1.13975Z"/><path class="cls-1" d="m115.08054,308.12158l-3.48241-.24977,1.75987-24.61806,4.85184.34738,2.92259,15.01773,1.05219-14.73351,3.44653.2469-1.75843,24.61519-3.97478-.28135-3.54414-18.17574-1.27325,17.83123Z"/><path class="cls-1" d="m137.74064,282.78866c3.8298-.63734,6.06049,1.1742,6.70932,5.0729l2.04983,12.32195c.64595,3.8987-.8785,6.3361-4.70829,6.97344l-6.05762,1.00482-4.05086-24.36542,6.05762-1.00769Zm1.2431,21.25622l2.15893-.35886c1.21727-.20096,1.846-.95027,1.55603-2.69004l-2.10725-12.6722c-.28996-1.73977-1.1254-2.24505-2.34266-2.04122l-2.15893.35886,2.89388,17.40346Z"/><path class="cls-1" d="m152.91053,278.55407l8.57254,23.14241-3.63457,1.34646-8.57254-23.14241,3.63457-1.34646Z"/><path class="cls-1" d="m174.66917,295.38622l-2.98575,1.81729-12.84158-21.1012,4.15995-2.53214,11.0932,10.55634-7.68543-12.62914,2.95417-1.80006,12.84158,21.1012-3.40777,2.07567-13.43012-12.76981,9.30175,15.28186Z"/><path class="cls-1" d="m189.76442,265.80435l5.49779,5.57818c2.7733,2.81349,2.9513,5.80785.23829,8.48067-2.71301,2.67569-5.7045,2.45463-8.4778-.35886l-9.01179-9.14385c-2.7733-2.81349-2.9513-5.80785-.23829-8.48354,2.71301-2.67282,5.7045-2.45176,8.4778.36173l1.68235,1.70819-2.61253,2.57521-1.85748-1.88619c-1.23736-1.25459-2.25941-1.18856-3.13791-.32154-.88137.86702-.96176,1.88906.27561,3.14652l9.35917,9.4941c1.23736,1.25746,2.23644,1.16272,3.11494.29857.88137-.86702.98759-1.86609-.24977-3.12068l-3.19532-3.24126-1.25459,1.23736-2.4776-2.51205,3.86712-3.81257Z"/></g><path class="cls-1" d="m174.04579,178.313c9.31824-6.21615,15.97417-17.01618,15.97417-27.66558.44569-18.64254-14.20338-30.92436-32.84578-30.92436-4.30671,0-8.33851.4192-12.09286,1.22139.63521-1.22463,1.27071-2.3712,1.90212-3.39518,6.36072,1.03596,13.01665,1.77685,20.41333,1.77685,7.99314,0,15.83565-3.69841,15.83565-10.36025,0-5.91503-6.07158-9.02318-13.61297-9.02318-9.46887.2952-18.64254,3.99361-25.00326,10.80003-6.66184-1.47573-12.87208-3.25258-18.64254-4.87894-10.79989-3.25864-20.71459-6.06566-31.65905-6.06566-13.02271,0-25.59959,11.83612-25.59959,26.18393,0,12.87208,8.87847,21.60006,23.22628,21.60006,5.33083,0,11.05676-1.21237,16.27529-3.69841l.00578-.00578,25.1181-11.89953c-2.73305,7.23731-5.2553,14.95061-6.92097,20.19351l-2.51788,7.69188h-10.6494c-1.77685,0-3.10801,1.48179-3.10801,3.25272,0,1.63228,1.33116,3.10801,3.10801,3.10801h8.57735c-11.98055,32.10502-15.68502,45.27216-36.24898,45.27216-.96536,0-1.8845-.06721-2.78124-.16585-.11216-.76527-.18924-1.55478-.18924-2.39473,0-8.72784,7.25225-17.75102,15.23933-17.75102.88532,0,1.62622,0,2.36711.2952,2.07205.59026,3.99361-1.0361,3.99361-3.10815,0-1.33116-.88547-2.36711-2.21662-2.95752-1.48179-.59026-2.81294-.59026-4.29473-.59026-11.09523,0-21.30485,11.54092-21.30485,24.413,0,.11569.01522.22447.01691.33931-6.66607-3.15084-10.20765-9.9326-10.20765-18.34889,0-13.7574,12.57096-25.1477,25.7381-25.1477,1.77699,0,3.10815-1.48179,3.10815-3.25878,0-1.62622-1.33116-3.10801-3.10815-3.10801-16.56443.30112-31.06879,13.4684-31.95425,31.37005-.24518,12.28407,6.15669,22.50384,17.81668,25.62608,3.05488,7.65539,10.81821,12.351,20.19619,12.351,24.70214,0,33.43604-28.99674,41.86896-56.81295.62986-2.02668,1.25464-4.03377,1.87985-6.02297h1.97609c1.77685,0,3.10801-1.47573,3.10801-3.10801,0-1.74824-1.29945-3.20847-3.04206-3.24581,2.10094-6.34227,4.27402-12.18952,6.72751-16.91515,1.62636-3.55384,5.62589-7.39682,9.0291-7.99314,1.18053-.2952,2.51182-1.33116,2.51182-3.54778-.2952-1.62636-1.62636-2.66231-3.10815-2.66231-4.73437,0-10.9446,5.4692-14.05261,11.23966-2.83098,5.55896-5.3135,12.44428-7.68906,19.87182h-6.65184l1.77699-5.77046c2.30413-7.01045,5.69437-17.20472,9.34262-25.81701,4.52681-1.50814,9.61415-2.33696,15.35248-2.33696,15.0887,0,27.21989,9.76393,26.78011,24.41286,0,9.02318-5.92109,18.93774-15.09476,23.81668-4.73437-3.25258-12.57082-5.17414-18.04608-5.17414-4.73451,0-7.69808,2.51182-7.69808,7.24619,0,6.36072,5.33083,7.54745,11.98675,7.54745,3.5537,0,9.76393-1.18673,13.02257-2.51788,6.36072,5.02957,9.76407,14.05866,9.76407,22.63601,0,15.53453-9.76407,28.11141-26.18999,28.11141-9.91456,0-19.38329-3.84298-19.38329-13.01665,0-5.18006,4.1441-9.91456,9.17367-9.91456,3.40321,0,6.80642,2.95752,8.43278,7.69188.44569,1.3313,1.63228,2.07205,2.96358,2.07205,2.36711,0,3.69827-2.21662,2.95738-4.1441-2.66231-6.95099-7.69188-11.83598-14.4983-11.83598-7.84251,0-15.23933,6.80642-15.23933,16.13072,0,12.13119,10.80003,19.2328,25.59353,19.2328,19.2328,0,32.55072-14.94413,32.55072-34.03236,0-8.13166-2.36725-16.41986-7.39682-22.78058l-2.66231-3.10815Zm-4.42634-72.15401c2.95752,0,7.24619.88532,7.24619,2.66231,0,2.66231-4.87894,4.28867-9.46887,4.28867-5.32463,0-10.20357-.43977-14.93807-1.0361,5.17414-3.40321,10.35434-5.77032,17.16075-5.91489Zm-34.39407,60.06552c-.42681,1.40542-.85221,2.82224-1.27761,4.24598-6.95099,23.08184-15.0887,52.37378-36.09835,52.37378-5.00857,0-9.5165-1.74078-12.30972-5.13328.01395,0,.02677.00183.04086.00183,24.70806,0,29.73763-14.7935,42.90491-51.48832h6.73991Zm1.56464-42.75921l-2.00512.94986c-.10216.04875-.20544.0961-.30704.14556l-.29732.14077-28.62699,13.56182.00056.00042c-4.36829,2.07755-9.17353,3.10815-13.4622,3.10815-10.05913,0-17.16075-4.885-17.16075-15.53439,0-10.06519,9.46887-19.82913,19.38343-19.82913,10.20371,0,19.67244,2.81294,29.8822,5.77046,5.1802,1.48179,10.50483,3.10801,16.27529,4.4393-1.17799,1.89113-2.42488,4.40196-3.68206,7.24718Zm18.90829,54.10681c-2.22254,0-6.51121,0-6.51121-1.18053,0-1.0361.89138-1.18659,2.07205-1.18659,1.33116,0,7.54731,1.18659,9.02304,1.77685-1.47573.2952-2.95752.59026-4.58388.59026Z"/></g><path class="cls-1" d="m242.61762,46.16174L129.38232.83811c-2.82341-1.11748-5.94105-1.11748-8.73521,0L7.41182,46.16174c-4.47065,1.76463-7.41182,6.08826-7.41182,10.91183v150.35293c0,69.05877,55.97067,125,125,125,34.52938,0,65.76466-14.00003,88.38232-36.58824,22.61765-22.64709,36.61768-53.88237,36.61768-88.41176V57.07357c0-4.82357-2.91174-9.1472-7.38238-10.91183Zm-2.147,161.26476c0,63.76468-51.70593,115.47044-115.47062,115.47044-31.88225,0-60.73519-12.94107-81.64709-33.82353-20.88228-20.88228-33.79409-49.76466-33.79409-81.64691V63.51475c0-4.79413,2.91174-9.11775,7.38238-10.91183L120.64712,11.13223c2.79415-1.11748,5.91179-1.11748,8.73521,0l103.67647,41.4707c4.47065,1.79407,7.41182,6.1177,7.41182,10.91183v143.91174Z"/></g></g></svg>