<?xml version="1.0" encoding="UTF-8"?><svg id="Layer_2" xmlns="http://www.w3.org/2000/svg" xmlns:xlink="http://www.w3.org/1999/xlink" viewBox="0 0 621.17334 1311.82983"><defs><style>.cls-1{clip-path:url(#clippath);}.cls-2{fill:none;}.cls-3{fill:#383838;}</style><clipPath id="clippath"><path class="cls-2" d="m621.17334,48.30165L509.06689,3.30739c-10.99634-4.40985-23.26587-4.40985-34.3772,0L29.05322,182.16487C11.45898,189.12837,0,206.19038,0,225.22517v593.32652c0,136.26074,55.09717,259.52228,144.1084,348.89276,89.01172,89.13831,211.93774,144.38538,347.82764,144.38538,44.72363,0,88.05323-5.98535,129.2373-17.19739V48.30165Z"/></clipPath></defs><g id="Layer_2-2"><g><g class="cls-1"><image width="4480" height="6720" transform="translate(-42.43462) scale(.19521)" xlink:href="../../../../../../Pictures/Freek/087A8587.jpg"/></g><path class="cls-3" d="m0,225.22517v593.32652c0,136.26074,55.09717,259.52228,144.1084,348.89276,89.01172,89.13831,211.93774,144.38538,347.82764,144.38538,44.72363,0,88.05323-5.98535,129.2373-17.19739v-39.12695c-40.96216,12.17578-84.33569,18.71863-129.2373,18.71863-250.94531,0-454.43311-204.04272-454.43311-455.67249V250.64363c0-18.91888,11.57495-35.98053,29.16895-43.06067L474.68968,43.93025c11.11134-4.40979,23.38087-4.40979,34.3772,0l112.10645,44.95221v-40.58081S509.06689,3.30739,509.06689,3.30739c-10.99634-4.40985-23.26587-4.40985-34.3772,0L29.05322,182.16487C11.45898,189.12837,0,206.19038,0,225.22517Z"/></g></g></svg>