<?xml version="1.0" encoding="UTF-8"?><svg id="Layer_2" xmlns="http://www.w3.org/2000/svg" viewBox="0 0 621.17334 1311.82979"><defs><style>.cls-1{fill:#383838;}</style></defs><g id="Layer_1-2"><path class="cls-1" d="M592.12012,182.16487L146.48364,3.30739c-11.11133-4.40985-23.38086-4.40985-34.3772,0L0,48.30165v40.58081L112.10645,43.93025c10.99634-4.40979,23.26587-4.40979,34.3772,0l408.01782,163.65271c17.59399,7.08014,29.16895,24.14178,29.16895,43.06067V818.55165c0,251.62982-203.48779,455.67249-454.43311,455.67249-44.90161,0-88.27515-6.54285-129.2373-18.71863v39.12695c41.18408,11.21198,84.51367,17.19733,129.2373,17.19733,135.88989,0,258.81592-55.24713,347.82764-144.38538,89.01123-89.37042,144.1084-212.63202,144.1084-348.89276V225.22517c0-19.03479-11.45898-36.0968-29.05322-43.0603Z"/></g></svg>