<?xml version="1.0" encoding="UTF-8"?><svg id="Layer_2" xmlns="http://www.w3.org/2000/svg" viewBox="0 0 200 266.66667"><defs><style>.cls-1{fill:#fff;}</style></defs><g id="Layer_1-2"><path class="cls-1" d="m194.09408,37.03019L103.50581.67232c-2.25867-.89643-4.75283-.89643-6.98813,0L5.92947,37.03019c-3.57653,1.41552-5.92947,4.88387-5.92947,8.75322v120.61046c0,55.39774,44.77656,100.2728,100,100.2728,27.62351,0,52.61167-11.23053,70.70585-29.35042,18.09408-18.16707,29.29415-43.22349,29.29415-70.92234V45.78341c0-3.86936-2.32939-7.33771-5.90592-8.75322Zm-1.71763,129.36371c0,51.1509-41.36473,92.62838-92.37645,92.62838-25.50581,0-48.58816-10.38108-65.31771-27.13263-16.70581-16.75138-27.03525-39.92037-27.03525-65.49573V50.95042c0-3.84582,2.32939-7.31408,5.90592-8.75331L96.51768,8.93008c2.23533-.89643,4.72947-.89643,6.98813,0l82.94123,33.26707c3.57646,1.43923,5.92942,4.90749,5.92942,8.75331v115.44342l-.00002.00003Z"/></g></svg>