<?xml version="1.0" encoding="UTF-8"?><svg id="Layer_2" xmlns="http://www.w3.org/2000/svg" viewBox="0 0 75 100"><defs><style>.cls-1{fill:#fff;}</style></defs><g id="Layer_1-2"><path class="cls-1" d="M72.78528,13.88632L38.81468,.25212c-.847-.33616-1.78231-.33616-2.62055,0L2.22355,13.88632c-1.3412,.53082-2.22355,1.83145-2.22355,3.28246V62.3977c0,20.77415,16.79121,37.6023,37.5,37.6023,10.35882,0,19.72938-4.21145,26.51469-11.00641,6.78528-6.81265,10.98531-16.20881,10.98531-26.59588V17.16878c0-1.45101-.87352-2.75164-2.21472-3.28246Zm-.64411,48.51139c0,19.18159-15.51177,34.73564-34.64117,34.73564-9.56468,0-18.22056-3.89291-24.49414-10.17474-6.26468-6.28177-10.13822-14.97014-10.13822-24.5609V19.10641c0-1.44218,.87352-2.74278,2.21472-3.28249L36.19413,3.34878c.83825-.33616,1.77355-.33616,2.62055,0l31.10296,12.47515c1.34117,.53971,2.22353,1.84031,2.22353,3.28249V62.3977Z"/></g></svg>