<?xml version="1.0" encoding="UTF-8"?><svg id="Layer_2" xmlns="http://www.w3.org/2000/svg" viewBox="0 0 75 98.475"><defs><style>.cls-1{fill:#fff;}</style></defs><path class="cls-1" d="m71.5,13.175L39.5.375c-1.3-.5-2.8-.5-4.1,0L3.6,13.175c-2.2.8-3.6,2.9-3.6,5.3v42.4c0,20.7,16.8,37.6,37.5,37.6,10,0,19.4-3.9,26.5-11s11-16.5,11-26.6V18.475c0-2.4-1.4-4.5-3.5-5.3Zm-34,77.80001c-8,0-15.6-3.2-21.3-8.9-5.7-5.6-8.8-13.1-8.8-21.3V20.175c0-.4.3-.8.7-.9l29-11.7c.2-.1.6-.1.7,0l29.2,11.7c.3.1.6.5.6.9v40.6c0,16.7-13.5,30.2-30.1,30.20001Z"/><path class="cls-1" d="m16.6,46.975c-1.2,1.2-1.2,3.2,0,4.4l15.6,15.6c1.2,1.2,3.2,1.2,4.4,0s1.2-3.2,0-4.4l-10.3-10.3h29.9c1.7,0,3.1-1.4,3.1-3.1s-1.4-3.1-3.1-3.1h-29.90001l10.3-10.3c1.2-1.2,1.2-3.2,0-4.4s-3.2-1.2-4.4,0l-15.6,15.6h.00001Z"/></svg>